<?xml version="1.0" encoding="utf-8"?>
<!-- Generator: Adobe Illustrator 21.0.0, SVG Export Plug-In . SVG Version: 6.00 Build 0)  -->
<svg version="1.1" id="Layer_1" xmlns="http://www.w3.org/2000/svg" xmlns:xlink="http://www.w3.org/1999/xlink" x="0px" y="0px"
	 viewBox="0 0 539.9 404.8" style="enable-background:new 0 0 539.9 404.8;" xml:space="preserve">
<style type="text/css">
	.st0{fill:#E9FAFF;}
	.st1{fill:#C3E6FA;}
	.st2{fill:#ACD7FA;}
	.st3{fill:#98C7FA;}
	.st4{fill:#7FB2FA;}
	.st5{fill:#ACDEFA;}
	.st6{fill:none;}
	.st7{fill:#BCB3F2;}
	.st8{clip-path:url(#SVGID_2_);}
	.st9{fill:#1C253D;}
	.st10{fill:#644EFA;}
	.st11{fill:#EAF8FF;}
	.st12{opacity:0.7;fill:#FFFFFF;}
	.st13{fill:none;stroke:#1C253D;stroke-width:1.8672;stroke-miterlimit:10;}
	.st14{fill:none;stroke:#002E35;stroke-width:0.5602;stroke-miterlimit:10;}
	.st15{fill:#5199DB;}
	.st16{fill:#3C4647;}
	.st17{fill:#EAEAEA;}
	.st18{clip-path:url(#SVGID_4_);fill:#939393;}
	.st19{clip-path:url(#SVGID_6_);fill:#939393;}
	.st20{clip-path:url(#SVGID_8_);}
	.st21{clip-path:url(#SVGID_10_);fill:#939393;}
	.st22{clip-path:url(#SVGID_12_);fill:#939393;}
	.st23{fill:#FDAF26;}
	.st24{fill:#DE9681;}
	.st25{fill:#D8952A;}
	.st26{fill:#6E99C4;}
	.st27{fill:#87AFD9;}
	.st28{fill:#FFFFFF;}
	.st29{fill:#E9EDF2;}
	.st30{fill:#F9C4B9;}
	.st31{fill:#E8AB9E;}
	.st32{fill:#17254D;}
	.st33{fill:#121D3F;}
	.st34{fill:none;stroke:#E8AB9E;stroke-width:1.6598;stroke-miterlimit:10;}
	.st35{fill:#0E1E3D;}
	.st36{fill:#CC7A66;}
	.st37{fill:#D7DFE0;}
	.st38{fill:#D1D6DB;}
	.st39{fill:#C1CEDB;}
	.st40{fill:#D89281;}
	.st41{fill:#FEFEFE;}
	.st42{fill:#DF3B36;}
	.st43{fill:#F6CECD;}
	.st44{fill:#FE625A;}
	.st45{fill:#1B1812;}
	.st46{fill:#E44843;}
	.st47{fill:#EA5E59;}
	.st48{opacity:0.7;fill:#E9FAFF;}
</style>
<g>
	<path class="st0" d="M305.3,133.5c8.4-4.7,17.1-3.8,25.2-1.1c10.8,3.6,20.5,1.7,30.3-2.4c5.3-2.2,10.6-4.6,15.7-7.3
		c17.4-9.1,35.2-3.1,45.9,10.3c6.2,7.7,13.9,11,23.7,10.8c4.7-0.1,9.5,1.6,14.3,2.7c0.7,0.2,1.6,1,1.8,1.7c0.2,1.4-1.1,1.8-2.1,2
		c-1.5,0.2-3.1,0.1-4.7,0.1c-49.2,0-98.4,0-147.7,0c-2.6,0-5.2,0-7.7,0.1C292,147.9,295.4,139.1,305.3,133.5z"/>
</g>
<path class="st1" d="M528.4,274c-0.4-15.5-1.1-30.6-6.1-44.2c0,0,0,0,0,0c-2.6-7.1-6.4-13.8-11.9-19.8
	c-11.4-12.4-30.1-22.3-61.1-27.9c-7.6-1.4-16-2.5-25.1-3.4c-13.2-1.2-28.1-1.9-44.8-1.9c-5.4-0.3-10.3-2.1-14.7-5.2
	c-0.5-0.4-1-0.7-1.6-1.1c-28-21.2-43.7-88.9-123.1-106.3c-11.3-2.5-23.9-4-38.1-4.1c-0.9,0-1.8,0-2.7,0c-30.2,0-54.8,3.7-74.7,10
	c-1.9,0.6-3.7,1.2-5.4,1.8c-30.8,11-49.7,28.6-61.1,48.4c-12.1,21.1-15.6,44.7-15.6,65.7l0.7,41.2l0,0l0.9,55.6l0.5,29.5h0l0.3,19.3
	c0.6,33,27.6,59.4,60.6,59.2l364.1-2.5c33.1-0.2,59.8-27.1,59.8-60.2C529.1,311.3,528.9,292.5,528.4,274z"/>
<g>
	<path class="st2" d="M82.9,241c-2.9,7.5-11.7,16.5-24.6,19.5c-1.7,0.4-4.2,0.9-7.2,1.1c-0.5,0-1,0-1.5,0c-3,0-6.3-0.4-9.9-1.7
		c-3.1-1.1-13.2-4.8-14-12.8c-0.5-5.3,3.2-9.5,4.5-10.9l0,0c0,0-10.5-5.6-7.5-12c0.4-0.8,3.5-4.7,4.3-5.4c0.1-0.1,0.3-0.2,0.4-0.3
		c0.2-0.2,0.5-0.4,0.7-0.5c0.2-0.1,0.4-0.2,0.6-0.3c0.5-0.3,1.1-0.5,1.7-0.7c4.7-1.5,9.7,1,12.3,2.5c0.4,0.2-1.6-2.1-1.8-2.5
		c0,0-1.7-12.7,14.2-10.7c11.4,1.5,7.7,11.7,7.7,11.8c0,0,1.2-0.9,3-1.6c0.3-0.1,0.6-0.2,0.9-0.3c0.2,0,0.4-0.1,0.5-0.1
		c0.9-0.2,1.8-0.3,2.7-0.1c1.7,0.2,3.6,1,5.2,2.9c1.6,1.9,1.6,3.8,0.8,5.6c-1.8,4.1-7.9,7.5-7.9,7.5s10-0.6,15,4.7
		C84.5,238,83.1,240.2,82.9,241L82.9,241z"/>
	<path class="st3" d="M82,254.4c-6.6,9.5-21.3,10.2-30.9,10.7c-2.2,0.1-3.4,0.2-5.2,0c-7.3-0.7-20.3-4.6-22-13.8
		c-1.4-7.4,5.1-13.9,6.3-15.1l0,0c2.9,1.6,9.5,4.6,17.9,3.8c0.6-0.1,1.1-0.1,1.7-0.2c0.3,0,0.5-0.1,0.8-0.1c3.9-0.7,7.4-2.2,10.3-4
		c0.9-0.6,1.8-1.2,2.6-1.8c6.2-4.7,12-8.5,12.5-9.4c-0.8-0.7,0.9,0.7,0,0c-1.8,4.1-3.8,8.2-3.8,8.2s6.3-1.7,10.8,3.9
		c0,0,1.2,1.7,1.8,4C85.8,243.8,85.3,249.7,82,254.4L82,254.4z"/>
	<path class="st4" d="M53.6,273.9c0,1.2-1.8,1.2-1.8,0c0-1.2,0-3.2,0.1-4.4c0.1-9,0.3-20.8,0.5-29.8l0.1-5.5c0-0.4,0.6-0.4,0.6,0
		C53.1,246.8,53.4,261.3,53.6,273.9L53.6,273.9z"/>
	<path class="st4" d="M52.3,238.7l7.6-6.9c0.1-0.1,0.2-0.1,0.2,0c0.1,0.1,0.1,0.2,0,0.2l-7.4,7.1c-0.1,0.1-0.3,0.1-0.4,0
		C52.2,239.1,52.2,238.9,52.3,238.7L52.3,238.7z"/>
	<path class="st4" d="M52.3,263l11-10c0.1-0.1,0.3-0.1,0.3,0c0.1,0.1,0.1,0.2,0,0.3l-10.7,10.3c-0.2,0.2-0.5,0.2-0.6,0
		C52.2,263.5,52.2,263.2,52.3,263L52.3,263z"/>
	<path class="st4" d="M52.4,247.8L41,237.3c0,0-0.1-0.1,0-0.2c0,0,0.1-0.1,0.2,0l11.8,10c0.2,0.2,0.2,0.4,0.1,0.6
		C52.9,247.9,52.6,248,52.4,247.8C52.4,247.8,52.4,247.8,52.4,247.8L52.4,247.8z"/>
	<path class="st3" d="M50.8,211.4c0-0.2,1.7-2.9,0-2.9s-0.6,2.4-0.6,2.4s-3.8-2.5-2.8-1C48.4,211.4,50.8,211.4,50.8,211.4z"/>
	<path class="st3" d="M53.8,225.6c-1.4-1-2,1.5-2,1.5s0.4-3.7-1.6-2.5c-0.8,0.5-0.3,1.4,0.5,2.1c-1-0.5-2.2-0.6-2.3,0.1
		c-0.2,1.1,3.6,1,3.6,1C52.1,227.7,55.2,226.6,53.8,225.6L53.8,225.6z"/>
	<path class="st3" d="M65,229.1c-0.4-1.7-1.9-0.8-1.9-0.8s2.1-1.9-0.2-2.2c-1-0.2-2,1.2-1.9,2.2c-0.4-1-0.3-2.2-0.9-1.7
		c-0.9,0.7,0.3,3.5,0.3,3.5C60.6,230,65.5,230.8,65,229.1z"/>
	<path class="st3" d="M65,217.9c-0.4-1.7-1.9-0.8-1.9-0.8s2.1-1.9-0.2-2.2c-1-0.2-2,1.2-1.9,2.2c-0.4-1-0.3-2.2-0.9-1.7
		c-0.9,0.7,0.3,3.5,0.3,3.5C60.6,218.8,65.5,219.6,65,217.9z"/>
	<path class="st5" d="M191.1,221.8l-7-0.4l0.4-5.7C186.7,217.7,188.9,219.7,191.1,221.8z"/>
	<path class="st5" d="M183.5,230.7l17.2,1.1c2.3,2.6,4.6,5.3,6.8,8.1l-24.4-1.6L183.5,230.7L183.5,230.7z"/>
	<path class="st1" d="M114.8,231l53.4,3.4l0.6-9.4l-53.4-3.4L114.8,231z"/>
	<path class="st2" d="M159.8,255.2c2.8,4.8,26.2,5,32.8,0.5c0.7-0.5,2.3-1.6,2.4-3.2c0-2.1-3.1-3.5-3.1-3.5s7.2-2.1,10-6.8
		c1.5-2.4,0.2-4-1.9-4.3c1.2-1,2.2-2.3,2.6-3.7c-1.8-2.1-3.7-4.2-5.6-6.2c-2.4,1.2-4.8,4.5-6.2,6.9c1.4-2.5,3.2-6.4,3.6-9.7
		c-1.4-1.4-2.7-2.7-4.1-4.1c-1.5,1.4-2.8,4-2.8,4s0.4-3.2,0.3-6.4c-2-1.8-4-3.6-6.1-5.4c-3.6,3-3.4,11.4-3.2,14.4
		c-0.3-3.5-1.8-13.5-6.9-10.8c-4.7,2.5-2.7,9.8-1.5,13c-1-2-3.1-5-7.1-3.6c-0.5,0.2-1,0.4-1.3,0.7c-2.6,2.2-0.6,6.9,0.5,9.1
		c0.2,0.4,0.4,0.8,0.5,1c-0.1-0.2-0.3-0.5-0.6-0.9c-1.2-1.6-3.7-4.4-6.6-2.9c-1.6,0.9-1.1,3.4,0.1,6.1c0.2,0.4,0.4,0.8,0.6,1.2
		c0.1,0.1,0.1,0.3,0.2,0.4c1.1,2.1,2.4,4.1,3.3,5.4c-0.8-0.7-1.9-1.2-2.8-0.2c-1.7,1.8-1,7.6,5.4,4.6c-2.2,1.5-2.7,2.6-2.7,3.4
		C159.6,254.6,159.6,254.9,159.8,255.2L159.8,255.2z"/>
	<path class="st2" d="M116.8,241c0.3-0.2,0.6-0.3,1-0.2c-1-1-1-3.2-0.5-5c0.5-1.7,1.4-3,2.5-3c0,0,0,0,0,0l3,0.2c0,0-1-2,0-4.7
		c0.2-0.7,0.6-1.3,1.1-2c0.1-0.1,0.2-0.2,0.2-0.3c3-3.7,7.2,1.8,7.3,1.9c-0.1-0.2-8.5-13.3-0.7-12.5c5.5,0.6,6.3,4.6,6.4,7
		c0.4-3.7,2-11.6,7.6-10.3c7,1.5,4.3,12.7,4.2,13.3c0.2-0.8,4.6-14.4,10.2-10.6c5.7,3.8-4.2,15.2-4.4,15.4c0.1-0.1,3.9-3.5,6.8-3.4
		c1.2,0.1,2.3,0.8,2.8,2.6c0.6,2.4-0.5,4.6-2.3,6.5c0,0,0,0.1-0.1,0.1c-1.2,1.2-2.6,2.4-3.8,3.2c-0.7,0.5-1.4,0.9-2,1.3
		c-0.9,0.5-1.6,0.9-1.7,0.9c0.1,0,0.9-0.3,1.9-0.5c0.6-0.1,1.3-0.2,2-0.3c0.6,0,1.2,0,1.8,0.1c2.2,0.5,4,2.3,2.8,7.3
		c-0.1,0.5-0.8,4.1-3.2,7c-0.3,0.3-0.6,0.6-0.9,0.9c-0.2,0.2-0.4,0.3-0.6,0.5c-0.6,0.5-1.8,1-3.2,1.4c-4.1,1.1-10.9,1.8-16.2,1.3
		c-7.6-0.6-7.7-1.7-9.2-3c-0.4-0.3-0.9-0.7-1.7-1.1c-0.8-0.4-1.6-0.7-2.3-1.1c-5.2-2.8-8.7-6.5-9.3-9.8
		C116.3,243.6,116,241.7,116.8,241z"/>
	<path class="st2" d="M96.7,240.8c-0.6-3.8,1.4-4.2,3.4-3.8c1.3,0.3,2.7,0.9,3.4,1.2c0.3,0.1,0.5,0.2,0.5,0.2c0-0.3-4-1.7-4.8-6
		c-0.2-1.2-0.2-2.6,0.1-4.2c1.2-5,4.7-3,7-1c-2-2.4-4.2-6.6-0.4-10.6c5.8-6.1,9.2,3.8,9.2,3.8s1.2-3.5,6-1.9c4.8,1.5,0.1,8.6,0,8.7
		c0,0,1.3-0.8,2.8-0.8c1.7-0.1,3.7,0.7,4.5,4.5c0.8,3.5-0.7,5.8-2.4,7.3c-1.5,1.3-3.1,1.9-3.5,2c0.4-0.1,2.3-0.6,4.1-0.3
		c1.7,0.3,3.4,1.4,3.8,4.1c0.6,4,0.5,7.7-0.7,9.8c-0.4,0.7-0.9,1.3-1.6,1.6c-0.4,0.2-0.7,0.2-1.2,0.3c-0.1,0-0.1,0-0.2,0
		c-4,0.2-19.9,3.2-23-3.6c0,0-5.1-2.3-6.8-10.5C96.8,241.2,96.8,241,96.7,240.8L96.7,240.8z"/>
	<path class="st3" d="M150.9,251.9c-0.5-3.6-1.3-12.6,2.4-14.7c1.3-0.7,3.3-0.8,4.1,0.3c0.4,0.6,0.7,1.9,0.8,1.9
		c0.1,0.4,0.1,0.9,0.2,1.4c0.3,2.1,0.5,4.2,0.8,2.4c0.2-1,0.5-1.7,1-2.3c1.3-1.4,3.8-1.5,8.4-0.9c6.4,0.9-0.6,6.5,1.1,10.5
		c1.7,4,2.6-1.3,5.9-3.4c3.3-2.2,1.9,1.1,2.8,5.9c0.9,4.8,14.3,2.6,14.3,2.6c-6.6,4.6-30.1,4.3-32.8-0.5c-0.3,0.3-0.6,0.6-0.9,0.9
		c-0.2,0.2-0.4,0.3-0.6,0.5c-0.6,0.5-1.8,1-3.2,1.4C152.5,256.3,151.2,254.2,150.9,251.9L150.9,251.9z"/>
	<path class="st3" d="M118.9,241.3c-2.8-5.8-0.7-4.5,0.3-5.4c0.4-0.3,0.5-1.6,0.6-3.1c0.2-2.9,0.2-6.6,1.4-5.7l1.7,1.2l0.2,0.2
		c0.1,0.3,1.4,5.3,3,9.6c0.2,0.6,0.4,1.1,0.6,1.7c1.4,3.6,2.9,6.1,3.8,4.1c2-4.6,5.4-5.7,5.9-2.2c0.6,3.5-3.7,9.6,0.7,7.2
		c4.5-2.3,5.9-6.3,7.6-2.3c1.7,4,1,8.6,3.5,6.6c0.8-0.7,1.8-1.1,2.7-1.2c1.8-0.3,3.5,0.4,4.1,1.2c0.3,0.5,2.2,1.6,3.9,3
		c-0.2,0.2-0.4,0.3-0.6,0.5c-0.6,0.5-1.8,1-3.2,1.4c-4.1,1.1-10.9,1.8-16.2,1.3c-7.6-0.6-7.7-1.7-9.2-3c-0.4-0.3-0.9-0.7-1.7-1.1
		c-0.4,0.2-0.7,0.2-1.2,0.3c-0.1,0-0.1,0-0.2,0c-0.3-0.5-0.6-0.9-0.9-1.4C122.1,248.6,121,245.8,118.9,241.3L118.9,241.3z"/>
	<path class="st3" d="M96.8,240.8c1.9-0.3,4.5,1.5,5.7,1.7c2.1,0.2,1.5-4.1,1.5-4.1c0-0.3-4-1.7-4.8-6c3.7-0.7,9.4-0.2,11.2,3
		c1.7,3.2,4.7,1.2,6.8,0.4c0.9-0.3,1.6-0.4,2,0.1c1.2,1.6,8.3,13.9,10.5,17.8c0.4,0.7,0.7,1.2,0.7,1.2s-0.1,0.6-0.5,1.4
		c-0.4-0.3-0.9-0.7-1.7-1.1c-0.4,0.2-0.7,0.2-1.2,0.3c-0.1,0-0.1,0-0.2,0c-4,0.2-19.9,3.2-23-3.6c0,0-5.1-2.3-6.8-10.5
		C96.8,241.2,96.8,241,96.8,240.8L96.8,240.8z"/>
	<path class="st3" d="M186.9,227.5c-0.1-2.9-2.4,1.4-2.6,2.3c-0.2,0.9-0.3-3-2.2-2.5s1.3,4.9,1.3,4.9
		C184.6,231.8,187,230.4,186.9,227.5z"/>
	<path class="st3" d="M147.3,232.8c2-1.4-3.1-1.5-3.8-1.5c-0.7,0,1.6-0.5,1.5-2.7c-0.1-2.2-3.4,1.8-3.4,1.8s-0.2-2.9-1.3-3.9
		c-1.1-1,0.1,4.7,0.4,5.9C140.7,232.4,145.3,234.2,147.3,232.8z"/>
	<path class="st3" d="M190.5,243.3c0,0,4.6-0.5,4.7-3.5c0.1-3-3,1.4-3,1.4s0.4-2-1.4-2.3C189,238.6,190.5,243.3,190.5,243.3
		L190.5,243.3z"/>
	<path class="st3" d="M171.5,237.7c0,0,2.2,0.6,3.7-2.4c1.5-3-2.5,0-2.7,0.8c-0.3,0.8-0.7-2.1-2.3-1.8
		C168.6,234.5,171.5,237.4,171.5,237.7L171.5,237.7z"/>
	<path class="st3" d="M109.6,222.6c0,0,2.2-3,0.4-4.6c-1.8-1.6-0.7,1.6-0.2,2.1c0.5,0.5-1.1-1.7-2.8-0.2
		C105.4,221.4,109.3,222.2,109.6,222.6L109.6,222.6z"/>
	<path class="st3" d="M138.9,236.4c-1.5-0.9-0.7,1.8-0.7,1.8s-0.4-1.8-1.5-0.7c-1.1,1.1,2.7,3.5,3.1,4.1
		C139.7,241.6,140.3,237.3,138.9,236.4z"/>
	<rect x="9" y="201.9" class="st6" width="208.5" height="109.6"/>
</g>
<path class="st7" d="M92.9,19.1h94.9c10.7,0,19.4,8.7,19.4,19.4v101c0,7.5-7.7,12.6-14.6,9.6l-37.5-16.2H92.9
	c-10.7,0-19.4-8.7-19.4-19.4v-75C73.5,27.8,82.2,19.1,92.9,19.1z"/>
<g>
	<defs>
		<path id="SVGID_1_" d="M528.4,274c-0.4-15.5-1.1-30.6-6.1-44.2c0,0,0,0,0,0c-2.6-7.1-6.4-13.8-11.9-19.8
			c-11.4-12.4-30.1-22.3-61.1-27.9c-7.6-1.4-16-2.5-25.1-3.4c-13.2-1.2-28.1-1.9-44.8-1.9c-5.4-0.3-10.3-2.1-14.7-5.2
			c-0.5-0.4-1-0.7-1.6-1.1c-28-21.2-43.7-88.9-123.1-106.3c-11.3-2.5-23.9-4-38.1-4.1c-0.9,0-1.8,0-2.7,0c-30.2,0-54.8,3.7-74.7,10
			c-1.9,0.6-3.7,1.2-5.4,1.8c-30.8,11-49.7,28.6-61.1,48.4c-12.1,21.1-15.6,44.7-15.6,65.7l0.7,41.2l0,0l0.9,55.6l0.5,29.5h0
			l0.3,19.3c0.6,33,27.6,59.4,60.6,59.2l364.1-2.5c33.1-0.2,59.8-27.1,59.8-60.2C529.1,311.3,528.9,292.5,528.4,274z"/>
	</defs>
	<clipPath id="SVGID_2_">
		<use xlink:href="#SVGID_1_"  style="overflow:visible;"/>
	</clipPath>
	<g class="st8">
		<path class="st9" d="M559.7,494.6H367.1c0,0-2.8-93,94.3-92.1C461.4,402.5,544.8,394.1,559.7,494.6z"/>
		<path class="st9" d="M367.1,513l-374.5,6.8l-84.5-99l-79,99h-5.4c-5.2-0.4-9.1-4.7-9-9.9c0.4-26.8,10.7-102.8,97.9-100
			c0,0,88.4-15.1,89.2,96.2l365.1-2.9L367.1,513z"/>
		<path class="st10" d="M103.9,237.6l-141.6,77.7c-40.8,6.7-83.8,13.8-128.2,21.2c-25.5,7.4-47.9,18.1-67.2,32.4
			c-13.6,16-21.7,33.2-26.1,51c-2.5,25.3-0.5,47.7,7.5,66c9,12.7,20.2,20.9,33.6,24.9c14.5,11.7,26.4,16.6,34.9,12.4l-0.4-4.4
			c-2.1-23.4,2.9-47.1,15.4-67c17.6-28.2,44.6-42.1,80.9-41.8c57.9,1.2,87.8,41.1,89.2,96.2c0.3,12.8,365.1-2.9,365.1-2.9
			c0.8-62.6,30.7-97.8,94.6-100.8c57,0.8,87.5,34.2,98.3,92.1l14.9,2.5c1.1-16,4.7-30.2,16.2-38.6c1.9-21.5,1.9-51.7-7.5-53.5
			c-9.3-1.9-19.9-95.2-27.4-95.8c-4-2.4-56-63.5-56-63.5c4.6-5.1,6-10.1,2.5-14.9c-72.4-15.1-146.5-22.3-222.8-19.9
			c-23.9-0.3-47.2-0.4-69.6-0.4C172.9,210.4,136.4,219.7,103.9,237.6z"/>
		<path class="st9" d="M502.8,337.4c-2.8,0-5.4,0.6-7.9,1.6c1.5-0.4,3-0.6,4.5-0.6c10.6,0,19.2,8.6,19.2,19.2
			c0,10.6-8.6,19.2-19.2,19.2c-1.6,0-3.1-0.2-4.5-0.6c2.4,1,5.1,1.6,7.9,1.6c11.2,0,20.2-9.1,20.2-20.2
			C523,346.5,514,337.4,502.8,337.4z"/>
		<path class="st9" d="M494.5,309.1c-46.9,6.7-224.3,29.7-476,31.7c-6.2,0-9.3-7.6-4.6-11.8c21.3-19.4,69.2-58.4,135.4-85.9
			c21.8-9,45-14.1,68.5-14.8c63.8-2.1,206.5-4.9,228.2,12.4c0,0,41.1,30.3,55.9,52.3C506,299.3,502.1,308,494.5,309.1z"/>
		<path class="st1" d="M480.7,302.4c-23.2,4-93.3,15.4-140.3,15c-2.6,0-4.6-0.2-4.6-2.8v-74.4c0-2.6,2.1-4.6,4.6-4.6h29.9
			c30.2,0.1,41.5,3,52,6.7c10.4,3.7,19.9,9.6,27.9,17.1c5.9,5.5,12.7,12.1,16.1,16.3l17.1,21C485.7,299.5,484.2,301.8,480.7,302.4z"
			/>
		<path class="st1" d="M268,243.1c0-4.1-3.3-7.4-7.4-7.4l0,0c-41.7,0-82.9,3.6-120.7,19.4l-12.9,5.4c-26.7,11.2-49.4,29-65.2,51.5
			l0,0c-5.1,7.3,0.7,16.8,10.3,16.8l188.6-6.9c4.1,0,7.4-3.3,7.4-7.4V243.1z"/>
		<path class="st11" d="M126.9,226.7l13.4,2.5c0,0-137.5,69.7-155,87.8l-23-1.5C-37.8,315.4,112.5,230.3,126.9,226.7z"/>
		<g>
			<path class="st6" d="M340.5,235.7c-2.6,0-4.6,2.1-4.6,4.6v6.6l48.4,68.5c11.2-1,22.5-2.2,33.3-3.6l-53.8-76.1H340.5z"/>
			<path class="st6" d="M335.8,314.7c0,2.6,2.1,2.8,4.6,2.8c7.8,0.1,16.2-0.2,25-0.7l-29.6-41.9V314.7z"/>
			<path class="st6" d="M451.4,260.5c-0.4-0.3-0.7-0.7-1.1-1c-8.1-7.5-17.5-13.5-27.9-17.1c-2.6-0.9-5.3-1.8-8.3-2.6l46.6,65.9
				c8.3-1.3,15.2-2.5,20.1-3.3c0.1,0,0.2,0,0.2-0.1L451.4,260.5z"/>
			<path class="st12" d="M335.8,274.8l29.6,41.9c6.1-0.4,12.4-0.8,18.8-1.4l-48.4-68.5V274.8z"/>
			<path class="st12" d="M483.5,296.8l-17.1-21c-3.2-4-9.4-10-15-15.3l29.5,41.8C484.3,301.7,485.7,299.5,483.5,296.8z"/>
			<path class="st12" d="M370.4,235.7h-6.6l53.8,76.1c16-2,31.1-4.2,43.1-6.1L414,239.8C405,237.4,393,235.8,370.4,235.7z"/>
		</g>
		<g>
			<path class="st6" d="M89.5,282.6l31.4,44.4l19.3-0.7l-37.6-53.2C98.1,276.1,93.7,279.2,89.5,282.6z"/>
			<path class="st6" d="M79.7,291.2l25.7,36.4l10.8-0.4l-29.7-42.1C84.1,287.1,81.8,289.2,79.7,291.2z"/>
			<path class="st6" d="M61.7,312L61.7,312c-5.1,7.3,0.7,16.8,10.3,16.8l14.1-0.5l-17.7-25C66.1,306.1,63.8,309,61.7,312z"/>
			<path class="st6" d="M139.8,255.1l-1.9,0.8l48.6,68.7l22.1-0.8l-52.7-74.7C150.5,251,145.1,252.9,139.8,255.1z"/>
			<path class="st6" d="M238.5,236.1c-25.4,1-50.5,3.8-74.5,10.6l54.2,76.8l42.3-1.5c4.1,0,7.4-3.3,7.4-7.4v-36.7L238.5,236.1z"/>
			<path class="st11" d="M68.4,303.3l17.7,25l19.2-0.7l-25.7-36.4C75.7,295.1,71.9,299.1,68.4,303.3z"/>
			<path class="st11" d="M155.9,249.2l52.7,74.7l9.6-0.4L164,246.7C161.3,247.5,158.6,248.3,155.9,249.2z"/>
			<path class="st11" d="M86.4,285.2l29.7,42.1l4.8-0.2l-31.4-44.4C88.5,283.4,87.4,284.3,86.4,285.2z"/>
			<path class="st11" d="M126.9,260.5c-8.5,3.6-16.6,7.8-24.2,12.6l37.6,53.2l46.2-1.7l-48.6-68.7L126.9,260.5z"/>
			<path class="st11" d="M268,243.1c0-4.1-3.3-7.4-7.4-7.4h0c-7.4,0-14.7,0.1-22.1,0.4l29.5,41.8V243.1z"/>
		</g>
		<path class="st11" d="M-237.3,388.1L-237.3,388.1c5.6-10.6,14.3-19.2,24.9-24.6l29.3-14.8c6.2-3.2,13.5-3.7,20.1-1.6h0
			c2,0.6,3.3,2.5,3.3,4.5l0,0c0,7.1-3.7,13.7-9.8,17.4l-26,15.8c-3.5,2.1-7.3,3.6-11.2,4.4l-25.6,5.4
			C-236.1,395.5-239.1,391.6-237.3,388.1z"/>
		<path class="st13" d="M268,482.5"/>
		<path class="st13" d="M268,345.9"/>
		<path class="st14" d="M272.8,357.7v124.8L17,490.6c0,0,9.3-61.6-41.1-88.2"/>
		<path class="st14" d="M272.8,482.5h63c0,0,12.8-94.8,88.2-100.2"/>
		<path class="st9" d="M-251.9,485.9c0,0,25.1,15.4,37,13.2c3.7-0.7,7.5-0.6,11.2-0.2l5.1,0.5c8.3,0.9,14.7,7.8,15,16.2l0.2,7.6
			c0,0-13.1,6-34.9-12.4C-218.2,510.8-234.4,508-251.9,485.9z"/>
		<path class="st15" d="M-172.9,345.8c-2.5,0.4-3.8,3-2.8,5.3c3.1,6.9,1.3,21.7-34.5,39c0,0,0.6,3.7,26.1-12.2
			c0,0,26.7-7.5,24.3-26.2C-159.7,351.7-158,343.4-172.9,345.8z"/>
		<path class="st10" d="M87.9,315c0,11.3,2,20.4-12.1,20.4s-25.5-9.2-25.5-20.4s11.4-20.4,25.5-20.4S87.9,303.7,87.9,315z"/>
		<g>
			<circle class="st16" cx="-89.4" cy="505" r="86.5"/>
			
				<ellipse transform="matrix(0.7071 -0.7071 0.7071 0.7071 -383.2888 84.7301)" class="st17" cx="-89.4" cy="505" rx="64" ry="64"/>
			<circle class="st6" cx="-89.4" cy="505" r="64"/>
			<g>
				<defs>
					<circle id="SVGID_3_" cx="-89.4" cy="505" r="52.7"/>
				</defs>
				<use xlink:href="#SVGID_3_"  style="overflow:visible;fill:#CCCCCC;"/>
				<clipPath id="SVGID_4_">
					<use xlink:href="#SVGID_3_"  style="overflow:visible;"/>
				</clipPath>
				<path class="st18" d="M-92.9,487.8l-11-22.5c-2.3-4.8-1.1-12.4,2.4-14.1c5.8-2.7,14.6-4.8,24.8,0.4c3.4,1.7,4.6,9.4,2.2,14.1
					l-11.2,22.1C-87.7,491.6-91,491.6-92.9,487.8z"/>
				<path class="st18" d="M-85.6,521.3l11,22.5c2.3,4.8,1.1,12.4-2.4,14.1c-5.8,2.7-14.6,4.8-24.8-0.4c-3.4-1.7-4.6-9.4-2.2-14.1
					l11.2-22.1C-90.8,517.5-87.5,517.5-85.6,521.3z"/>
				<path class="st18" d="M-72.4,501.3l22.5-11c4.8-2.3,12.4-1.1,14.1,2.4c2.7,5.8,4.8,14.6-0.4,24.8c-1.7,3.4-9.4,4.6-14.1,2.2
					l-22.1-11.2C-76.2,506.5-76.2,503.2-72.4,501.3z"/>
				<path class="st18" d="M-105.9,508.6l-22.5,11c-4.8,2.3-12.4,1.1-14.1-2.4c-2.7-5.8-4.8-14.6,0.4-24.8c1.7-3.4,9.4-4.6,14.1-2.2
					l22.1,11.2C-102.1,503.4-102.1,506.7-105.9,508.6z"/>
				<circle class="st18" cx="-121.4" cy="470.4" r="12.7"/>
				<circle class="st18" cx="-54.1" cy="470.4" r="12.7"/>
				<circle class="st18" cx="-123" cy="538" r="12.7"/>
				<circle class="st18" cx="-55.7" cy="538" r="12.7"/>
			</g>
		</g>
		<g>
			<circle class="st16" cx="463.1" cy="505" r="86.5"/>
			<circle class="st17" cx="463.1" cy="505" r="64"/>
			<g>
				<defs>
					
						<ellipse id="SVGID_5_" transform="matrix(0.7071 -0.7071 0.7071 0.7071 -222.1764 475.641)" cx="463.1" cy="506" rx="52.7" ry="52.7"/>
				</defs>
				<use xlink:href="#SVGID_5_"  style="overflow:visible;fill:#CCCCCC;"/>
				<clipPath id="SVGID_6_">
					<use xlink:href="#SVGID_5_"  style="overflow:visible;"/>
				</clipPath>
				<path class="st19" d="M448.4,496.3l-23.7-8.1c-5-1.7-9.5-8.1-8.3-11.7c2.1-6,7-13.7,17.9-17.3c3.6-1.2,9.9,3.4,11.5,8.5
					l7.7,23.5C454.8,495.3,452.4,497.7,448.4,496.3z"/>
				<path class="st19" d="M477.2,514.9l23.7,8.1c5,1.7,9.5,8.1,8.3,11.7c-2.1,6-7,13.7-17.9,17.3c-3.6,1.2-9.9-3.4-11.5-8.5
					l-7.7-23.5C470.8,515.8,473.2,513.5,477.2,514.9z"/>
				<path class="st19" d="M472.4,491.3l8.1-23.7c1.7-5,8.1-9.5,11.7-8.3c6,2.1,13.7,7,17.3,17.9c1.2,3.6-3.4,9.9-8.5,11.5l-23.5,7.7
					C473.4,497.8,471,495.4,472.4,491.3z"/>
				<path class="st19" d="M453.9,520.2l-8.1,23.7c-1.7,5-8.1,9.5-11.7,8.3c-6-2.1-13.7-7-17.3-17.9c-1.2-3.6,3.4-9.9,8.5-11.5
					l23.5-7.7C452.9,513.8,455.3,516.2,453.9,520.2z"/>
				
					<ellipse transform="matrix(0.7071 -0.7071 0.7071 0.7071 -234.7155 441.7887)" class="st19" cx="415.9" cy="504.2" rx="12.7" ry="12.7"/>
				
					<ellipse transform="matrix(0.7071 -0.7071 0.7071 0.7071 -187.1382 461.4958)" class="st19" cx="463.5" cy="456.6" rx="12.7" ry="12.7"/>
				
					<ellipse transform="matrix(0.7071 -0.7071 0.7071 0.7071 -255.6045 489.0792)" class="st19" cx="462.6" cy="553.1" rx="12.7" ry="12.7"/>
				
					<ellipse transform="matrix(0.7071 -0.7071 0.7071 0.7071 -208.0272 508.7864)" class="st19" cx="510.1" cy="505.5" rx="12.7" ry="12.7"/>
			</g>
		</g>
		<path class="st14" d="M-37.8,328.8l-104.4,21.1c0,0-2.8,41.2-83.2,59.3c0,0-25.2,30.3,0,67.6"/>
		<line class="st14" x1="581.9" y1="404.5" x2="542.7" y2="406.9"/>
		<line class="st14" x1="557.6" y1="310.5" x2="518.4" y2="312.9"/>
		<path class="st14" d="M500,245.7c0,0-44.3-23.5-151.6-24.6"/>
	</g>
</g>
<g>
	<defs>
		<path id="SVGID_7_" d="M528.4,274c-0.4-15.5-1.1-30.6-6.1-44.2c0,0,0,0,0,0c-2.6-7.1-6.4-13.8-11.9-19.8
			c-11.4-12.4-30.1-22.3-61.1-27.9c-7.6-1.4-16-2.5-25.1-3.4c-13.2-1.2-28.1-1.9-44.8-1.9c-5.4-0.3-10.3-2.1-14.7-5.2
			c-0.5-0.4-1-0.7-1.6-1.1c-28-21.2-43.7-88.9-123.1-106.3c-11.3-2.5-23.9-4-38.1-4.1c-0.9,0-1.8,0-2.7,0c-30.2,0-54.8,3.7-74.7,10
			c-1.9,0.6-3.7,1.2-5.4,1.8c-30.8,11-49.7,28.6-61.1,48.4c-12.1,21.1-15.6,44.7-15.6,65.7l0.7,41.2l0,0l0.9,55.6l0.5,29.5h0
			l0.3,19.3c0.6,33,27.6,59.4,60.6,59.2l364.1-2.5c33.1-0.2,59.8-27.1,59.8-60.2C529.1,311.3,528.9,292.5,528.4,274z"/>
	</defs>
	<clipPath id="SVGID_8_">
		<use xlink:href="#SVGID_7_"  style="overflow:visible;"/>
	</clipPath>
	<g class="st20">
		<path class="st9" d="M559.7,494.6H367.1c0,0-2.8-93,94.3-92.1C461.4,402.5,544.8,394.1,559.7,494.6z"/>
		<path class="st9" d="M367.1,513l-374.5,6.8l-84.5-99l-79,99h-5.4c-5.2-0.4-9.1-4.7-9-9.9c0.4-26.8,10.7-102.8,97.9-100
			c0,0,88.4-15.1,89.2,96.2l365.1-2.9L367.1,513z"/>
		<path class="st10" d="M103.9,237.6l-141.6,77.7c-40.8,6.7-83.8,13.8-128.2,21.2c-25.5,7.4-47.9,18.1-67.2,32.4
			c-13.6,16-21.7,33.2-26.1,51c-2.5,25.3-0.5,47.7,7.5,66c9,12.7,20.2,20.9,33.6,24.9c14.5,11.7,26.4,16.6,34.9,12.4l-0.4-4.4
			c-2.1-23.4,2.9-47.1,15.4-67c17.6-28.2,44.6-42.1,80.9-41.8c57.9,1.2,87.8,41.1,89.2,96.2c0.3,12.8,365.1-2.9,365.1-2.9
			c0.8-62.6,30.7-97.8,94.6-100.8c57,0.8,87.5,34.2,98.3,92.1l14.9,2.5c1.1-16,4.7-30.2,16.2-38.6c1.9-21.5,1.9-51.7-7.5-53.5
			c-9.3-1.9-19.9-95.2-27.4-95.8c-4-2.4-56-63.5-56-63.5c4.6-5.1,6-10.1,2.5-14.9c-72.4-15.1-146.5-22.3-222.8-19.9
			c-23.9-0.3-47.2-0.4-69.6-0.4C172.9,210.4,136.4,219.7,103.9,237.6z"/>
		<path class="st9" d="M502.8,337.4c-2.8,0-5.4,0.6-7.9,1.6c1.5-0.4,3-0.6,4.5-0.6c10.6,0,19.2,8.6,19.2,19.2
			c0,10.6-8.6,19.2-19.2,19.2c-1.6,0-3.1-0.2-4.5-0.6c2.4,1,5.1,1.6,7.9,1.6c11.2,0,20.2-9.1,20.2-20.2
			C523,346.5,514,337.4,502.8,337.4z"/>
		<path class="st9" d="M494.5,309.1c-46.9,6.7-224.3,29.7-476,31.7c-6.2,0-9.3-7.6-4.6-11.8c21.3-19.4,69.2-58.4,135.4-85.9
			c21.8-9,45-14.1,68.5-14.8c63.8-2.1,206.5-4.9,228.2,12.4c0,0,41.1,30.3,55.9,52.3C506,299.3,502.1,308,494.5,309.1z"/>
		<path class="st1" d="M480.7,302.4c-23.2,4-93.3,15.4-140.3,15c-2.6,0-4.6-0.2-4.6-2.8v-74.4c0-2.6,2.1-4.6,4.6-4.6h29.9
			c30.2,0.1,41.5,3,52,6.7c10.4,3.7,19.9,9.6,27.9,17.1c5.9,5.5,12.7,12.1,16.1,16.3l17.1,21C485.7,299.5,484.2,301.8,480.7,302.4z"
			/>
		<path class="st1" d="M268,243.1c0-4.1-3.3-7.4-7.4-7.4l0,0c-41.7,0-82.9,3.6-120.7,19.4l-12.9,5.4c-26.7,11.2-49.4,29-65.2,51.5
			l0,0c-5.1,7.3,0.7,16.8,10.3,16.8l188.6-6.9c4.1,0,7.4-3.3,7.4-7.4V243.1z"/>
		<path class="st11" d="M126.9,226.7l13.4,2.5c0,0-137.5,69.7-155,87.8l-23-1.5C-37.8,315.4,112.5,230.3,126.9,226.7z"/>
		<g>
			<path class="st6" d="M340.5,235.7c-2.6,0-4.6,2.1-4.6,4.6v6.6l48.4,68.5c11.2-1,22.5-2.2,33.3-3.6l-53.8-76.1H340.5z"/>
			<path class="st6" d="M335.8,314.7c0,2.6,2.1,2.8,4.6,2.8c7.8,0.1,16.2-0.2,25-0.7l-29.6-41.9V314.7z"/>
			<path class="st6" d="M451.4,260.5c-0.4-0.3-0.7-0.7-1.1-1c-8.1-7.5-17.5-13.5-27.9-17.1c-2.6-0.9-5.3-1.8-8.3-2.6l46.6,65.9
				c8.3-1.3,15.2-2.5,20.1-3.3c0.1,0,0.2,0,0.2-0.1L451.4,260.5z"/>
			<path class="st12" d="M335.8,274.8l29.6,41.9c6.1-0.4,12.4-0.8,18.8-1.4l-48.4-68.5V274.8z"/>
			<path class="st12" d="M483.5,296.8l-17.1-21c-3.2-4-9.4-10-15-15.3l29.5,41.8C484.3,301.7,485.7,299.5,483.5,296.8z"/>
			<path class="st12" d="M370.4,235.7h-6.6l53.8,76.1c16-2,31.1-4.2,43.1-6.1L414,239.8C405,237.4,393,235.8,370.4,235.7z"/>
		</g>
		<g>
			<path class="st6" d="M89.5,282.6l31.4,44.4l19.3-0.7l-37.6-53.2C98.1,276.1,93.7,279.2,89.5,282.6z"/>
			<path class="st6" d="M139.8,255.1l-1.9,0.8l48.6,68.7l22.1-0.8l-52.7-74.7C150.5,251,145.1,252.9,139.8,255.1z"/>
			<path class="st6" d="M61.7,312L61.7,312c-5.1,7.3,0.7,16.8,10.3,16.8l14.1-0.5l-17.7-25C66.1,306.1,63.8,309,61.7,312z"/>
			<path class="st6" d="M79.7,291.2l25.7,36.4l10.8-0.4l-29.7-42.1C84.1,287.1,81.8,289.2,79.7,291.2z"/>
			<path class="st6" d="M238.5,236.1c-25.4,1-50.5,3.8-74.5,10.6l54.2,76.8l42.3-1.5c4.1,0,7.4-3.3,7.4-7.4v-36.7L238.5,236.1z"/>
			<path class="st11" d="M68.4,303.3l17.7,25l19.2-0.7l-25.7-36.4C75.7,295.1,71.9,299.1,68.4,303.3z"/>
			<path class="st11" d="M155.9,249.2l52.7,74.7l9.6-0.4L164,246.7C161.3,247.5,158.6,248.3,155.9,249.2z"/>
			<path class="st11" d="M86.4,285.2l29.7,42.1l4.8-0.2l-31.4-44.4C88.5,283.4,87.4,284.3,86.4,285.2z"/>
			<path class="st11" d="M126.9,260.5c-8.5,3.6-16.6,7.8-24.2,12.6l37.6,53.2l46.2-1.7l-48.6-68.7L126.9,260.5z"/>
			<path class="st11" d="M268,243.1c0-4.1-3.3-7.4-7.4-7.4h0c-7.4,0-14.7,0.1-22.1,0.4l29.5,41.8V243.1z"/>
		</g>
		<path class="st11" d="M-237.3,388.1L-237.3,388.1c5.6-10.6,14.3-19.2,24.9-24.6l29.3-14.8c6.2-3.2,13.5-3.7,20.1-1.6h0
			c2,0.6,3.3,2.5,3.3,4.5l0,0c0,7.1-3.7,13.7-9.8,17.4l-26,15.8c-3.5,2.1-7.3,3.6-11.2,4.4l-25.6,5.4
			C-236.1,395.5-239.1,391.6-237.3,388.1z"/>
		<path class="st13" d="M268,482.5"/>
		<path class="st13" d="M268,345.9"/>
		<path class="st14" d="M272.8,357.7v124.8L17,490.6c0,0,9.3-61.6-41.1-88.2"/>
		<path class="st14" d="M272.8,482.5h63c0,0,12.8-94.8,88.2-100.2"/>
		<path class="st9" d="M-251.9,485.9c0,0,25.1,15.4,37,13.2c3.7-0.7,7.5-0.6,11.2-0.2l5.1,0.5c8.3,0.9,14.7,7.8,15,16.2l0.2,7.6
			c0,0-13.1,6-34.9-12.4C-218.2,510.8-234.4,508-251.9,485.9z"/>
		<path class="st15" d="M-172.9,345.8c-2.5,0.4-3.8,3-2.8,5.3c3.1,6.9,1.3,21.7-34.5,39c0,0,0.6,3.7,26.1-12.2
			c0,0,26.7-7.5,24.3-26.2C-159.7,351.7-158,343.4-172.9,345.8z"/>
		<path class="st10" d="M87.9,315c0,11.3,2,20.4-12.1,20.4s-25.5-9.2-25.5-20.4s11.4-20.4,25.5-20.4S87.9,303.7,87.9,315z"/>
		<g>
			<circle class="st16" cx="-89.4" cy="505" r="86.5"/>
			
				<ellipse transform="matrix(0.7071 -0.7071 0.7071 0.7071 -383.2888 84.7301)" class="st17" cx="-89.4" cy="505" rx="64" ry="64"/>
			<circle class="st6" cx="-89.4" cy="505" r="64"/>
			<g>
				<defs>
					<circle id="SVGID_9_" cx="-89.4" cy="505" r="52.7"/>
				</defs>
				<use xlink:href="#SVGID_9_"  style="overflow:visible;fill:#CCCCCC;"/>
				<clipPath id="SVGID_10_">
					<use xlink:href="#SVGID_9_"  style="overflow:visible;"/>
				</clipPath>
				<path class="st21" d="M-92.9,487.8l-11-22.5c-2.3-4.8-1.1-12.4,2.4-14.1c5.8-2.7,14.6-4.8,24.8,0.4c3.4,1.7,4.6,9.4,2.2,14.1
					l-11.2,22.1C-87.7,491.6-91,491.6-92.9,487.8z"/>
				<path class="st21" d="M-85.6,521.3l11,22.5c2.3,4.8,1.1,12.4-2.4,14.1c-5.8,2.7-14.6,4.8-24.8-0.4c-3.4-1.7-4.6-9.4-2.2-14.1
					l11.2-22.1C-90.8,517.5-87.5,517.5-85.6,521.3z"/>
				<path class="st21" d="M-72.4,501.3l22.5-11c4.8-2.3,12.4-1.1,14.1,2.4c2.7,5.8,4.8,14.6-0.4,24.8c-1.7,3.4-9.4,4.6-14.1,2.2
					l-22.1-11.2C-76.2,506.5-76.2,503.2-72.4,501.3z"/>
				<path class="st21" d="M-105.9,508.6l-22.5,11c-4.8,2.3-12.4,1.1-14.1-2.4c-2.7-5.8-4.8-14.6,0.4-24.8c1.7-3.4,9.4-4.6,14.1-2.2
					l22.1,11.2C-102.1,503.4-102.1,506.7-105.9,508.6z"/>
				<circle class="st21" cx="-121.4" cy="470.4" r="12.7"/>
				<circle class="st21" cx="-54.1" cy="470.4" r="12.7"/>
				<circle class="st21" cx="-123" cy="538" r="12.7"/>
				<circle class="st21" cx="-55.7" cy="538" r="12.7"/>
			</g>
		</g>
		<g>
			<circle class="st16" cx="463.1" cy="505" r="86.5"/>
			<circle class="st17" cx="463.1" cy="505" r="64"/>
			<g>
				<defs>
					
						<ellipse id="SVGID_11_" transform="matrix(0.7071 -0.7071 0.7071 0.7071 -222.1764 475.641)" cx="463.1" cy="506" rx="52.7" ry="52.7"/>
				</defs>
				<use xlink:href="#SVGID_11_"  style="overflow:visible;fill:#CCCCCC;"/>
				<clipPath id="SVGID_12_">
					<use xlink:href="#SVGID_11_"  style="overflow:visible;"/>
				</clipPath>
				<path class="st22" d="M448.4,496.3l-23.7-8.1c-5-1.7-9.5-8.1-8.3-11.7c2.1-6,7-13.7,17.9-17.3c3.6-1.2,9.9,3.4,11.5,8.5
					l7.7,23.5C454.8,495.3,452.4,497.7,448.4,496.3z"/>
				<path class="st22" d="M477.2,514.9l23.7,8.1c5,1.7,9.5,8.1,8.3,11.7c-2.1,6-7,13.7-17.9,17.3c-3.6,1.2-9.9-3.4-11.5-8.5
					l-7.7-23.5C470.8,515.8,473.2,513.5,477.2,514.9z"/>
				<path class="st22" d="M472.4,491.3l8.1-23.7c1.7-5,8.1-9.5,11.7-8.3c6,2.1,13.7,7,17.3,17.9c1.2,3.6-3.4,9.9-8.5,11.5l-23.5,7.7
					C473.4,497.8,471,495.4,472.4,491.3z"/>
				<path class="st22" d="M453.9,520.2l-8.1,23.7c-1.7,5-8.1,9.5-11.7,8.3c-6-2.1-13.7-7-17.3-17.9c-1.2-3.6,3.4-9.9,8.5-11.5
					l23.5-7.7C452.9,513.8,455.3,516.2,453.9,520.2z"/>
				
					<ellipse transform="matrix(0.7071 -0.7071 0.7071 0.7071 -234.7155 441.7887)" class="st22" cx="415.9" cy="504.2" rx="12.7" ry="12.7"/>
				
					<ellipse transform="matrix(0.7071 -0.7071 0.7071 0.7071 -187.1382 461.4958)" class="st22" cx="463.5" cy="456.6" rx="12.7" ry="12.7"/>
				
					<ellipse transform="matrix(0.7071 -0.7071 0.7071 0.7071 -255.6045 489.0792)" class="st22" cx="462.6" cy="553.1" rx="12.7" ry="12.7"/>
				
					<ellipse transform="matrix(0.7071 -0.7071 0.7071 0.7071 -208.0272 508.7864)" class="st22" cx="510.1" cy="505.5" rx="12.7" ry="12.7"/>
			</g>
		</g>
		<path class="st14" d="M-37.8,328.8l-104.4,21.1c0,0-2.8,41.2-83.2,59.3c0,0-25.2,30.3,0,67.6"/>
		<line class="st14" x1="581.9" y1="404.5" x2="542.7" y2="406.9"/>
		<line class="st14" x1="557.6" y1="310.5" x2="518.4" y2="312.9"/>
		<path class="st14" d="M500,245.7c0,0-44.3-23.5-151.6-24.6"/>
	</g>
	<g class="st20">
		<path class="st23" d="M276.9,358.1c0,0,24.6,22.4,8.5,53c-16.1,30.6-80.9,78.9-95.7,91.1c-14.9,12.2-31.5,12.8-41.5,2.6
			c-9.9-10.2-8.8-24.5-2.2-34.4c6.6-9.9,49.6-62.1,61.3-80C219.1,372.4,245.1,337.6,276.9,358.1L276.9,358.1z"/>
		<path class="st24" d="M242.5,341.7c0,0-1.5,19.1-2.6,30.5c-1.1,11.4-7.6,38.6,20.1,59.8c24.9,19.1,53.6,8.5,59.8,1.8
			c9.6-10.2,12.8-26.3,11.8-43.3c-1-17-6.2-34.5-0.4-61.6C337.1,301.8,245.6,291.1,242.5,341.7L242.5,341.7z"/>
		<path class="st25" d="M332.1,418.8c0,0,2.3-8.5,2.4-16.8c0.2-8.3-3.1-29.7-3.7-33c-0.6-3.2-1.1-10-1.3-10.6
			c-0.1-0.6-33,2.6-55.7-0.2c-22.6-2.9-15.4,5-17.4,5c-0.6-0.1-16,7.5-23.7,24.7c-0.8,6.6,5.6,34.6,29.1,47.2
			C285.4,448,317.7,450.8,332.1,418.8L332.1,418.8z"/>
		<path class="st24" d="M145.1,477.7c0,0-26.8,131.7-27.7,139.6c-0.9,7.9,13.4,19.1,20.2,5.4c6.9-13.7,16.4-37.9,23.2-52.7
			c6.7-14.9,20.7-61.4,21.6-80.2C183.3,471,153.5,455.5,145.1,477.7L145.1,477.7z"/>
		<path class="st23" d="M175.4,472.4c0,0,14,13.5,4.1,43.9c-10.6,32.5-31.2,92.8-31.2,92.8s-24.8,2.2-38.5-9.4
			c0,0,26.9-109.5,31.9-121C146.9,466.5,164.5,459.4,175.4,472.4L175.4,472.4z"/>
		<path class="st25" d="M182.4,514.8c9.8-30.3,8.5-37.6,8.5-37.6c-2.4-2.9-6.6-9.1-9.4-10.2c-8-3.9-14.7,2.3-15.8,5.5
			c-5.7,16.5-35.6,132.8-35.6,132.8c0.5,0.4,1,0.8,1.6,1.2c10.3,2,19.6,1.2,19.6,1.2S171.9,547.3,182.4,514.8L182.4,514.8z"/>
		<path class="st25" d="M222.5,466.8c20-30.5,95.6-99.9,95.6-99.9s-66.7-12.2-70.1-5.2c-1.3,2.8-7.7,12.8-9.6,15.2
			c-22.1,27.7-64.7,81.6-72,93.3c-1.9,3.1-2.7,13,5.7,17.4c2.8,1.8,9.2,17.7,13.2,17.9C185.3,505.4,203.8,495.3,222.5,466.8
			L222.5,466.8z"/>
		<path class="st26" d="M267.2,375.1"/>
		<path class="st27" d="M259.2,358.6c0,0-19.1,19-30.5,32.4"/>
		<path class="st25" d="M262.2,357.9c0,0-19,3.9-20.9-2.8l-10.8,37.1l37.4-33.6L262.2,357.9z"/>
		<path class="st24" d="M260.4,220.7c0,0-13.5-15.7-32,2.4c-18.5,18.2-32.9,54.9-40.3,67.2c-7.5,12.2,6.2,23.3,18.4,15.6
			c12.2-7.6,37-45.2,45.4-55.1C260.3,241,266.9,229.2,260.4,220.7L260.4,220.7z"/>
		<path class="st28" d="M257.6,214.4c0,0,8.5,7.3,5.9,19.2c-2.6,11.9-39.4,58.5-48.5,66.7c-9,8.3-17.4,12.6-25.4,7.4
			c-7.9-5.2-4.9-14.2-2.1-19.9c2.8-5.7,23.2-45.1,28.9-53.6C222.2,225.7,242.1,203.5,257.6,214.4L257.6,214.4z"/>
		<path class="st29" d="M189.7,307.8c-7.9-5.2-4.9-14.2-2.1-19.9c2.8-5.7,23.2-45.1,28.9-53.6c1.1-1.6,2.7-3.8,4.7-6.1l8.3,15.8
			l5.3-18.8l14.4,32.9c-12.2,17.2-28.5,37.1-34.1,42.2C206,308.6,197.6,312.9,189.7,307.8L189.7,307.8z"/>
		<path class="st28" d="M209.5,279.7l2.5-0.4l6.7,17.4c-1.4,1.6-2.7,2.8-3.6,3.7c-6.2,5.7-12.2,9.5-17.9,9.6c-2.9-2.3-4-5.6-4-5.6
			l13.6-3.5C206.8,301,210.4,290.2,209.5,279.7L209.5,279.7z"/>
		<path class="st30" d="M198.2,308c0,0,8.6-2.2,7.8-13.3c-0.7-11-11.9-66.4-13.7-68.6c-1.7-2.2-12.8-6.7-13-0.4
			c-0.3,9-2.7,63.2,2.4,73.5C185.1,306,191.4,310.5,198.2,308L198.2,308z"/>
		<path class="st30" d="M181.6,235.1c0,0-3.2-10.3-3.6-12c-0.5-1.7-2.5-7.7-2.1-10c0.3-2.1,1.3-3.9,1.3-3.9s-1.7-2.9-0.8-4.4
			c0,0-1.3-3.6,0.2-5c0,0,0.4-3.9,1.3-5.2c0.9-1.3,9.7-1.6,9.7-1.6s3.1,14.2,3.8,19.5c0.7,5.3,2.6,12,1.1,14.8
			C190.8,230.2,181.5,235.1,181.6,235.1L181.6,235.1z"/>
		<path class="st31" d="M191.3,212.5c0.7,5.3,2.6,12,1.1,14.8c-0.3,0.6-0.9,1.2-1.6,1.8c-2.7-2.4-4.7-5.8-4.9-8.4
			c-0.2-3.2,1-3.6-0.4-6.1c-1.4-2.4-0.5-7.1-0.5-7.1c-1.8-2.7,0.6-6.2-0.2-8.8c-0.6-2,0.5-4.7,0.9-5.7c1.1-0.1,1.8-0.1,1.8-0.1
			S190.6,207.2,191.3,212.5z"/>
		<path class="st28" d="M199.3,253.7c0,0,7.9,26.2,8.7,39.9c0.8,13.7-3.9,16.8-13.4,17.2c-9.5,0.4-14.2-12.3-14.9-17.4
			c-0.8-5.1-2-30.6-1.1-37.6C178.6,255.7,190.9,256.2,199.3,253.7z"/>
		<path class="st29" d="M201,259.8c-1-3.7-1.8-6.1-1.8-6.1c-8.4,2.5-20.7,2-20.7,2c-0.2,1.7-0.3,4.4-0.3,7.7
			c1.5,0.3,3.6,0.5,6.3,0.3C189.2,263.3,197.2,261.8,201,259.8z"/>
		<path class="st28" d="M197.4,248.7c0,0,1.8-0.7,2.7-0.1c0.9,0.5,1.2,3.3,1.9,4c0.6,0.7,0.9,3-0.8,4.6c-1.7,1.6-17.5,5.4-21.9,4.5
			c-4.5-0.9-2.8-3.9-3.1-5.1c-0.2-1.2,1.1-4.9,3.4-4.1C181.9,253.3,187.5,252.8,197.4,248.7z"/>
		<path class="st24" d="M263.7,207.9c-10.4,2.1-18.4,3.2-23.1,10.3c-9.7,14.5-2.4,43.1-0.8,65.5c1,13.3,3.5,33.2,4.8,40.2
			c1.3,7,33,17.3,52.2,14c14.7-2.6,29.8,0,31.3-13.5c1.8-16,2.8-33.5,4.1-48c1.7-19-1.6-47.2-14.8-61.7c-4.1-4.5-10.8-8.2-16.4-9.5
			C282.9,201.3,278.6,204.9,263.7,207.9L263.7,207.9z"/>
		<path class="st30" d="M257.6,190.6c0,0,2.7,13.9,0.6,20.8c-2.1,6.9,9.2,9.2,16,8.1c6.9-1.2,19.2-4.1,17.6-12.4
			c-1.7-8.7-4.6-7.7-8.1-30.1C281,159.3,252.9,173.5,257.6,190.6z"/>
		<path class="st31" d="M258.8,208.6c0.8-7.3-1.2-18-1.2-18c-3.7-13.6,13.7-25.4,22-20.8c0.6,1.9,1.1,4.1,1.4,6.6
			C281.3,177.8,272.5,204.2,258.8,208.6L258.8,208.6z"/>
		<path class="st32" d="M227.2,142.9c0,0-1.3,10.7,2.9,22.8l4.8-23.9L227.2,142.9L227.2,142.9z"/>
		<path class="st30" d="M253.6,120.2c0,0-22.1,3.3-23.9,23.3c-1.8,20,3.5,55.5,16.8,58.3c12.1,2.5,29.1-11.2,35.7-24.1
			c6.9-13.6,8.3-30.2,2.5-42.2C279.5,125,270.9,117.7,253.6,120.2L253.6,120.2z"/>
		<path class="st33" d="M251.4,165.1c0,2.6,1.6-0.9,3.5-0.9s3.5,3.5,3.5,0.9c0-2.6-1.6-4.7-3.5-4.7
			C253,160.4,251.4,162.5,251.4,165.1z"/>
		<path class="st33" d="M233.4,165.9c0,2.3,1.4-0.7,3.1-0.7c1.7,0,3.1,2.9,3.1,0.6c0-2.3-1.4-4.2-3.2-4.2S233.4,163.7,233.4,165.9z"
			/>
		<path class="st28" d="M256,185c0.6,0,0.9,0.8,0.4,1.2c-1.2,2.6-4.8,8.5-7.6,8.8c-3.6,0.3-7.8-6.4-9.1-8.5
			c-0.4-0.4-0.2-1.1,0.4-1.1l13.1-0.4L256,185z"/>
		<path class="st34" d="M245.5,178.4c0.5-0.1,0.9-0.1,1-0.1c0.4-0.1,0.7-0.5,0.6-0.9c-0.1-0.4-0.5-0.7-0.9-0.6c-1,0.2-2.9,0.3-3.7,0
			c0,0-0.1,0-0.1,0c0-0.2,0.2-0.9,0.3-1.4l0.1-0.2c2.7-9.4,1.5-12.1,1.5-12.2c-0.1-0.4-0.5-0.6-0.9-0.6c-0.4,0.1-0.6,0.5-0.6,0.9
			c0,0.1,1.1,2.6-1.5,11.5l-0.1,0.2c-0.4,1.5-0.8,2.7,0.7,3.3C243,178.5,244.4,178.5,245.5,178.4L245.5,178.4z"/>
		<path class="st32" d="M252.9,149.6c0,0-1-0.5-1.3,0.2c-0.3,0.7-0.7,2.3-0.3,2.6c0.4,0.4,5.8,2.2,7.9,3.1c2.1,0.8,5.2,2.6,5.4,2.5
			c0.3-0.2-0.5-2-2.7-3.5C260.1,153.2,255.7,150.5,252.9,149.6L252.9,149.6z"/>
		<path class="st32" d="M230.5,155.7c0,0-1,0.9-1.5,0.2c-0.6-0.8,2.1-3.8,7.5-6.5c1.6-0.7,2.5,1.2,2.6,2.3
			C239.3,152.6,236.1,152.4,230.5,155.7z"/>
		<path class="st31" d="M250.2,173.6c0,0,0.9-2.5,6.9-2.9c4.9-0.3,8.6,0.2,8.8,3.2C266.5,177.8,248.1,179.9,250.2,173.6z"/>
		<path class="st31" d="M239.9,176c-0.2,1.9-4.2,2.8-7.4,3.3c-0.5-2.3-1-4.6-1.4-7C235.1,172.2,240,172.7,239.9,176z"/>
		<path class="st32" d="M269.9,138.1c0,0-1.2,5.4-0.9,8.8c0.3,3.3,0.3,8.2,4.2,12.7c3.9,4.5,3.1,4.9,4.6,10.1
			c1.5,5.2,7.8,17.5,8,18.6c0.2,1,1.8-0.4,3.5-7.8c1.7-7.4,4.1-24,3.4-36.9c-0.7-12.9-13.7-24.9-26-25.1c0,0-12-4.2-22.8,1.4
			c-10.7,5.6-18.3,13.4-16.8,24.9l2.4-0.1c0,0,0.3-3.8,0.9-4.2c2.5-1.8,5.6-2.5,8.2-1.1c0,0,10.3,4.7,15.3,3.7
			C254,142.9,264.3,142.8,269.9,138.1L269.9,138.1z"/>
		<path class="st30" d="M272.8,165.9c0,0-0.9-10.4,5.3-11c6.2-0.6,6.9,8.1,3.4,14.1C279.6,172.3,273.8,176.8,272.8,165.9z"/>
		<path class="st34" d="M280.6,162c-1.2-0.1-2.3,0.4-3,1c0.3-1.2,1-2.2,2.2-2.8c0.3-0.1,0.5-0.5,0.3-0.8c-0.1-0.3-0.5-0.5-0.8-0.3
			c-4.4,2-3.2,8.5-3.1,8.7c0.1,0.3,0.4,0.6,0.7,0.5c0.3-0.1,0.6-0.4,0.5-0.7c0,0-0.2-1.1-0.1-2.5c0,0,0,0,0,0s1.4-1.9,3.2-1.8
			c0.3,0,0.6-0.2,0.7-0.6C281.2,162.3,280.9,162,280.6,162L280.6,162z"/>
		<path class="st28" d="M290.6,202.5c0,0-21,16.7-27.1,14.9c-4.6-1.4-4.9-5.7-4.8-7.7c0-0.6,0-1.1,0-1.1s-9.6,0.7-14.4,2.5
			c-4.9,1.7-7.9,3.8-7.9,3.8s-3.9,17.4-4.6,32.6c-0.7,15.3,1.1,53.4,1,65.5c-0.1,12.1-3.4,21.4-5.1,23.6
			c-1.7,2.3-18.2,18.6-18.2,18.6s12.5-11.5,28.6-3.5s42,11,57.9,12.3c15.9,1.3,38.5-2.3,38.5-2.3s-1.6-32.1-0.7-45.9
			c0.9-13.8,1.9-54.5-0.5-69.5c-2.4-14.9-8-29-13.5-33.8C309.7,204,290.6,202.5,290.6,202.5z"/>
		<path class="st29" d="M258.8,209.7c-0.1,2,0.2,6.3,4.8,7.7c6,1.8,27.1-14.9,27.1-14.9s1.2,0.1,3.2,0.4c-2.2,1.6-6.7,5.1-9.9,7.9
			c-4.3,3.7-16.4,11.4-22.1,8.8c-5.4-2.5-5.4-6.5-4.5-10.8c0.9-0.1,1.5-0.1,1.5-0.1S258.8,209.1,258.8,209.7L258.8,209.7z"/>
		<path class="st29" d="M209.5,355.2c0,0,16.5-16.3,18.2-18.6c1.7-2.3,5-11.5,5.1-23.6c0.1-11.6-1.5-47-1.1-63.4l2.7,2.7
			c0,0,7.8,0.7,7.7,3.3c-0.1,2.6,3.7,5.7,3.1,7.4c-0.6,1.7-1.5,4.5-1.5,4.5l3.7,4.3c0,0,26-33.9,37.9-41.2
			c11.9-7.3,35.3,18.1,35.3,18.1s-15,35.7-25,48.8c-10,13-17.3,21.6-15.3,27.1c1.9,5.5,12.9,6.9,13.3,15.3c0.4,8.4-3.1,13-6.2,15.2
			c-2.2,1.6,10,6.6,21.8,9c-4.4,0.3-8.9,0.3-13.1,0c-15.9-1.3-52.1,11.2-68.2,3.3C211.7,359.4,209.5,355.2,209.5,355.2L209.5,355.2z
			"/>
		<path class="st35" d="M185.8,220.8l21.9,3.2c1.6,0.2,2.9-1.1,2.7-2.7l-6.2-45.7c-0.1-1.1-1-1.9-2-2.1l-22.6-3.3
			c-0.8-0.1-1.4,0.5-1.3,1.3l6.6,48.3C184.9,220.3,185.3,220.7,185.8,220.8L185.8,220.8z"/>
		<path class="st10" d="M184.8,219.8l-6.6-48.3c-0.1-0.8,0.5-1.4,1.3-1.3l20.1,2.9c1.1,0.2,1.9,1,2,2.1l6.2,45.7
			c0.2,1.6-1.2,2.9-2.7,2.7l-19.3-2.8C185.3,220.7,184.9,220.3,184.8,219.8L184.8,219.8z"/>
		<path class="st24" d="M312.5,228.6c0,0-12-14.2-29.1,5.4c-17,19.5-39.2,60.4-45.7,73.1c-6.5,12.8,8,22.7,19.6,14.2
			c11.6-8.6,44.1-51,51.7-61.5C316.7,249.2,319.7,236.5,312.5,228.6z"/>
		<path class="st28" d="M313.3,222.1c0,0,13.4,7.1,7.3,26.7c-6.1,19.6-59.5,74.6-68.6,78.8c-9.1,4.2-23.8-3.7-21.6-16
			c2.3-12.2,26-42.5,39.3-65C284.4,222,299.1,213.5,313.3,222.1z"/>
		<path class="st28" d="M240.7,291.2c3.2-5.1,6.9-10.7,10.8-16.4c3.1,3.1,10.3,13.2,5.9,36.8L240.7,291.2L240.7,291.2z"/>
		<path class="st30" d="M251.9,324.4c0,0-9.9,3.9-18-4.4c-10.9-11.2-28.9-77.9-30-87.1c-1.2-9.1,9.1-10.9,12.7-6.1
			c3.6,4.8,34.7,62,37.6,72C257,309,258.2,321,251.9,324.4z"/>
		<path class="st30" d="M218.3,229.6c0,0-1.8-7.4-1.8-14.9c0-7.5-0.1-11.5-1.6-13.8c-1.4-2.4-8.3-7.3-8.3-7.3l0.7,4.9
			c0,0,1.3,1.8-0.6,2.6s-15.4-7.2-17.7-8.6c-2.3-1.4-3,6-1.9,8c0,0-2.1,4.7-0.4,7.5c0,0-1.7,4.4,0.7,7.3c0,0-0.6,3.9,0.9,5.9
			c1.5,2,11.3,6.3,13.4,9.1c2.1,2.8,1.4,4.9,3.7,9.1C207.8,243.5,221.8,242.7,218.3,229.6L218.3,229.6z"/>
		<path class="st36" d="M187.2,200.4c2.7,1.4,5.8,3.2,8.6,4.6c1,0.5,2.2,0.8,3.2,1.3c0.1,0,0.1,0.1,0,0.1c-2.8,0.4-4.3-0.2-6.5-1.9
			c-1.8-1.2-3.7-2.7-5.4-4C187,200.4,187.1,200.3,187.2,200.4L187.2,200.4z"/>
		<path class="st36" d="M186.8,207.8c2.4,0.6,4.7,1.7,7,2.4c1.4,0.4,2.7,0.8,4.1,1.4c0.1,0,0.1,0.1,0,0.1c-3,0.7-4.8-0.2-7.2-1.7
			c-1.3-0.7-2.7-1.4-3.9-2.1C186.7,207.9,186.7,207.8,186.8,207.8L186.8,207.8z"/>
		<path class="st36" d="M187.5,215.1c2.9,0.7,5.8,1.6,8.7,2.2c0.4,0.1,0.9,0.1,1.3,0.1c0,0,0.1,0,0.1,0.1c-1.7,1.6-3.5,0.8-5.3-0.1
			c-1.6-0.7-3.3-1.5-4.8-2.2C187.4,215.2,187.4,215.1,187.5,215.1z"/>
		<path class="st31" d="M197.7,221.6c0.1-1.9,0.3-2.5,1.3-3.9c1.8-1.8-0.4-3.5,0.7-5.7c2.6-2-0.4-3.7,1.4-5.4c3-0.5,3.5-4.2,3.5-5.9
			c0.9,0.3,1.6,0.5,2,0.3c2.7,1.7,7.3,4.8,8.6,7.2c0.4,0.7,0.8,1.6,1.3,2.6c0,1.2,0,2.4,0,3.8c0,3.1,0.3,6.2,0.7,8.8
			c-2.6,8.7-14.9,7.5-15.4,6.7c-0.9-1.2-3.2-2.7-5.7-4.2C198,224.4,197.6,223.5,197.7,221.6L197.7,221.6z"/>
		<path class="st28" d="M236.7,261c0,0,13.7,22,16.5,31.2c2.9,9.2,10.9,28.5-1.2,35.5c-12.1,6.9-20.1-4.8-23-10.2
			c-2.9-5.4-14.1-39.2-15.3-44.6C213.8,272.8,229.9,269.4,236.7,261L236.7,261z"/>
		<path class="st29" d="M240.7,267.6c-2.3-3.9-4-6.6-4-6.6c-6.8,8.4-22.9,11.9-22.9,11.9c0.2,1.1,0.9,3.3,1.8,6.2
			C220.8,278.1,233,275.3,240.7,267.6L240.7,267.6z"/>
		<path class="st28" d="M233.8,257.5c0,0,1.8-1.2,3-0.8c1.1,0.4,2.2,3.4,3.1,4c0.9,0.6,1.8,3.1,0.3,5.3
			c-1.5,2.2-20.2,11.2-25.4,10.6c-5.2-0.7-2.9-3.2-3.5-4.5c-0.6-1.3-1.5-5.4,1.4-5.1C215.4,267.3,223.9,264.6,233.8,257.5z"/>
		<g>
			<path class="st37" d="M76.4,650.3c0,0,1.4,4.5,1.8,5.8c0.4,1.2,7.4,4.3,21.6,0.6c14.1-3.6,29.2-8.6,37.3-10.7
				c8.1-2.1,15.9-3.6,17-4.6c1.5-1.3-0.8-7-0.8-7L76.4,650.3L76.4,650.3z"/>
			<path class="st38" d="M144.1,611c-0.1-0.1-0.2-0.2-0.3-0.1c-0.5,0.1-1.7,0.4-3.1,1.9c-1.8,1.9-6.4,6.5-14.8,8.9
				c0,0-7.1-5-12.2-3.7c-1.3,0.7-5.6,5.4-16.7,11.6c-11.1,6.2-22.1,14.5-20.9,19.8c1.2,5.2,7.7,6.2,19.7,3.6
				c12-2.5,24.9-6.9,40.8-11.7c15.9-4.8,16.7-5.1,16.8-6.9c0.1-1.8-1.1-8.6-3.7-13.8C147.1,615.6,145.5,613.2,144.1,611L144.1,611z"
				/>
			<path class="st39" d="M113.8,618c-1.3,0.7-5.6,5.4-16.7,11.6c-2.8,1.6-5.7,3.3-8.3,5.1c7.2,3.9,9.8,1.1,17.3-2.8
				c7.8-4,19.9-10.3,19.9-10.3S118.9,616.7,113.8,618z"/>
		</g>
		<g>
			<path class="st40" d="M193.1,641.7c0,0,6.2,9.4-0.8,17.9c-8.2,10.1-28.5,28.4-29.4,35c-0.8,6.6,10.1,6.4,19.1,3.3
				c9-3.1,24.8-17.9,37.5-24.6c12.7-6.7,14.1-11.4,13.3-15.3c-1.9-9.6-12.9-13.9-17.2-23.9C208.6,617.8,184.5,624.4,193.1,641.7z"/>
			<path class="st37" d="M163.1,697.3c0,0,2.8,4,3.6,5.1c0.8,1.1,8.6,2,21.5-5.9c12.9-7.9,26.2-17.3,33.6-21.8
				c7.4-4.6,14.6-8.3,15.4-9.7c1-1.8-2.9-6.7-2.9-6.7L163.1,697.3L163.1,697.3z"/>
			<path class="st17" d="M218.7,637.5c-0.1-0.1-0.2-0.1-0.3,0c-0.4,0.2-2.2,1.1-3.1,3c-1.2,2.4-4.1,8.6-11.7,13.6
				c0,0-8.5-2.8-13.2,0c-1.1,1.1-3.9,7-13,16.5c-9.1,9.5-17.5,21-14.7,25.9c2.7,4.8,9.4,3.8,20.5-2.3c11.1-6.1,22.5-14.3,36.8-23.9
				c14.3-9.5,14.9-10.1,14.5-11.9c-0.4-1.9-3.7-8.2-7.8-12.5C222.6,641.7,220.7,639.2,218.7,637.5L218.7,637.5z"/>
			<path class="st37" d="M190.3,654.1c-1.1,1.1-3.9,7-13,16.5c-2.3,2.4-4.6,5-6.6,7.5c8.3,1.7,10-1.9,16.2-8
				c6.5-6.3,16.6-16.2,16.6-16.2S195,651.3,190.3,654.1z"/>
			<path class="st23" d="M241.2,519c0,0-2.6,70.9-16.8,123.6c0,0-25.6,9.6-44.1-1.2c0,0,12.1-119.4,15.3-136.6
				c3.2-17.2,21.8-16,27.7-13.1S241.9,503,241.2,519L241.2,519z"/>
			<path class="st23" d="M313.9,378.9c0,0,18.2,16.5,9.6,41.3c-8.6,24.8-27.7,48.8-53.4,82c-21.6,27.8-31.7,43.6-54.3,35.8
				c-22.5-7.8-23.1-26.7-20.2-34.2c2.9-7.5,36.2-72.6,44.8-89.6c8.6-17,23.6-36.5,40.4-42.1C299.9,365.7,313.9,378.9,313.9,378.9z"
				/>
		</g>
	</g>
</g>
<path class="st0" d="M207.6,86.9c0-1.1,5.9-1.3,7.8-2.9c8.9-7.8,18.9-11.5,30.9-11.4c5.7,0.1,11.1-3.4,15.5-7.2
	c21.1-18.1,31.6-9.1,44.9,3.6c8.6,8.2,16.7,8.9,26.6,5c12.9-5,17.3-4.2,26.7,6c4.3,4.6,9.9,5.8,15.5,6.7c3.9,0.7,7.7,1.5,11.3,3
	c0,0.8-0.1,1.6-0.1,2.4c-61.1,0-122.2,0-183.4,0C202.3,89.9,206.8,88.7,207.6,86.9z"/>
<g>
	<path class="st28" d="M96.7,17.2h91.5c10.3,0,18.7,8.4,18.7,18.7v97.3c0,7.3-7.4,12.1-14.1,9.3l-36.2-15.6H96.7
		c-10.3,0-18.7-8.4-18.7-18.7V35.9C78,25.5,86.3,17.2,96.7,17.2z"/>
	<g>
		<path class="st41" d="M116.7,59.6c0-7.3,0-14.5,0-21.8c0-0.6,0.1-0.7,0.7-0.7c17.5,0,35,0,52.5,0c0.6,0,0.7,0.1,0.7,0.7
			c0,23.3,0,46.6,0,69.9c0,0.6-0.1,0.7-0.7,0.7c-17.5,0-35,0-52.5,0c-0.7,0-0.7-0.3-0.7-0.8c0-15.1,0-30.3,0-45.4
			c0.4,0,0.4,0.3,0.4,0.6c0.4,4.1,1.8,7.8,3.1,11.6c2.4,7,6.1,13.3,10.1,19.4c2.6,4,5.2,8,8.2,11.7c0.2,0.3,0.6,0.6,0.4,1
			c-0.2,0.3-0.6,0.3-0.9,0.3c-3.7,0-7.3,0-11,0c-0.4,0-0.8-0.1-1,0.2c0.3,0.3,0.6,0.2,1,0.2c10.3,0,20.6,0,30.9,0
			c0.3,0,0.7,0.1,1-0.2c-0.3-0.3-0.7-0.2-1-0.2c-3,0-6,0-9.1,0c-0.3,0-0.6,0-0.8,0c-0.6-0.1-0.8-0.3-0.5-0.9
			c0.1-0.2,0.3-0.5,0.4-0.7c4-5.7,7.6-11.6,10.8-17.8c3.5-6.7,6.4-13.7,8.1-21.1c0.9-3.8,1-7.6,0.3-11.5c-0.8-4.6-3.3-8.2-7.1-10.9
			c-3.2-2.3-6.7-4.1-10.6-4.8c-1.5-0.3-3.1-0.4-4.6-0.3c-0.5,0-0.9,0-1.3,0.1c-0.2,0-0.3,0-0.5,0c-1.7-0.1-3.3-0.1-5,0
			c-2.9,0.2-5.7,0.7-8.5,1.7c-5.5,2-9.3,5.7-11,11.4c-0.7,2.2-1,4.5-1.3,6.8C117.1,59.1,117.2,59.5,116.7,59.6z"/>
		<path class="st42" d="M125.8,106.7c4,0,8,0,11.9-0.1c0.4,0,0.7,0,1.1,0c0-0.5-0.3-0.7-0.5-0.9c-5.6-7.2-10.5-14.8-14.8-22.9
			c-2.7-5.2-4.7-10.8-6.2-16.5c-0.3-1.2-0.5-2.4-0.5-3.6c0-0.2,0.1-0.4-0.2-0.6c0-0.2,0-0.5,0-0.7c0.2-0.6,0.2-1.1,0-1.7
			c0-0.1,0-0.1,0-0.2c0.4-1.1,0.4-2.3,0.5-3.4c0.6-3.4,1.4-6.6,3.4-9.5c2.7-3.8,6.5-5.9,10.8-7.1c2-0.6,4.1-1,6.2-1
			c1.4-0.1,2.7-0.1,4.1,0c0.2,0.4-0.1,0.4-0.3,0.5c-0.6,0.2-1.2,0.3-1.7,0.4c-3.5,0.7-6.7,2-9.5,4.2c-2.7,2.1-4.3,4.9-5.3,8.2
			c-1.1,3.6-1.6,7.4-1.3,11.2c0.1,2,0.6,3.9,1.2,5.8c1.5,4.7,3.2,9.3,5.4,13.7c1.7,3.5,3.8,6.8,5.8,10.1c2.6,4.3,5.4,8.4,8.6,12.3
			c0.6,0.7,1,1.4,2.1,1.4c0.3,0,0.8,0.2,0.2,0.6c-0.4,0.1-0.9,0.1-1.3,0.1c-6.1,0-12.1,0-18.2,0C126.8,107,126.2,107.2,125.8,106.7z
			"/>
		<path class="st43" d="M116.7,59.8c0.3,0.6,0.3,1.1,0,1.7C116.7,60.9,116.7,60.4,116.7,59.8z"/>
		<path class="st44" d="M147.1,106.7c-1.3,0.1-2.1-0.7-2.8-1.6c-3.6-4.5-6.6-9.3-9.7-14.1c-3.4-5.5-6.3-11.3-8.5-17.5
			c-0.7-2.1-1.6-4.3-2.1-6.5c-0.9-3.7-0.8-7.5-0.2-11.3c0.5-2.9,1.3-5.7,2.9-8.3c2.2-3.5,5.3-5.6,9.1-7c2-0.7,4-1.2,6-1.5
			c0.4-0.3,0.8-0.2,1.2-0.2c0.1,0,0.2,0,0.3,0c0.4-0.2,0.9,0,1.3-0.1c6.1-0.3,11.2,2,16,5.6c5.6,4.2,7.4,10,7.1,16.7
			c-0.2,5.1-1.8,9.9-3.6,14.7c-4,10.8-9.8,20.6-16.3,30c-0.1,0.2-0.2,0.4-0.4,0.5c-0.3,0.4-0.2,0.5,0.3,0.5c0.9,0,1.9,0,2.8,0
			c2.8,0,5.6,0,8.4,0.1c-0.3,0.4-0.7,0.4-1.1,0.4c-3.2,0-6.5,0-9.7,0C147.8,107,147.4,107.1,147.1,106.7z"/>
		<path class="st45" d="M147.1,106.7c4,0.1,7.9,0.1,11.9,0c0.3,0,0.5,0.2,0.5,0.5c0,0.3-0.3,0.4-0.6,0.4c-0.2,0-0.4,0-0.6,0
			c-10.7,0-21.3,0-32,0c-0.2,0-0.4,0-0.6,0c-0.3,0-0.5,0-0.6-0.3c-0.1-0.4,0.2-0.5,0.6-0.5c4.4,0,8.8,0,13.2,0
			C141.7,106.7,144.4,106.7,147.1,106.7z"/>
		<path class="st46" d="M143.1,38.7c-0.4,0.2-0.8,0.2-1.2,0.2c-0.8-0.4-1.7-0.1-2.6-0.2c-0.5,0-1,0-1.6,0
			C139.5,38.5,141.3,38.3,143.1,38.7z"/>
		<path class="st47" d="M144.7,38.5c-0.4,0.3-0.9,0.1-1.3,0.1C143.8,38.3,144.2,38.5,144.7,38.5z"/>
		<path class="st41" d="M143.2,72.2c-0.4,0.1-0.8,0.1-1.3-0.1c-4.7-1.7-7.9-6.3-7.9-11.4c0.1-5,3.5-9.5,8.2-11
			c0.2-0.1,0.4-0.1,0.6-0.1c1.7,0.1,3.1,1.1,4.3,2.1c5.6,4.7,5.8,13.2,0.5,18.1c-1.1,1-2.3,1.7-3.6,2.3
			C143.8,72.2,143.5,72.3,143.2,72.2z"/>
		<path class="st42" d="M143.2,72.2c3.9-1.4,6.5-4.1,7.6-8.1c1.7-5.9-1.4-12-7.1-14.3c-0.3-0.1-0.6-0.2-0.9-0.3
			c4.2-1.2,7.8-0.2,11,2.6c3,2.6,4.3,6,3.9,9.9c-0.3,3.4-1.8,6.3-4.7,8.4c-2.9,2.1-6.1,2.8-9.6,2.2
			C143.3,72.5,143.1,72.5,143.2,72.2z"/>
	</g>
</g>
<path class="st48" d="M56.3,163.9c0-0.6,3.1-0.7,4.1-1.5c4.7-4.1,9.9-6.1,16.2-6c3,0,5.8-1.8,8.1-3.8c11.1-9.5,16.6-4.8,23.6,1.9
	c4.5,4.3,8.8,4.7,14,2.6c6.8-2.6,9.1-2.2,14,3.1c2.2,2.4,5.2,3,8.1,3.5c2.1,0.4,4,0.8,5.9,1.6c0,0.4,0,0.8-0.1,1.2
	c-32.1,0-64.2,0-96.3,0C53.5,165.4,55.9,164.8,56.3,163.9z"/>
</svg>
