<?xml version="1.0" encoding="utf-8"?>
<!-- Generator: Adobe Illustrator 21.0.0, SVG Export Plug-In . SVG Version: 6.00 Build 0)  -->
<svg version="1.1" id="Layer_1" xmlns="http://www.w3.org/2000/svg" xmlns:xlink="http://www.w3.org/1999/xlink" x="0px" y="0px"
	 viewBox="0 0 539.9 404.8" style="enable-background:new 0 0 539.9 404.8;" xml:space="preserve">
<style type="text/css">
	.st0{fill:#EBE0D8;}
	.st1{fill:#E9FAFF;}
	.st2{fill:#FFFFFF;}
	.st3{clip-path:url(#SVGID_2_);fill:#E9FAFF;}
	.st4{fill:#B8DEF5;}
	.st5{fill:#C3E6FA;}
	.st6{fill:#BCB3F2;}
	.st7{fill:#ACD7FA;}
	.st8{fill:#98C7FA;}
	.st9{fill:#7FB2FA;}
	.st10{fill:#90BAFA;}
	.st11{fill:#ACDEFA;}
	.st12{fill:none;}
	.st13{clip-path:url(#SVGID_4_);}
	.st14{opacity:0.7;clip-path:url(#SVGID_6_);fill:#E9FAFF;}
	.st15{clip-path:url(#SVGID_4_);fill:#D3D3D3;}
	.st16{clip-path:url(#SVGID_4_);fill:#1C253D;}
	.st17{fill:none;stroke:#FFFFFF;stroke-width:0.5;stroke-miterlimit:10;}
	.st18{fill:none;stroke:#FFFFFF;stroke-width:0.5;stroke-miterlimit:10;stroke-dasharray:12.112,12.112,12.112,12.112;}
	
		.st19{fill:none;stroke:#FFFFFF;stroke-width:0.5;stroke-miterlimit:10;stroke-dasharray:12.112,12.112,12.112,12.112,12.112,12.112;}
	.st20{clip-path:url(#SVGID_4_);fill:#A5A5A5;}
	.st21{fill:#1C253D;}
	.st22{fill:#E5E5E5;}
	.st23{fill:#EAF8FF;}
	.st24{opacity:0.7;fill:#FFFFFF;}
	.st25{fill:none;stroke:#1C253D;stroke-width:0.252;stroke-miterlimit:10;}
	.st26{fill:none;stroke:#002E35;stroke-width:7.561412e-02;stroke-miterlimit:10;}
	.st27{fill:#3C4647;}
	.st28{fill:#EAEAEA;}
	.st29{clip-path:url(#SVGID_8_);fill:#939393;}
	.st30{clip-path:url(#SVGID_10_);fill:#939393;}
	.st31{fill:#644EFA;}
	.st32{fill:none;stroke:#1C253D;stroke-width:0.6484;stroke-miterlimit:10;}
	.st33{fill:none;stroke:#002E35;stroke-width:0.1945;stroke-miterlimit:10;}
	.st34{fill:#5199DB;}
	.st35{clip-path:url(#SVGID_12_);fill:#939393;}
	.st36{clip-path:url(#SVGID_14_);fill:#939393;}
	.st37{fill:#FF625A;}
	.st38{fill:#FFD599;}
	.st39{fill:#F5BCAB;}
	.st40{fill:#EBAB98;}
	.st41{fill:#FFC989;}
	.st42{fill:#142347;}
	.st43{fill:#192B4F;}
	.st44{fill:#E09282;}
	.st45{fill:#F9C4B9;}
	.st46{fill:#51609E;}
	.st47{fill:#3D4B87;}
	.st48{fill:#E8AB9E;}
	.st49{fill:#719CC9;}
	.st50{fill:none;stroke:#1C253D;stroke-width:0.2139;stroke-miterlimit:10;}
	.st51{fill:none;stroke:#002E35;stroke-width:6.417792e-02;stroke-miterlimit:10;}
	.st52{clip-path:url(#SVGID_16_);fill:#939393;}
	.st53{clip-path:url(#SVGID_18_);fill:#939393;}
</style>
<path class="st0" d="M529.1,292.6h-0.2c-0.1-10.6-0.2-22.4-0.3-27.5v0c-1.4-52.3-6.1-101.5-155.9-101.5
	c-48.2-2.6-48.9-122.1-188.4-122.1s-164,75.1-164,131.7l2,131l0.2,0l0.4,21.1c0.6,34.5,28.9,62.1,63.4,61.9l380.6-2.7
	c34.6-0.2,62.5-28.4,62.5-62.9C529.3,312.4,529.2,302.6,529.1,292.6z"/>
<path class="st1" d="M29.6,119.2c0-0.3,1.7-0.4,2.2-0.8c2.6-2.2,5.4-3.3,8.8-3.2c1.6,0,3.2-1,4.4-2.1c6-5.2,9-2.6,12.8,1
	c2.5,2.4,4.8,2.5,7.6,1.4c3.7-1.4,4.9-1.2,7.6,1.7c1.2,1.3,2.8,1.7,4.4,1.9c1.1,0.2,2.2,0.4,3.2,0.9c0,0.2,0,0.5,0,0.7
	c-17.5,0-34.9,0-52.4,0C28.1,120.1,29.4,119.7,29.6,119.2z"/>
<rect x="294.4" y="158.1" class="st2" width="31" height="80.4"/>
<rect x="243.5" y="178.4" class="st2" width="41.7" height="80.4"/>
<rect x="213.8" y="97.5" class="st2" width="30.2" height="80.4"/>
<rect x="152.6" y="134.5" class="st2" width="60.8" height="30.2"/>
<rect x="54" y="27.9" class="st2" width="62.1" height="185.1"/>
<g>
	<defs>
		<rect id="SVGID_1_" x="244.6" y="95.8" width="67.5" height="45.8"/>
	</defs>
	<clipPath id="SVGID_2_">
		<use xlink:href="#SVGID_1_"  style="overflow:visible;"/>
	</clipPath>
	<path class="st3" d="M233.2,120.2c4.1-2.3,8.3-1.9,12.3-0.5c5.2,1.7,10,0.8,14.8-1.2c2.6-1.1,5.2-2.2,7.7-3.5
		c8.5-4.5,17.1-1.5,22.4,5c3,3.7,6.8,5.4,11.6,5.3c2.3,0,4.7,0.8,7,1.3c0.3,0.1,0.8,0.5,0.9,0.8c0.1,0.7-0.5,0.9-1,1
		c-0.8,0.1-1.5,0.1-2.3,0.1c-24,0-48,0-72,0c-1.3,0-2.5,0-3.8,0C226.8,127.2,228.4,123,233.2,120.2z"/>
</g>
<path class="st1" d="M166.8,81.7c0-0.5,2.9-0.6,3.8-1.4c4.4-3.8,9.2-5.6,15.1-5.5c2.8,0,5.4-1.7,7.6-3.5c10.3-8.8,15.4-4.5,21.9,1.8
	c4.2,4,8.2,4.3,13,2.4c6.3-2.5,8.4-2,13,2.9c2.1,2.3,4.8,2.8,7.6,3.3c1.9,0.3,3.8,0.7,5.5,1.5c0,0.4,0,0.8-0.1,1.2
	c-29.8,0-59.6,0-89.4,0C164.2,83.1,166.4,82.5,166.8,81.7z"/>
<g>
	<rect x="236.8" y="196" class="st4" width="9.9" height="65"/>
	<path class="st5" d="M292.8,159v102h31V159H292.8z M298.8,186.4h-3.4V183h3.4V186.4z M298.8,179.7h-3.4v-3.4h3.4V179.7z M298.8,173
		h-3.4v-3.4h3.4V173z M298.8,166.5h-3.4v-3.4h3.4V166.5z M304.4,186.4H301V183h3.4V186.4z M304.4,179.7H301v-3.4h3.4V179.7z
		 M304.4,173H301v-3.4h3.4V173z M304.4,166.5H301v-3.4h3.4V166.5z M310,186.4h-3.4V183h3.4V186.4z M310,179.7h-3.4v-3.4h3.4V179.7z
		 M310,173h-3.4v-3.4h3.4V173z M310,166.5h-3.4v-3.4h3.4V166.5z M315.7,186.4h-3.4V183h3.4V186.4z M315.7,179.7h-3.4v-3.4h3.4V179.7
		z M315.7,173h-3.4v-3.4h3.4V173z M315.7,166.5h-3.4v-3.4h3.4V166.5z M321.3,186.4h-3.4V183h3.4V186.4z M321.3,179.7h-3.4v-3.4h3.4
		V179.7z M321.3,173h-3.4v-3.4h3.4V173z M321.3,166.5h-3.4v-3.4h3.4V166.5z"/>
	<path class="st5" d="M212.3,96.7v164.3h31V96.7H212.3z M218.3,124.1h-3.4v-3.4h3.4V124.1z M218.3,117.4h-3.4V114h3.4V117.4z
		 M218.3,110.7h-3.4v-3.4h3.4V110.7z M218.3,104.2h-3.4v-3.4h3.4V104.2z M223.9,124.1h-3.4v-3.4h3.4V124.1z M223.9,117.4h-3.4V114
		h3.4V117.4z M223.9,110.7h-3.4v-3.4h3.4V110.7z M223.9,104.2h-3.4v-3.4h3.4V104.2z M229.5,124.1h-3.4v-3.4h3.4V124.1z M229.5,117.4
		h-3.4V114h3.4V117.4z M229.5,110.7h-3.4v-3.4h3.4V110.7z M229.5,104.2h-3.4v-3.4h3.4V104.2z M235.1,124.1h-3.4v-3.4h3.4V124.1z
		 M235.1,117.4h-3.4V114h3.4V117.4z M235.1,110.7h-3.4v-3.4h3.4V110.7z M235.1,104.2h-3.4v-3.4h3.4V104.2z M240.8,124.1h-3.4v-3.4
		h3.4V124.1z M240.8,117.4h-3.4V114h3.4V117.4z M240.8,110.7h-3.4v-3.4h3.4V110.7z M240.8,104.2h-3.4v-3.4h3.4V104.2z"/>
	<path class="st5" d="M181.2,132.5v128.6h31V132.5H181.2z M187.3,159.9h-3.4v-3.4h3.4V159.9z M187.3,153.1h-3.4v-3.4h3.4V153.1z
		 M187.3,146.4h-3.4V143h3.4V146.4z M187.3,139.9h-3.4v-3.4h3.4V139.9z M192.9,159.9h-3.4v-3.4h3.4V159.9z M192.9,153.1h-3.4v-3.4
		h3.4V153.1z M192.9,146.4h-3.4V143h3.4V146.4z M192.9,139.9h-3.4v-3.4h3.4V139.9z M198.5,159.9h-3.4v-3.4h3.4V159.9z M198.5,153.1
		h-3.4v-3.4h3.4V153.1z M198.5,146.4h-3.4V143h3.4V146.4z M198.5,139.9h-3.4v-3.4h3.4V139.9z M204.1,159.9h-3.4v-3.4h3.4V159.9z
		 M204.1,153.1h-3.4v-3.4h3.4V153.1z M204.1,146.4h-3.4V143h3.4V146.4z M204.1,139.9h-3.4v-3.4h3.4V139.9z M209.7,159.9h-3.4v-3.4
		h3.4V159.9z M209.7,153.1h-3.4v-3.4h3.4V153.1z M209.7,146.4h-3.4V143h3.4V146.4z M209.7,139.9h-3.4v-3.4h3.4V139.9z"/>
	<path class="st5" d="M152.8,132.4v128.7h31V132.4H152.8z M158.9,159.8h-3.4v-3.4h3.4V159.8z M158.9,153h-3.4v-3.4h3.4V153z
		 M158.9,146.3h-3.4v-3.4h3.4V146.3z M158.9,139.8h-3.4v-3.4h3.4V139.8z M164.5,159.8h-3.4v-3.4h3.4V159.8z M164.5,153h-3.4v-3.4
		h3.4V153z M164.5,146.3h-3.4v-3.4h3.4V146.3z M164.5,139.8h-3.4v-3.4h3.4V139.8z M170.1,159.8h-3.4v-3.4h3.4V159.8z M170.1,153
		h-3.4v-3.4h3.4V153z M170.1,146.3h-3.4v-3.4h3.4V146.3z M170.1,139.8h-3.4v-3.4h3.4V139.8z M175.7,159.8h-3.4v-3.4h3.4V159.8z
		 M175.7,153h-3.4v-3.4h3.4V153z M175.7,146.3h-3.4v-3.4h3.4V146.3z M175.7,139.8h-3.4v-3.4h3.4V139.8z M181.3,159.8h-3.4v-3.4h3.4
		V159.8z M181.3,153h-3.4v-3.4h3.4V153z M181.3,146.3h-3.4v-3.4h3.4V146.3z M181.3,139.8h-3.4v-3.4h3.4V139.8z"/>
	<path class="st5" d="M242.2,178v83.1h42.9V178H242.2z M282,216.1h-35.8v-2H282V216.1z M282,209.4h-35.8v-2H282V209.4z M282,202.8
		h-35.8v-2H282V202.8z M282,196.1h-35.8v-2H282V196.1z M282,189.5h-35.8v-2H282V189.5z M282,182.8h-35.8v-2H282V182.8z"/>
	<path class="st6" d="M183,129.1l-0.6-30.9l-0.6,30.9c-1,0.3-1.8,1.2-1.8,2.3c0,1.3,1.1,2.4,2.4,2.4s2.4-1.1,2.4-2.4
		C184.8,130.3,184,129.3,183,129.1z"/>
	<rect x="247.3" y="172.7" class="st6" width="9.7" height="5.6"/>
	<rect x="316.1" y="153.4" class="st6" width="4.8" height="5.6"/>
	<rect x="310.1" y="153.4" class="st6" width="4.8" height="5.6"/>
</g>
<polygon class="st6" points="244,177.1 244,179.9 283.6,179.9 283.6,260.2 286.7,260.2 286.7,179.9 286.7,179.3 286.7,177.1 "/>
<polygon class="st6" points="292.8,158.1 292.8,162.2 322.6,162.2 322.6,260.2 325.4,260.2 325.4,162.2 325.4,160.2 325.4,158.1 "/>
<polygon class="st6" points="152.8,131.7 152.8,135.7 210.6,135.7 210.6,233.7 213.8,233.7 213.8,135.7 213.8,133.7 213.8,131.7 "/>
<polygon class="st6" points="245,95.8 244.9,95.8 242.2,95.8 212.3,95.8 212.3,100.5 242.2,100.5 242.2,228.5 244.9,228.5 
	244.9,100.5 245,100.5 "/>
<path class="st5" d="M50.2,23v229.8h71.8V23H50.2z M66.8,252.7h-4.1V31.3h4.1V252.7z M81.9,252.7h-4.1V31.3h4.1V252.7z M97,245.4
	h-4.1V31.3H97V245.4z M111.3,245.4h-4.1V31.3h4.1V245.4z"/>
<polygon class="st6" points="50.2,22.6 50.2,28.6 118.1,28.6 118.1,229.1 121.9,229.1 121.9,27.7 121.9,25.1 121.9,22.6 "/>
<g>
	<path class="st7" d="M59.9,219.5c-1.4,3.7-5.7,8.1-12,9.5c-0.8,0.2-2.1,0.5-3.5,0.5c-0.2,0-0.5,0-0.7,0c-1.4,0-3.1-0.2-4.8-0.8
		c-1.5-0.6-6.4-2.4-6.8-6.3c-0.3-2.6,1.6-4.7,2.2-5.3l0,0c0,0-5.1-2.8-3.7-5.8c0.2-0.4,1.7-2.3,2.1-2.6c0.1-0.1,0.1-0.1,0.2-0.2
		c0.1-0.1,0.2-0.2,0.4-0.3c0.1-0.1,0.2-0.1,0.3-0.2c0.3-0.2,0.5-0.3,0.8-0.3c2.3-0.7,4.8,0.5,6,1.2c0.2,0.1-0.8-1-0.9-1.2
		c0,0-0.9-6.2,6.9-5.2c5.5,0.7,3.8,5.7,3.7,5.7c0,0,0.6-0.5,1.5-0.8c0.1-0.1,0.3-0.1,0.5-0.1c0.1,0,0.2,0,0.3-0.1
		c0.4-0.1,0.9-0.1,1.3-0.1c0.8,0.1,1.7,0.5,2.5,1.4c0.8,0.9,0.8,1.9,0.4,2.7c-0.9,2-3.8,3.7-3.8,3.7s4.9-0.3,7.3,2.3
		C60.7,218,60.1,219.1,59.9,219.5L59.9,219.5z"/>
	<path class="st8" d="M59.5,226c-3.2,4.7-10.4,5-15.1,5.2c-1.1,0.1-1.7,0.1-2.5,0c-3.6-0.3-9.9-2.2-10.7-6.7
		c-0.7-3.6,2.5-6.8,3.1-7.4l0,0c1.4,0.8,4.6,2.3,8.7,1.9c0.3,0,0.6-0.1,0.8-0.1c0.1,0,0.3,0,0.4-0.1c1.9-0.4,3.6-1.1,5-2
		c0.4-0.3,0.9-0.6,1.3-0.9c3-2.3,5.8-4.1,6.1-4.6c-0.4-0.3,0.4,0.3,0,0c-0.9,2-1.8,4-1.8,4s3.1-0.8,5.3,1.9c0,0,0.6,0.8,0.9,1.9
		C61.4,220.9,61.1,223.7,59.5,226L59.5,226z"/>
	<path class="st9" d="M45.6,235.5c0,0.6-0.9,0.6-0.9,0c0-0.6,0-1.6,0-2.1c0.1-4.4,0.2-10.1,0.2-14.5l0-2.7c0-0.2,0.3-0.2,0.3,0
		C45.4,222.3,45.6,229.4,45.6,235.5L45.6,235.5z"/>
	<path class="st9" d="M45,218.4l3.7-3.4c0,0,0.1,0,0.1,0c0,0,0,0.1,0,0.1l-3.6,3.5c-0.1,0.1-0.2,0.1-0.2,0
		C45,218.5,45,218.4,45,218.4L45,218.4z"/>
	<path class="st9" d="M45.1,230.2l5.4-4.9c0.1,0,0.1,0,0.2,0c0,0,0,0.1,0,0.2l-5.2,5c-0.1,0.1-0.2,0.1-0.3,0
		C45,230.4,45,230.3,45.1,230.2L45.1,230.2z"/>
	<path class="st9" d="M45.1,222.8l-5.6-5.1c0,0,0-0.1,0-0.1c0,0,0.1,0,0.1,0l5.8,4.9c0.1,0.1,0.1,0.2,0,0.3
		C45.3,222.9,45.2,222.9,45.1,222.8C45.1,222.8,45.1,222.8,45.1,222.8L45.1,222.8z"/>
	<path class="st8" d="M44.3,205c0-0.1,0.9-1.4,0-1.4c-0.9,0-0.3,1.2-0.3,1.2s-1.9-1.2-1.4-0.5C43.1,205.1,44.3,205,44.3,205z"/>
	<path class="st8" d="M45.8,212c-0.7-0.5-1,0.7-1,0.7s0.2-1.8-0.8-1.2c-0.4,0.2-0.1,0.7,0.2,1c-0.5-0.2-1.1-0.3-1.1,0
		c-0.1,0.5,1.8,0.5,1.8,0.5C44.9,213,46.4,212.5,45.8,212L45.8,212z"/>
	<path class="st8" d="M51.3,213.7c-0.2-0.8-0.9-0.4-0.9-0.4s1-0.9-0.1-1.1c-0.5-0.1-1,0.6-0.9,1.1c-0.2-0.5-0.2-1.1-0.4-0.8
		c-0.4,0.3,0.1,1.7,0.1,1.7C49.1,214.1,51.5,214.5,51.3,213.7z"/>
	<path class="st8" d="M51.3,208.2c-0.2-0.8-0.9-0.4-0.9-0.4s1-0.9-0.1-1.1c-0.5-0.1-1,0.6-0.9,1.1c-0.2-0.5-0.2-1.1-0.4-0.8
		c-0.4,0.3,0.1,1.7,0.1,1.7C49.1,208.7,51.5,209,51.3,208.2z"/>
	<path class="st8" d="M51.5,234.6H38c0,0-0.1,0-0.1-0.1c0,0,0-0.1,0-0.1h13.6C51.5,234.5,51.6,234.5,51.5,234.6
		C51.6,234.6,51.5,234.6,51.5,234.6L51.5,234.6z"/>
	<path class="st8" d="M53.7,236.7l-0.7,3.4c0,0,0,0,0,0c0,0,0,0,0,0c0,0,0,0,0,0.1c0,0,0,0,0,0c0,0,0,0.1,0,0.1c0,0,0,0,0,0
		c-0.1,0.2-0.2,0.6-0.5,0.9c0,0-0.1,0.1-0.1,0.1c0,0,0,0-0.1,0.1c-0.1,0.1-0.2,0.2-0.3,0.3c0,0-0.1,0.1-0.1,0.1c0,0,0,0,0,0
		c0,0-0.1,0-0.1,0.1c0,0-0.1,0-0.1,0.1c0,0-0.1,0.1-0.1,0.1c0,0-0.1,0-0.1,0.1c0,0-0.1,0-0.1,0.1c0,0-0.1,0-0.1,0.1c0,0-0.1,0-0.1,0
		c-0.1,0-0.1,0-0.2,0.1c0,0,0,0-0.1,0c0,0,0,0,0,0c0,0-0.1,0-0.1,0c0,0-0.1,0-0.1,0c0,0-0.1,0-0.1,0c0,0-0.1,0-0.1,0h0
		c0,0-0.1,0-0.1,0H39.3c-1,0-1.9-0.6-2.4-1.4c1.3,0.3,5.6,1,10.1-1.4c3.4-1.8,5.2-4.4,6-5.7c0,0,0.1,0.1,0.1,0.1
		C53.6,234.7,53.8,235.7,53.7,236.7L53.7,236.7z"/>
</g>
<g>
	<path class="st7" d="M390.8,223.1c1,2.3,4.2,3.7,4.2,3.7s-1.5,0.5-1.6,1.4c-0.1,0.7,0.6,1.3,0.9,1.6c2.8,2.5,13.5,3.7,15.1,1.7
		c0.1-0.1,0.1-0.2,0.2-0.4c0.1-0.4-0.1-0.9-1-1.7c2.7,1.7,3.4-0.9,2.7-1.8c-0.4-0.5-0.9-0.3-1.3-0.1c0.5-0.5,1.2-1.4,1.8-2.3
		c0-0.1,0.1-0.1,0.1-0.2c0.1-0.2,0.2-0.4,0.3-0.5c0.3-0.4,0.5-0.8,0.6-1.2c-0.4-0.6-0.8-1.3-1.2-1.9c-0.9,0.1-1.7,0.8-2.1,1.2
		c-0.1,0.2-0.3,0.3-0.3,0.4c0.1-0.1,0.2-0.2,0.3-0.4c0.4-0.6,1.1-1.7,1.2-2.7c-0.4-0.7-0.9-1.3-1.3-2c-1.6-0.6-2.6,0.6-3.1,1.4
		c0.5-1,1.4-3,1-4.5c-0.4-0.5-0.7-1-1.1-1.5c-2.1-1.3-3.3,3.1-3.7,4.6c0.3-1.5,1-6.2-1.3-7.3c-2.8-1.3-2.7,5.6-2.7,5.6s-1.3-4-2.8-2
		c-1,1.4,0,4.5,0.6,6.3c-0.9-2-2.9-5.5-4.8-3c-1.1,1.5-0.6,2.8,0.4,3.9C390.9,221.2,390.3,221.9,390.8,223.1L390.8,223.1z"/>
	<path class="st8" d="M409.3,231.5c0.1,0.2,0.2,0.3,0.4,0.5c0.1,0.1,0.1,0.2,0.2,0.2c0.3,0.3,0.7,0.5,1.4,0.8c1.3-0.6,2-1.5,2.3-2.5
		c0.3-1.1,0.8-3.3,0.6-5c-0.5-0.7-0.9-1.4-1.4-2.1c-0.5-0.2-1.1-0.1-1.3,0.2c-0.2,0.2-0.5,0.8-0.5,0.8c-0.1,0.2-0.1,0.4-0.2,0.6
		c-0.3,1-0.5,1.9-0.5,1c0-0.5-0.1-0.8-0.3-1.1c-0.5-0.7-1.7-0.9-3.8-0.9c-3,0-0.1,3-1.1,4.8c-1,1.7-1.1-0.7-2.5-1.9
		c-1.4-1.2-0.9,0.4-1.6,2.6c-0.7,2.1-6.7,0.4-6.7,0.4C397,232.3,407.8,233.5,409.3,231.5L409.3,231.5z"/>
	<path class="st10" d="M401.1,230.4c-1.8-0.4-0.6-5.5-2.3-7c-1.7-1.5-1.6-2.1-0.8-4.5c0.4-1.2,0.3-2.6,0-3.7c-0.5-1-1.4-2.3-2.3-1
		c-1,1.4,0,4.5,0.6,6.3c-0.9-2-2.9-5.5-4.8-3c-1.1,1.5-0.6,2.8,0.4,3.9c-1,0-1.6,0.7-1.1,1.9c1,2.3,4.2,3.7,4.2,3.7
		s-1.5,0.5-1.6,1.4c-0.1,0.7,0.6,1.3,0.9,1.6c1.4,1.3,5.1,2.3,8.4,2.6C402.5,231.4,401.8,230.5,401.1,230.4L401.1,230.4z"/>
	<path class="st8" d="M399.9,219.6c0,0,1.7-1.8,0.9-2.2c-0.8-0.3-1.1,1.5-1.2,1c0-0.4-0.9-2.5-1.1-1.2
		C398.3,218.6,399.4,219.3,399.9,219.6z"/>
	<path class="st8" d="M405,222.8c0-0.1,1.5-1.3,0.8-1.5c-0.7-0.2-1.1,1.1-1.2,0.7c-0.1-0.4-1.7-2-1.2-0.5
		C403.9,223,405,222.8,405,222.8L405,222.8z"/>
	<path class="st7" d="M397,229c-0.1-0.1-2.6-0.3-2.2-0.8c0.4-0.5,1.2-0.1,1.2-0.3c0-0.2-1-1.3-0.6-1.7c0.4-0.4,1.2,0.9,1.2,0.9
		s-0.4-1.5,0.4-1.5c0.7,0.1,0.4,1.9,0.5,1.7c0.1-0.2,1-1.2,1.3-0.7S397,229,397,229L397,229z"/>
	<path class="st9" d="M392.5,217.3l-0.5,8.1c0,0,1.3,0.3,1.3,0.1l0.5-8.6L392.5,217.3L392.5,217.3z"/>
	<path class="st7" d="M397.7,217.5c0,1-0.4,1.5-0.6,1.8c-1.2,1.5-4.1,1.7-5.9,0.8c-0.6-0.3-1-0.7-1.3-0.9c0,0-0.6-0.1-1.1-0.3
		c-0.2-0.1-0.5-0.2-0.6-0.3c-0.9-0.6-1.2-2.5-0.3-3.3c0.6-0.6,2-1,2-1s0-1.2,0.5-1.8c0.7-0.9,2.5-0.9,3.5-0.7
		c0.5,0.1,1.3,0.2,1.9,0.9c0.5,0.6,0.6,1.2,0.6,1.4c0,0,2.1-0.6,2.6,1c0,0,0,0.1,0,0.1C399.5,216.6,397.7,217.5,397.7,217.5
		L397.7,217.5z"/>
	<path class="st7" d="M400.3,229.6c-0.2,0.1-0.4,0.2-0.6,0.2c0,0,0.1,0.1,0.2,0.2c-0.1,0.1-0.2,0.2-0.3,0.2c-0.5,0.5-1,0.7-1,0.7
		c-1,0.1-2.2,0.2-3.5,0.2c-0.2,0-0.5,0-0.7,0c-1.1,0-2.3-0.1-3.5-0.3c-0.2,0-0.3-0.1-0.5-0.1c-0.5-0.1-1-0.2-1.6-0.4
		c-0.5-0.1-1.1-0.5-2.2-0.8c-0.1,0-0.2-0.1-0.4-0.1c-0.3-0.1-0.5-0.1-0.8-0.1c-0.9-0.1-1.3-0.1-1.6-0.5c-0.6-0.7-0.3-2.1,0.5-2.6
		c0.6-0.3,1.3-0.1,1.4-0.3c0-0.1-0.1-0.3-0.2-0.4c-0.7-0.7,0.4-2.5,1.5-2.9s2.1-0.5,3.7,0.3c0,0,1.4-1.5,2.9-0.6
		c0.7,0.4,0.9,0.6,1,0.8c0.2-0.3,0.6-0.6,1.5-0.6c1.5,0,3.8,1.8,2.4,3.3c0,0,1.3-0.2,2.1,1.7c0.1,0.2,0.1,0.4,0.1,0.5
		C400.9,228.6,400.7,229.2,400.3,229.6L400.3,229.6z"/>
	<path class="st8" d="M400.3,229.6c-0.2,0.1-0.4,0.2-0.6,0.2c0,0,0.1,0.1,0.2,0.2c0.2,0.3,0.4,0.9-0.5,1.5c-1,0.7-3.3,0-4.3-0.3
		c-0.3-0.1-0.5-0.2-0.5-0.2s-0.1,0.1-0.2,0.2c-0.3,0.3-1,0.7-2,0.6s-1.4-0.6-1.5-1c-0.1-0.2-0.1-0.3-0.1-0.3s-0.1,0.1-0.3,0.2
		c-0.2,0.1-0.5,0.2-0.9,0.4c-1,0.4-3.2-1.6-3.2-1.6c0.1,0,0.3,0.1,0.4,0.1c1.5,0.3,2.3,0.1,2.8-0.2c0.1-0.1,0.2-0.2,0.3-0.3
		c0.3-0.3,0.5-0.7,1.1-1c0.9-0.5,1.9-0.4,2.3-0.4c1.3,0.1,2.3,0.7,2.7,1c0.5-0.3,0.8-1,1.4-1.3c0.8-0.4,2.6-0.4,2.8-0.3
		c0.3,0.1,0.7,0.4,0.9,0.8C400.9,228.6,400.6,229.2,400.3,229.6z"/>
	<path class="st8" d="M397.7,217.5c0,1-0.4,1.5-0.6,1.8c-1.2,1.5-4.1,1.7-5.9,0.8c-0.6-0.3-1-0.7-1.3-0.9c0,0-0.6-0.1-1.1-0.3
		c0.9,0.1,2,0,2.3-0.6c0.6-1.3,2.2-0.3,2.2-0.3s0.1-1.1,1.4-1.1c1.3,0,1.6,0.7,1.8,0.7c0.2-0.1,0.5-1.4,1.5-1.9
		c0.4-0.2,0.8-0.3,1-0.3C399.5,216.6,397.7,217.5,397.7,217.5L397.7,217.5z"/>
	<path class="st8" d="M390.9,225.5c0,0-0.7-1-1.4-0.6c-0.7,0.4,0.2,1.5-0.6,1.3c-0.8-0.1-2.2-0.4-2.1,0.4c0,0.8,1.1,1.8,2.7,0.7
		c1.6-1.2,3.7,0.2,3.4-1.1S391.7,225,390.9,225.5L390.9,225.5z"/>
	<path class="st8" d="M393.5,214.5c0-0.1-0.1-1.2-0.7-0.9c-0.5,0.3-0.1,1.1-0.8,1c-0.7-0.1-1.3,0-1.3,0.5c0,0.5,1.3,0.6,1.3,0.8
		c0,0.1-0.8,0.6,0,0.6c0.8,0,0.9,0,1.4-0.4C394,215.7,393.5,214.5,393.5,214.5L393.5,214.5z"/>
	<path class="st7" d="M382.6,233.5c0,0.1-0.2,0.2-0.4,0.3c-0.4,0.2-0.9,0.4-1.5,0.6c-4.2,1.2-13.5,1.7-16.7-1.3
		c-0.1-0.1-0.2-0.2-0.4-0.4c-0.3-0.3-0.5-0.6-0.8-1.2c0-0.1-0.1-0.1-0.1-0.2c0,0,0,0,0,0c-0.2-0.3-0.4-0.7-0.6-1.1
		c-0.7-1.4-1.4-2.9-1.8-4.3c-0.4-1.5-0.4-2.8,0.3-3.4c0.1-0.1,0.3-0.2,0.5-0.2c0.7,0,1.3,1,1.8,2.2c0.6,1.5,1,3.2,1,3.5
		c-0.1-0.3-0.4-1.9-0.6-3.7c-0.2-2.1-0.3-4.5,0.5-5.2c0.9-0.8,1.6,2.2,2,4.7c0.3,1.6,0.4,3.1,0.4,3.2c0-0.1,0-1.5,0.1-3.2
		c0.1-3.1,0.5-7.3,1.4-7.8c1-0.5,1,4.5,0.9,7.8c-0.1,1.6-0.1,2.9-0.1,2.9s0.3-1.3,0.7-2.9c0.7-2.6,1.8-6.1,2.9-6.4
		c1.1-0.3,1.2,3.1,1.1,5.8c0,0.9-0.1,1.6-0.1,2.2c0,0.5-0.1,0.8-0.1,0.9c0-0.1,0-0.4,0.1-0.9c0-0.4,0.1-1,0.2-1.7
		c0-0.2,0-0.4,0.1-0.6c0.1-0.5,0.1-1.1,0.2-1.7c0.4-2.7,0.9-5.7,1.3-6.2c0.4-0.5,1,2.8,1.4,6c0,0.1,0,0.3,0.1,0.4
		c0.1,0.8,0.2,1.6,0.3,2.3c0.1,0.5,0.1,0.9,0.1,1.2c0,0.5,0.1,0.8,0.1,1c0-0.2,0-0.5-0.1-0.9c0-0.4-0.1-0.8-0.1-1.3
		c0-0.7-0.1-1.5-0.1-2.3c0-0.4,0-0.8,0-1.2c0-0.5,0.1-0.9,0.1-1.3c0.1-0.7,0.3-1.3,0.6-1.4c0.6-0.2,1,1.8,1.2,4
		c0.1,0.7,0.1,1.4,0.2,2.1c0,0.1,0,0.1,0,0.2c0,0.6,0.1,1.1,0.1,1.6c0-0.5,0-1,0-1.6c0-0.1,0-0.3,0-0.4c0-0.6,0-1.3,0.1-1.9
		c0.1-2.5,0.5-5,1.4-6.2c2-2.6,3.5,6.5,3.5,6.5C384.3,229.4,382.4,231.4,382.6,233.5L382.6,233.5z"/>
	<path class="st8" d="M380.1,231.3c0-0.1,1.1-7.3,2.1-8.4c1-1.2,3.1-1.5,3-1c-0.1,0.6-1.3,8.8-2.8,9.3
		C380.8,231.8,380.2,231.3,380.1,231.3L380.1,231.3z"/>
	<path class="st8" d="M369.5,231.1c0.1-0.2-1.7-3.6-0.2-3.9c1.5-0.3,2.6,2.5,2.6,2.5s0.1-5.8,1.5-4.1c1.4,1.6,2.4,4.5,2.4,4.5
		s-0.4-7.3,0.4-6.1c0.8,1.2,1.6,6.8,1.8,6.5c0.1-0.3-0.1-6.9,1.4-7.4c1.5-0.5,2.5,9.4,2.5,9.4L369.5,231.1L369.5,231.1z"/>
	<path class="st11" d="M112.7,210.1l-3.4-0.2l0.2-2.8C110.6,208.1,111.7,209.1,112.7,210.1z"/>
	<path class="st11" d="M109,214.5l8.4,0.5c1.1,1.3,2.2,2.6,3.3,3.9l-11.9-0.8L109,214.5L109,214.5z"/>
	<path class="st5" d="M75.5,214.6l26,1.7l0.3-4.6l-26-1.7L75.5,214.6z"/>
	<path class="st7" d="M97.5,226.4c1.3,2.3,12.8,2.4,16,0.2c0.4-0.2,1.1-0.8,1.2-1.5c0-1-1.5-1.7-1.5-1.7s3.5-1,4.9-3.3
		c0.7-1.2,0.1-2-0.9-2.1c0.6-0.5,1.1-1.1,1.3-1.8c-0.9-1-1.8-2-2.7-3c-1.2,0.6-2.3,2.2-3,3.4c0.7-1.2,1.6-3.1,1.7-4.7
		c-0.7-0.7-1.3-1.3-2-2c-0.7,0.7-1.4,2-1.4,2s0.2-1.6,0.1-3.1c-1-0.9-2-1.8-3-2.6c-1.8,1.5-1.7,5.5-1.6,7c-0.2-1.7-0.9-6.6-3.4-5.3
		c-2.3,1.2-1.3,4.8-0.8,6.3c-0.5-1-1.5-2.4-3.5-1.7c-0.3,0.1-0.5,0.2-0.7,0.4c-1.3,1.1-0.3,3.4,0.2,4.5c0.1,0.2,0.2,0.4,0.3,0.5
		c-0.1-0.1-0.2-0.2-0.3-0.4c-0.6-0.8-1.8-2.2-3.2-1.4c-0.8,0.4-0.5,1.7,0.1,3c0.1,0.2,0.2,0.4,0.3,0.6c0,0.1,0.1,0.1,0.1,0.2
		c0.5,1,1.2,2,1.6,2.6c-0.4-0.3-0.9-0.6-1.4-0.1c-0.8,0.9-0.5,3.7,2.6,2.3c-1.1,0.7-1.3,1.3-1.3,1.7
		C97.3,226.1,97.4,226.3,97.5,226.4L97.5,226.4z"/>
	<path class="st7" d="M76.5,219.5c0.1-0.1,0.3-0.1,0.5-0.1c-0.5-0.5-0.5-1.5-0.2-2.5c0.2-0.8,0.7-1.5,1.2-1.5c0,0,0,0,0,0l1.5,0.1
		c0,0-0.5-1,0-2.3c0.1-0.3,0.3-0.7,0.5-1c0-0.1,0.1-0.1,0.1-0.2c1.4-1.8,3.5,0.9,3.6,0.9c-0.1-0.1-4.1-6.5-0.3-6.1
		c2.7,0.3,3.1,2.3,3.1,3.4c0.2-1.8,1-5.6,3.7-5c3.4,0.8,2.1,6.2,2,6.5c0.1-0.4,2.2-7,5-5.2c2.8,1.9-2,7.4-2.1,7.5
		c0.1-0.1,1.9-1.7,3.3-1.6c0.6,0,1.1,0.4,1.4,1.3c0.3,1.1-0.3,2.2-1.1,3.2c0,0,0,0,0,0c-0.6,0.6-1.2,1.1-1.9,1.6
		c-0.4,0.2-0.7,0.5-1,0.6c-0.4,0.3-0.8,0.4-0.8,0.5c0.1,0,0.4-0.2,0.9-0.3c0.3-0.1,0.6-0.1,1-0.1c0.3,0,0.6,0,0.9,0.1
		c1.1,0.2,1.9,1.1,1.4,3.6c-0.1,0.2-0.4,2-1.5,3.4c-0.1,0.2-0.3,0.3-0.4,0.5c-0.1,0.1-0.2,0.2-0.3,0.2c-0.3,0.2-0.9,0.5-1.6,0.7
		c-2,0.5-5.3,0.9-7.9,0.6c-3.7-0.3-3.8-0.8-4.5-1.4c-0.2-0.2-0.4-0.3-0.8-0.5c-0.4-0.2-0.8-0.4-1.1-0.5c-2.6-1.4-4.2-3.2-4.5-4.8
		C76.3,220.7,76.1,219.8,76.5,219.5z"/>
	<path class="st7" d="M66.7,219.4c-0.3-1.8,0.7-2.1,1.7-1.8c0.6,0.1,1.3,0.4,1.6,0.6c0.2,0.1,0.2,0.1,0.2,0.1c0-0.1-1.9-0.8-2.3-2.9
		c-0.1-0.6-0.1-1.3,0.1-2.1c0.6-2.4,2.3-1.5,3.4-0.5c-1-1.2-2-3.2-0.2-5.2c2.8-3,4.5,1.9,4.5,1.9s0.6-1.7,2.9-0.9
		c2.3,0.7,0.1,4.2,0,4.2c0,0,0.6-0.4,1.4-0.4c0.8,0,1.8,0.4,2.2,2.2c0.4,1.7-0.4,2.9-1.2,3.6c-0.7,0.6-1.5,0.9-1.7,1
		c0.2-0.1,1.1-0.3,2-0.2c0.8,0.2,1.6,0.7,1.8,2c0.3,2,0.2,3.8-0.3,4.8c-0.2,0.4-0.5,0.6-0.8,0.8c-0.2,0.1-0.4,0.1-0.6,0.1
		c0,0-0.1,0-0.1,0c-1.9,0.1-9.7,1.6-11.2-1.7c0,0-2.5-1.1-3.3-5.1C66.8,219.6,66.7,219.5,66.7,219.4L66.7,219.4z"/>
	<path class="st8" d="M93.1,224.8c-0.3-1.7-0.6-6.1,1.2-7.2c0.6-0.4,1.6-0.4,2,0.1c0.2,0.3,0.4,0.9,0.4,0.9c0,0.2,0.1,0.4,0.1,0.7
		c0.1,1,0.2,2.1,0.4,1.2c0.1-0.5,0.2-0.8,0.5-1.1c0.6-0.7,1.9-0.7,4.1-0.4c3.1,0.4-0.3,3.2,0.5,5.1c0.8,2,1.3-0.6,2.9-1.7
		c1.6-1.1,0.9,0.6,1.3,2.9c0.4,2.3,7,1.3,7,1.3c-3.2,2.2-14.7,2.1-16-0.2c-0.1,0.2-0.3,0.3-0.4,0.5c-0.1,0.1-0.2,0.2-0.3,0.2
		c-0.3,0.2-0.9,0.5-1.6,0.7C93.9,226.9,93.3,225.9,93.1,224.8L93.1,224.8z"/>
	<path class="st8" d="M77.5,219.6c-1.4-2.8-0.3-2.2,0.2-2.6c0.2-0.1,0.2-0.8,0.3-1.5c0.1-1.4,0.1-3.2,0.7-2.8l0.8,0.6l0.1,0.1
		c0,0.2,0.7,2.6,1.4,4.7c0.1,0.3,0.2,0.6,0.3,0.8c0.7,1.7,1.4,3,1.8,2c1-2.3,2.6-2.8,2.9-1.1c0.3,1.7-1.8,4.7,0.3,3.5
		c2.2-1.1,2.9-3.1,3.7-1.1c0.8,1.9,0.5,4.2,1.7,3.2c0.4-0.4,0.9-0.5,1.3-0.6c0.9-0.1,1.7,0.2,2,0.6c0.2,0.2,1.1,0.8,1.9,1.5
		c-0.1,0.1-0.2,0.2-0.3,0.2c-0.3,0.2-0.9,0.5-1.6,0.7c-2,0.5-5.3,0.9-7.9,0.6c-3.7-0.3-3.8-0.8-4.5-1.4c-0.2-0.2-0.4-0.3-0.8-0.5
		c-0.2,0.1-0.4,0.1-0.6,0.1c0,0-0.1,0-0.1,0c-0.2-0.2-0.3-0.5-0.5-0.7C79.1,223.2,78.5,221.8,77.5,219.6L77.5,219.6z"/>
	<path class="st8" d="M66.7,219.4c0.9-0.1,2.2,0.7,2.8,0.8c1,0.1,0.7-2,0.7-2c0-0.1-1.9-0.8-2.3-2.9c1.8-0.3,4.6-0.1,5.4,1.5
		c0.8,1.5,2.3,0.6,3.3,0.2c0.4-0.2,0.8-0.2,1,0.1c0.6,0.8,4,6.8,5.1,8.7c0.2,0.4,0.3,0.6,0.3,0.6s0,0.3-0.3,0.7
		c-0.2-0.2-0.4-0.3-0.8-0.5c-0.2,0.1-0.4,0.1-0.6,0.1c0,0-0.1,0-0.1,0c-1.9,0.1-9.7,1.6-11.2-1.7c0,0-2.5-1.1-3.3-5.1
		C66.8,219.6,66.7,219.5,66.7,219.4L66.7,219.4z"/>
	<path class="st8" d="M110.7,212.9c0-1.4-1.2,0.7-1.3,1.1s-0.2-1.5-1.1-1.2c-0.9,0.2,0.6,2.4,0.6,2.4
		C109.5,215,110.7,214.3,110.7,212.9z"/>
	<path class="st8" d="M91.4,215.5c1-0.7-1.5-0.7-1.8-0.7c-0.3,0,0.8-0.2,0.7-1.3s-1.7,0.9-1.7,0.9s-0.1-1.4-0.6-1.9
		c-0.5-0.5,0,2.3,0.2,2.9C88.1,215.3,90.4,216.2,91.4,215.5z"/>
	<path class="st8" d="M112.4,220.6c0,0,2.2-0.2,2.3-1.7c0-1.5-1.4,0.7-1.4,0.7s0.2-1-0.7-1.1C111.7,218.3,112.4,220.6,112.4,220.6
		L112.4,220.6z"/>
	<path class="st8" d="M103.2,217.9c0,0,1.1,0.3,1.8-1.2c0.7-1.5-1.2,0-1.3,0.4c-0.1,0.4-0.3-1-1.1-0.9
		C101.7,216.3,103.2,217.7,103.2,217.9L103.2,217.9z"/>
	<path class="st8" d="M73,210.5c0,0,1.1-1.5,0.2-2.3c-0.9-0.8-0.4,0.8-0.1,1c0.2,0.2-0.5-0.8-1.3-0.1
		C70.9,209.9,72.8,210.3,73,210.5L73,210.5z"/>
	<path class="st8" d="M87.2,217.2c-0.7-0.4-0.4,0.9-0.4,0.9s-0.2-0.9-0.7-0.4c-0.6,0.5,1.3,1.7,1.5,2
		C87.6,219.8,88,217.7,87.2,217.2z"/>
</g>
<rect x="23.9" y="200.4" class="st12" width="505.4" height="53.5"/>
<g>
	<defs>
		<path id="SVGID_3_" d="M529.1,292.6h-0.2c-0.1-10.6-0.2-22.4-0.3-27.5v0c-1.4-52.3-6.1-101.5-155.9-101.5
			c-48.2-2.6-48.9-122.1-188.4-122.1s-164,75.1-164,131.7l2,131l0.2,0l0.4,21.1c0.6,34.5,28.9,62.1,63.4,61.9l380.6-2.7
			c34.6-0.2,62.5-28.4,62.5-62.9C529.3,312.4,529.2,302.6,529.1,292.6z"/>
	</defs>
	<clipPath id="SVGID_4_">
		<use xlink:href="#SVGID_3_"  style="overflow:visible;"/>
	</clipPath>
	<g class="st13">
		
			<rect x="419.5" y="152.4" transform="matrix(-1 -4.505031e-11 4.505031e-11 -1 870.0307 385.2471)" class="st2" width="31" height="80.4"/>
		
			<rect x="459.7" y="172.7" transform="matrix(-1 -4.486423e-11 4.486423e-11 -1 961.0231 425.8462)" class="st2" width="41.7" height="80.4"/>
		
			<rect x="500.9" y="91.7" transform="matrix(-1 -4.502233e-11 4.502233e-11 -1 1031.9327 263.8661)" class="st2" width="30.2" height="80.4"/>
		
			<rect x="531.5" y="128.8" transform="matrix(-1 -4.492330e-11 4.492330e-11 -1 1123.7598 287.7453)" class="st2" width="60.8" height="30.2"/>
		<g>
			<defs>
				
					<rect id="SVGID_5_" x="432.8" y="90.1" transform="matrix(-1 -4.492596e-11 4.492596e-11 -1 933.0589 226.1203)" width="67.5" height="45.8"/>
			</defs>
			<clipPath id="SVGID_6_">
				<use xlink:href="#SVGID_5_"  style="overflow:visible;"/>
			</clipPath>
			<path class="st14" d="M511.7,114.5c-4.1-2.3-8.3-1.9-12.3-0.5c-5.2,1.7-10,0.8-14.8-1.2c-2.6-1.1-5.2-2.2-7.7-3.5
				c-8.5-4.5-17.1-1.5-22.4,5c-3,3.7-6.8,5.4-11.6,5.3c-2.3,0-4.7,0.8-7,1.3c-0.3,0.1-0.8,0.5-0.9,0.8c-0.1,0.7,0.5,0.9,1,1
				c0.8,0.1,1.5,0.1,2.3,0.1c24,0,48,0,72,0c1.3,0,2.5,0,3.8,0C518.1,121.5,516.5,117.3,511.7,114.5z"/>
		</g>
		<g>
			
				<rect x="498.2" y="190.3" transform="matrix(-1 -4.535673e-11 4.535673e-11 -1 1006.2927 445.6501)" class="st4" width="9.9" height="65"/>
			<path class="st5" d="M421,153.3v102h31v-102H421z M446.1,177.3h3.4v3.4h-3.4V177.3z M446.1,170.6h3.4v3.4h-3.4V170.6z
				 M446.1,163.9h3.4v3.4h-3.4V163.9z M446.1,157.4h3.4v3.4h-3.4V157.4z M440.5,177.3h3.4v3.4h-3.4V177.3z M440.5,170.6h3.4v3.4
				h-3.4V170.6z M440.5,163.9h3.4v3.4h-3.4V163.9z M440.5,157.4h3.4v3.4h-3.4V157.4z M434.9,177.3h3.4v3.4h-3.4V177.3z M434.9,170.6
				h3.4v3.4h-3.4V170.6z M434.9,163.9h3.4v3.4h-3.4V163.9z M434.9,157.4h3.4v3.4h-3.4V157.4z M429.2,177.3h3.4v3.4h-3.4V177.3z
				 M429.2,170.6h3.4v3.4h-3.4V170.6z M429.2,163.9h3.4v3.4h-3.4V163.9z M429.2,157.4h3.4v3.4h-3.4V157.4z M423.6,177.3h3.4v3.4
				h-3.4V177.3z M423.6,170.6h3.4v3.4h-3.4V170.6z M423.6,163.9h3.4v3.4h-3.4V163.9z M423.6,157.4h3.4v3.4h-3.4V157.4z"/>
			<path class="st5" d="M501.6,91v164.3h31V91H501.6z M526.6,115h3.4v3.4h-3.4V115z M526.6,108.3h3.4v3.4h-3.4V108.3z M526.6,101.6
				h3.4v3.4h-3.4V101.6z M526.6,95.1h3.4v3.4h-3.4V95.1z M521,115h3.4v3.4H521V115z M521,108.3h3.4v3.4H521V108.3z M521,101.6h3.4
				v3.4H521V101.6z M521,95.1h3.4v3.4H521V95.1z M515.4,115h3.4v3.4h-3.4V115z M515.4,108.3h3.4v3.4h-3.4V108.3z M515.4,101.6h3.4
				v3.4h-3.4V101.6z M515.4,95.1h3.4v3.4h-3.4V95.1z M509.8,115h3.4v3.4h-3.4V115z M509.8,108.3h3.4v3.4h-3.4V108.3z M509.8,101.6
				h3.4v3.4h-3.4V101.6z M509.8,95.1h3.4v3.4h-3.4V95.1z M504.1,115h3.4v3.4h-3.4V115z M504.1,108.3h3.4v3.4h-3.4V108.3z
				 M504.1,101.6h3.4v3.4h-3.4V101.6z M504.1,95.1h3.4v3.4h-3.4V95.1z"/>
			<path class="st5" d="M532.6,126.8v128.6h31V126.8H532.6z M557.6,150.8h3.4v3.4h-3.4V150.8z M557.6,144h3.4v3.4h-3.4V144z
				 M557.6,137.3h3.4v3.4h-3.4V137.3z M557.6,130.8h3.4v3.4h-3.4V130.8z M552,150.8h3.4v3.4H552V150.8z M552,144h3.4v3.4H552V144z
				 M552,137.3h3.4v3.4H552V137.3z M552,130.8h3.4v3.4H552V130.8z M546.4,150.8h3.4v3.4h-3.4V150.8z M546.4,144h3.4v3.4h-3.4V144z
				 M546.4,137.3h3.4v3.4h-3.4V137.3z M546.4,130.8h3.4v3.4h-3.4V130.8z M540.8,150.8h3.4v3.4h-3.4V150.8z M540.8,144h3.4v3.4h-3.4
				V144z M540.8,137.3h3.4v3.4h-3.4V137.3z M540.8,130.8h3.4v3.4h-3.4V130.8z M535.2,150.8h3.4v3.4h-3.4V150.8z M535.2,144h3.4v3.4
				h-3.4V144z M535.2,137.3h3.4v3.4h-3.4V137.3z M535.2,130.8h3.4v3.4h-3.4V130.8z"/>
			<path class="st5" d="M561,126.7v128.7h31V126.7H561z M586,150.7h3.4v3.4H586V150.7z M586,143.9h3.4v3.4H586V143.9z M586,137.2
				h3.4v3.4H586V137.2z M586,130.7h3.4v3.4H586V130.7z M580.4,150.7h3.4v3.4h-3.4V150.7z M580.4,143.9h3.4v3.4h-3.4V143.9z
				 M580.4,137.2h3.4v3.4h-3.4V137.2z M580.4,130.7h3.4v3.4h-3.4V130.7z M574.8,150.7h3.4v3.4h-3.4V150.7z M574.8,143.9h3.4v3.4
				h-3.4V143.9z M574.8,137.2h3.4v3.4h-3.4V137.2z M574.8,130.7h3.4v3.4h-3.4V130.7z M569.2,150.7h3.4v3.4h-3.4V150.7z M569.2,143.9
				h3.4v3.4h-3.4V143.9z M569.2,137.2h3.4v3.4h-3.4V137.2z M569.2,130.7h3.4v3.4h-3.4V130.7z M563.6,150.7h3.4v3.4h-3.4V150.7z
				 M563.6,143.9h3.4v3.4h-3.4V143.9z M563.6,137.2h3.4v3.4h-3.4V137.2z M563.6,130.7h3.4v3.4h-3.4V130.7z"/>
			<path class="st5" d="M459.8,172.3v83.1h42.9v-83.1H459.8z M462.9,208.4h35.8v2h-35.8V208.4z M462.9,201.8h35.8v2h-35.8V201.8z
				 M462.9,195.1h35.8v2h-35.8V195.1z M462.9,188.4h35.8v2h-35.8V188.4z M462.9,181.8h35.8v2h-35.8V181.8z M462.9,175.1h35.8v2
				h-35.8V175.1z"/>
			<path class="st6" d="M561.9,123.4l0.6-30.9l0.6,30.9c1,0.3,1.8,1.2,1.8,2.3c0,1.3-1.1,2.4-2.4,2.4s-2.4-1.1-2.4-2.4
				C560.1,124.6,560.9,123.6,561.9,123.4z"/>
			
				<rect x="487.9" y="167" transform="matrix(-1 -4.548507e-11 4.548507e-11 -1 985.5019 339.7209)" class="st6" width="9.7" height="5.6"/>
			
				<rect x="423.9" y="147.7" transform="matrix(-1 -4.548507e-11 4.548507e-11 -1 852.7003 301.0095)" class="st6" width="4.8" height="5.6"/>
			
				<rect x="430" y="147.7" transform="matrix(-1 -4.548507e-11 4.548507e-11 -1 864.7976 301.0095)" class="st6" width="4.8" height="5.6"/>
		</g>
		<polygon class="st6" points="500.9,171.4 500.9,174.2 461.3,174.2 461.3,254.5 458.2,254.5 458.2,174.2 458.2,173.6 458.2,171.4 
					"/>
		<polygon class="st6" points="452.1,152.4 452.1,156.5 422.3,156.5 422.3,254.5 419.5,254.5 419.5,156.5 419.5,154.5 419.5,152.4 
					"/>
		<polygon class="st6" points="592.1,126 592.1,130 534.3,130 534.3,228 531.1,228 531.1,130 531.1,128 531.1,126 		"/>
		<polygon class="st6" points="499.9,90.1 500,90.1 502.7,90.1 532.6,90.1 532.6,94.8 502.7,94.8 502.7,222.8 500,222.8 500,94.8 
			499.9,94.8 		"/>
	</g>
	<path class="st15" d="M517.8,262.3H16.1c-10,0-10.3-8.1-10.3-18.1v0c0-10,0.3-18.1,10.3-18.1h501.7c10,0,18.1,8.1,18.1,18.1v0
		C535.9,254.2,527.8,262.3,517.8,262.3z"/>
	<rect x="21.8" y="253.8" class="st16" width="507.5" height="143.9"/>
	<g class="st13">
		<g>
			<line class="st17" x1="528.9" y1="284.2" x2="522.9" y2="284.2"/>
			<line class="st18" x1="510.7" y1="284.2" x2="468.3" y2="284.2"/>
			<line class="st19" x1="462.3" y1="284.2" x2="32.3" y2="284.2"/>
			<line class="st17" x1="26.3" y1="284.2" x2="20.3" y2="284.2"/>
		</g>
	</g>
	<rect x="20.3" y="249" class="st20" width="509" height="4.4"/>
	<g class="st13">
		<path class="st21" d="M505.5,262.8h-26c0,0-0.4-12.6,12.7-12.4C492.3,250.4,503.5,249.3,505.5,262.8z"/>
		<path class="st21" d="M479.5,265.3l-50.6,0.9l-11.4-13.4l-10.7,13.4h-0.7c-0.7-0.1-1.2-0.6-1.2-1.3c0.1-3.6,1.4-13.9,13.2-13.5
			c0,0,11.9-2,12,13l49.3-0.4L479.5,265.3z"/>
		<path class="st22" d="M444,228.2l-19.1,10.5c-5.5,0.9-11.3,1.9-17.3,2.9c-3.4,1-6.5,2.4-9.1,4.4c-1.8,2.2-2.9,4.5-3.5,6.9
			c-0.3,3.4-0.1,6.4,1,8.9c1.2,1.7,2.7,2.8,4.5,3.4c2,1.6,3.6,2.2,4.7,1.7l-0.1-0.6c-0.3-3.2,0.4-6.4,2.1-9c2.4-3.8,6-5.7,10.9-5.6
			c7.8,0.2,11.9,5.6,12,13c0,1.7,49.3-0.4,49.3-0.4c0.1-8.5,4.1-13.2,12.8-13.6c7.7,0.1,11.8,4.6,13.3,12.4l2,0.3
			c0.1-2.2,0.6-4.1,2.2-5.2c0.3-2.9,0.3-7-1-7.2c-1.3-0.3-2.7-12.9-3.7-12.9c-0.5-0.3-7.6-8.6-7.6-8.6c0.6-0.7,0.8-1.4,0.3-2
			c-9.8-2-19.8-3-30.1-2.7c-3.2,0-6.4-0.1-9.4-0.1C453.3,224.5,448.4,225.7,444,228.2z"/>
		<path class="st21" d="M497.8,241.6c-0.4,0-0.7,0.1-1.1,0.2c0.2,0,0.4-0.1,0.6-0.1c1.4,0,2.6,1.2,2.6,2.6c0,1.4-1.2,2.6-2.6,2.6
			c-0.2,0-0.4,0-0.6-0.1c0.3,0.1,0.7,0.2,1.1,0.2c1.5,0,2.7-1.2,2.7-2.7C500.6,242.9,499.3,241.6,497.8,241.6z"/>
		<path class="st21" d="M496.7,237.8c-6.3,0.9-30.3,4-64.3,4.3c-0.8,0-1.2-1-0.6-1.6c2.9-2.6,9.3-7.9,18.3-11.6
			c2.9-1.2,6.1-1.9,9.2-2c8.6-0.3,27.9-0.7,30.8,1.7c0,0,5.5,4.1,7.5,7.1C498.3,236.5,497.7,237.7,496.7,237.8z"/>
		<path class="st5" d="M494.9,236.9c-3.1,0.5-12.6,2.1-18.9,2c-0.3,0-0.6,0-0.6-0.4v-10c0-0.3,0.3-0.6,0.6-0.6h4
			c4.1,0,5.6,0.4,7,0.9c1.4,0.5,2.7,1.3,3.8,2.3c0.8,0.7,1.7,1.6,2.2,2.2l2.3,2.8C495.5,236.5,495.3,236.8,494.9,236.9z"/>
		<path class="st5" d="M466.1,228.9c0-0.6-0.4-1-1-1l0,0c-5.6,0-11.2,0.5-16.3,2.6l-1.7,0.7c-3.6,1.5-6.7,3.9-8.8,6.9l0,0
			c-0.7,1,0.1,2.3,1.4,2.3l25.5-0.9c0.6,0,1-0.4,1-1V228.9z"/>
		<path class="st23" d="M447.1,226.7l1.8,0.3c0,0-18.6,9.4-20.9,11.8l-3.1-0.2C424.9,238.7,445.2,227.2,447.1,226.7z"/>
		<g>
			<path class="st12" d="M475.9,227.9c-0.3,0-0.6,0.3-0.6,0.6v0.9l6.5,9.2c1.5-0.1,3-0.3,4.5-0.5l-7.3-10.3H475.9z"/>
			<path class="st12" d="M475.3,238.6c0,0.3,0.3,0.4,0.6,0.4c1.1,0,2.2,0,3.4-0.1l-4-5.7V238.6z"/>
			<path class="st12" d="M490.9,231.3c-0.1,0-0.1-0.1-0.2-0.1c-1.1-1-2.4-1.8-3.8-2.3c-0.4-0.1-0.7-0.2-1.1-0.4l6.3,8.9
				c1.1-0.2,2.1-0.3,2.7-0.4c0,0,0,0,0,0L490.9,231.3z"/>
			<path class="st24" d="M475.3,233.2l4,5.7c0.8,0,1.7-0.1,2.5-0.2l-6.5-9.2V233.2z"/>
			<path class="st24" d="M495.2,236.1l-2.3-2.8c-0.4-0.5-1.3-1.3-2-2.1l4,5.6C495.3,236.8,495.5,236.5,495.2,236.1z"/>
			<path class="st24" d="M480,227.9h-0.9l7.3,10.3c2.2-0.3,4.2-0.6,5.8-0.8l-6.3-8.9C484.6,228.1,483,227.9,480,227.9z"/>
		</g>
		<g>
			<path class="st12" d="M442.1,234.2l4.2,6l2.6-0.1l-5.1-7.2C443.2,233.4,442.6,233.8,442.1,234.2z"/>
			<path class="st12" d="M448.8,230.5l-0.3,0.1l6.6,9.3l3-0.1l-7.1-10.1C450.3,230,449.6,230.2,448.8,230.5z"/>
			<path class="st12" d="M438.3,238.2c-0.7,1,0.1,2.3,1.4,2.3l1.9-0.1l-2.4-3.4C438.9,237.4,438.6,237.8,438.3,238.2z"/>
			<path class="st12" d="M440.7,235.4l3.5,4.9l1.5-0.1l-4-5.7C441.3,234.8,441,235.1,440.7,235.4z"/>
			<path class="st12" d="M462.2,228c-3.4,0.1-6.8,0.5-10,1.4l7.3,10.4l5.7-0.2c0.6,0,1-0.4,1-1v-4.9L462.2,228z"/>
			<path class="st23" d="M439.2,237l2.4,3.4l2.6-0.1l-3.5-4.9C440.2,235.9,439.7,236.5,439.2,237z"/>
			<path class="st23" d="M451,229.7l7.1,10.1l1.3,0l-7.3-10.4C451.7,229.5,451.4,229.6,451,229.7z"/>
			<path class="st23" d="M441.6,234.6l4,5.7l0.6,0l-4.2-6C441.9,234.3,441.8,234.5,441.6,234.6z"/>
			<path class="st23" d="M447.1,231.3c-1.1,0.5-2.2,1.1-3.3,1.7l5.1,7.2l6.2-0.2l-6.6-9.3L447.1,231.3z"/>
			<path class="st23" d="M466.1,228.9c0-0.6-0.4-1-1-1c-1,0-2,0-3,0.1l4,5.6V228.9z"/>
		</g>
		<path class="st23" d="M397.9,248.5L397.9,248.5c0.7-1.4,1.9-2.6,3.4-3.3l4-2c0.8-0.4,1.8-0.5,2.7-0.2l0,0c0.3,0.1,0.4,0.3,0.4,0.6
			l0,0c0,1-0.5,1.9-1.3,2.4l-3.5,2.1c-0.5,0.3-1,0.5-1.5,0.6l-3.5,0.7C398.1,249.5,397.7,248.9,397.9,248.5z"/>
		<path class="st25" d="M466.1,261.2"/>
		<path class="st25" d="M466.1,242.8"/>
		<path class="st26" d="M466.8,244.4v16.8l-34.5,1.1c0,0,1.3-8.3-5.5-11.9"/>
		<path class="st26" d="M466.8,261.2h8.5c0,0,1.7-12.8,11.9-13.5"/>
		<path class="st21" d="M396,261.7c0,0,3.4,2.1,5,1.8c0.5-0.1,1-0.1,1.5,0l0.7,0.1c1.1,0.1,2,1.1,2,2.2l0,1c0,0-1.8,0.8-4.7-1.7
			C400.5,265,398.3,264.7,396,261.7z"/>
		<path class="st21" d="M406.6,242.8c-0.3,0.1-0.5,0.4-0.4,0.7c0.4,0.9,0.2,2.9-4.7,5.3c0,0,0.1,0.5,3.5-1.6c0,0,3.6-1,3.3-3.5
			C408.4,243.6,408.6,242.4,406.6,242.8z"/>
		<path class="st6" d="M441.8,238.6c0,1.5,0.3,2.8-1.6,2.8c-1.9,0-3.4-1.2-3.4-2.8c0-1.5,1.5-2.8,3.4-2.8
			C442.1,235.8,441.8,237.1,441.8,238.6z"/>
		<g>
			<circle class="st27" cx="417.9" cy="264.3" r="11.7"/>
			
				<ellipse transform="matrix(0.7071 -0.7071 0.7071 0.7071 -64.4556 372.9023)" class="st28" cx="417.9" cy="264.3" rx="8.6" ry="8.6"/>
			<circle class="st12" cx="417.9" cy="264.3" r="8.6"/>
			<g>
				<defs>
					<circle id="SVGID_7_" cx="417.9" cy="264.3" r="7.1"/>
				</defs>
				<use xlink:href="#SVGID_7_"  style="overflow:visible;fill:#CCCCCC;"/>
				<clipPath id="SVGID_8_">
					<use xlink:href="#SVGID_7_"  style="overflow:visible;"/>
				</clipPath>
				<path class="st29" d="M417.4,261.9l-1.5-3c-0.3-0.6-0.1-1.7,0.3-1.9c0.8-0.4,2-0.6,3.4,0.1c0.5,0.2,0.6,1.3,0.3,1.9l-1.5,3
					C418.1,262.4,417.7,262.4,417.4,261.9z"/>
				<path class="st29" d="M418.4,266.5l1.5,3c0.3,0.6,0.1,1.7-0.3,1.9c-0.8,0.4-2,0.6-3.4-0.1c-0.5-0.2-0.6-1.3-0.3-1.9l1.5-3
					C417.7,265.9,418.2,265.9,418.4,266.5z"/>
				<path class="st29" d="M420.2,263.7l3-1.5c0.6-0.3,1.7-0.1,1.9,0.3c0.4,0.8,0.6,2-0.1,3.4c-0.2,0.5-1.3,0.6-1.9,0.3l-3-1.5
					C419.7,264.5,419.7,264,420.2,263.7z"/>
				<path class="st29" d="M415.7,264.7l-3,1.5c-0.6,0.3-1.7,0.1-1.9-0.3c-0.4-0.8-0.6-2,0.1-3.4c0.2-0.5,1.3-0.6,1.9-0.3l3,1.5
					C416.2,264,416.2,264.5,415.7,264.7z"/>
				<circle class="st29" cx="413.6" cy="259.6" r="1.7"/>
				<circle class="st29" cx="422.7" cy="259.6" r="1.7"/>
				<circle class="st29" cx="413.4" cy="268.7" r="1.7"/>
				<circle class="st29" cx="422.4" cy="268.7" r="1.7"/>
			</g>
		</g>
		<g>
			<circle class="st27" cx="492.5" cy="264.3" r="11.7"/>
			<circle class="st28" cx="492.5" cy="264.3" r="8.6"/>
			<g>
				<defs>
					
						<ellipse id="SVGID_9_" transform="matrix(0.7071 -0.7071 0.7071 0.7071 -42.7072 425.671)" cx="492.5" cy="264.4" rx="7.1" ry="7.1"/>
				</defs>
				<use xlink:href="#SVGID_9_"  style="overflow:visible;fill:#CCCCCC;"/>
				<clipPath id="SVGID_10_">
					<use xlink:href="#SVGID_9_"  style="overflow:visible;"/>
				</clipPath>
				<path class="st30" d="M490.5,263.1l-3.2-1.1c-0.7-0.2-1.3-1.1-1.1-1.6c0.3-0.8,0.9-1.9,2.4-2.3c0.5-0.2,1.3,0.5,1.6,1.1l1,3.2
					C491.4,262.9,491,263.3,490.5,263.1z"/>
				<path class="st30" d="M494.4,265.6l3.2,1.1c0.7,0.2,1.3,1.1,1.1,1.6c-0.3,0.8-0.9,1.9-2.4,2.3c-0.5,0.2-1.3-0.5-1.6-1.1l-1-3.2
					C493.5,265.7,493.8,265.4,494.4,265.6z"/>
				<path class="st30" d="M493.7,262.4l1.1-3.2c0.2-0.7,1.1-1.3,1.6-1.1c0.8,0.3,1.9,0.9,2.3,2.4c0.2,0.5-0.5,1.3-1.1,1.6l-3.2,1
					C493.9,263.3,493.6,263,493.7,262.4z"/>
				<path class="st30" d="M491.2,266.3l-1.1,3.2c-0.2,0.7-1.1,1.3-1.6,1.1c-0.8-0.3-1.9-0.9-2.3-2.4c-0.2-0.5,0.5-1.3,1.1-1.6l3.2-1
					C491.1,265.4,491.4,265.8,491.2,266.3z"/>
				
					<ellipse transform="matrix(0.7071 -0.7071 0.7071 0.7071 -44.3998 421.1013)" class="st30" cx="486.1" cy="264.1" rx="1.7" ry="1.7"/>
				
					<ellipse transform="matrix(0.7071 -0.7071 0.7071 0.7071 -37.9774 423.7615)" class="st30" cx="492.5" cy="257.7" rx="1.7" ry="1.7"/>
				
					<ellipse transform="matrix(0.7071 -0.7071 0.7071 0.7071 -47.2196 427.485)" class="st30" cx="492.4" cy="270.7" rx="1.7" ry="1.7"/>
				
					<ellipse transform="matrix(0.7071 -0.7071 0.7071 0.7071 -40.7972 430.1452)" class="st30" cx="498.8" cy="264.3" rx="1.7" ry="1.7"/>
			</g>
		</g>
		<path class="st26" d="M424.9,240.5l-14.1,2.8c0,0-0.4,5.6-11.2,8c0,0-3.4,4.1,0,9.1"/>
		<line class="st26" x1="508.5" y1="250.7" x2="503.2" y2="251"/>
		<line class="st26" x1="505.2" y1="238" x2="499.9" y2="238.3"/>
		<path class="st26" d="M497.5,229.2c0,0-6-3.2-20.5-3.3"/>
	</g>
	<g class="st13">
		<path class="st21" d="M285.2,397h66.9c0,0,1-32.3-32.7-32C319.4,365,290.4,362.1,285.2,397z"/>
		<path class="st21" d="M352.1,403.4l130.1,2.4l29.3-34.4l27.5,34.4h1.9c1.8-0.1,3.2-1.6,3.1-3.4c-0.1-9.3-3.7-35.7-34-34.7
			c0,0-30.7-5.2-31,33.4l-126.8-1L352.1,403.4z"/>
		<path class="st31" d="M443.5,307.8l49.2,27c14.2,2.3,29.1,4.8,44.5,7.3c8.8,2.6,16.6,6.3,23.3,11.2c4.7,5.6,7.5,11.5,9.1,17.7
			c0.9,8.8,0.2,16.6-2.6,22.9c-3.1,4.4-7,7.3-11.7,8.6c-5,4.1-9.2,5.8-12.1,4.3l0.1-1.5c0.7-8.1-1-16.4-5.3-23.3
			c-6.1-9.8-15.5-14.6-28.1-14.5c-20.1,0.4-30.5,14.3-31,33.4c-0.1,4.5-126.8-1-126.8-1c-0.3-21.7-10.7-34-32.9-35
			c-19.8,0.3-30.4,11.9-34.2,32l-5.2,0.9c-0.4-5.6-1.6-10.5-5.6-13.4c-0.7-7.5-0.6-17.9,2.6-18.6c3.2-0.6,6.9-33.1,9.5-33.3
			c1.4-0.8,19.5-22,19.5-22c-1.6-1.8-2.1-3.5-0.9-5.2c25.1-5.2,50.9-7.7,77.4-6.9c8.3-0.1,16.4-0.2,24.2-0.2
			C419.5,298.3,432.2,301.5,443.5,307.8z"/>
		<path class="st21" d="M305,342.4c1,0,1.9,0.2,2.7,0.6c-0.5-0.1-1-0.2-1.6-0.2c-3.7,0-6.7,3-6.7,6.7c0,3.7,3,6.7,6.7,6.7
			c0.5,0,1.1-0.1,1.6-0.2c-0.8,0.4-1.8,0.6-2.7,0.6c-3.9,0-7-3.1-7-7C298,345.6,301.1,342.4,305,342.4z"/>
		<path class="st21" d="M307.9,332.6c16.3,2.3,77.9,10.3,165.3,11c2.2,0,3.2-2.6,1.6-4.1c-7.4-6.7-24-20.3-47-29.8
			c-7.6-3.1-15.6-4.9-23.8-5.2c-22.2-0.7-71.7-1.7-79.2,4.3c0,0-14.3,10.5-19.4,18.2C303.9,329.2,305.2,332.2,307.9,332.6z"/>
		<path class="st5" d="M312.7,330.3c8.1,1.4,32.4,5.3,48.7,5.2c0.9,0,1.6-0.1,1.6-1v-25.8c0-0.9-0.7-1.6-1.6-1.6H351
			c-10.5,0-14.4,1-18.1,2.3c-3.6,1.3-6.9,3.3-9.7,6c-2.1,1.9-4.4,4.2-5.6,5.7l-5.9,7.3C310.9,329.3,311.4,330,312.7,330.3z"/>
		<path class="st5" d="M386.5,309.7c0-1.4,1.2-2.6,2.6-2.6l0,0c14.5,0,28.8,1.3,41.9,6.8l4.5,1.9c9.3,3.9,17.1,10.1,22.6,17.9h0
			c1.8,2.5-0.2,5.8-3.6,5.8l-65.5-2.4c-1.4,0-2.6-1.2-2.6-2.6V309.7z"/>
		<path class="st23" d="M435.5,303.9l-4.7,0.9c0,0,47.8,24.2,53.8,30.5l8-0.5C492.7,334.8,440.5,305.2,435.5,303.9z"/>
		<g>
			<path class="st12" d="M332.9,309.4c-3.6,1.3-6.9,3.3-9.7,6c-0.1,0.1-0.3,0.2-0.4,0.4l-10.3,14.5c0,0,0.1,0,0.1,0
				c1.7,0.3,4.1,0.7,7,1.1l16.2-22.9C334.8,308.8,333.8,309.1,332.9,309.4z"/>
			<path class="st12" d="M363,308.7c0-0.9-0.7-1.6-1.6-1.6h-8.1l-18.7,26.4c3.8,0.5,7.7,0.9,11.6,1.2L363,311V308.7z"/>
			<path class="st12" d="M352.7,335.2c3,0.2,6,0.3,8.7,0.3c0.9,0,1.6-0.1,1.6-1v-13.8L352.7,335.2z"/>
			<path class="st24" d="M363,311l-16.8,23.8c2.2,0.2,4.4,0.4,6.5,0.5l10.3-14.5V311z"/>
			<path class="st24" d="M317.6,321l-5.9,7.3c-0.8,0.9-0.3,1.7,0.9,1.9l10.3-14.5C320.9,317.5,318.7,319.6,317.6,321z"/>
			<path class="st24" d="M351,307.1c-7.9,0-12,0.6-15.2,1.4l-16.2,22.9c4.2,0.7,9.4,1.4,15,2.1l18.7-26.4H351z"/>
		</g>
		<g>
			<path class="st12" d="M443.9,320.1l-13,18.4l6.7,0.2l10.9-15.4C447,322.2,445.5,321.1,443.9,320.1z"/>
			<path class="st12" d="M431,313.8c-1.8-0.8-3.7-1.4-5.6-2.1l-18.3,25.9l7.7,0.3l16.9-23.9L431,313.8z"/>
			<path class="st12" d="M449.6,324.3l-10.3,14.6l3.7,0.1l8.9-12.6C451.2,325.7,450.4,325,449.6,324.3z"/>
			<path class="st12" d="M396.8,307.2l-10.2,14.5v12.7c0,1.4,1.2,2.6,2.6,2.6l14.7,0.5l18.8-26.7
				C414.3,308.6,405.6,307.6,396.8,307.2z"/>
			<path class="st12" d="M458.2,333.6c-0.7-1-1.5-2-2.3-3l-6.1,8.7l4.9,0.2C457.9,339.4,459.9,336.1,458.2,333.6L458.2,333.6z"/>
			<path class="st23" d="M451.9,326.4L443,339l6.7,0.2l6.1-8.7C454.6,329.1,453.3,327.7,451.9,326.4z"/>
			<path class="st23" d="M422.6,310.9l-18.8,26.7l3.3,0.1l18.3-25.9C424.5,311.5,423.6,311.2,422.6,310.9z"/>
			<path class="st23" d="M448.5,323.4l-10.9,15.4l1.7,0.1l10.3-14.6C449.2,324,448.9,323.7,448.5,323.4z"/>
			<path class="st23" d="M435.5,315.7l-3.8-1.6L414.8,338l16.1,0.6l13-18.4C441.3,318.4,438.5,316.9,435.5,315.7z"/>
			<path class="st23" d="M389.1,307.1c-1.4,0-2.6,1.2-2.6,2.6v12.1l10.2-14.5C394.2,307.1,391.7,307.1,389.1,307.1z"/>
		</g>
		<path class="st23" d="M562,360L562,360c-1.9-3.7-5-6.7-8.7-8.5l-10.2-5.1c-2.2-1.1-4.7-1.3-7-0.6l0,0c-0.7,0.2-1.1,0.9-1.1,1.6
			l0,0c0,2.5,1.3,4.8,3.4,6l9,5.5c1.2,0.7,2.5,1.3,3.9,1.5l8.9,1.9C561.6,362.6,562.6,361.2,562,360z"/>
		<path class="st32" d="M386.5,392.8"/>
		<path class="st32" d="M386.5,345.4"/>
		<path class="st33" d="M384.8,349.4v43.3l88.8,2.8c0,0-3.2-21.4,14.3-30.6"/>
		<path class="st33" d="M384.8,392.8H363c0,0-4.4-32.9-30.6-34.8"/>
		<path class="st21" d="M567.1,394c0,0-8.7,5.4-12.8,4.6c-1.3-0.2-2.6-0.2-3.9-0.1l-1.8,0.2c-2.9,0.3-5.1,2.7-5.2,5.6l-0.1,2.6
			c0,0,4.6,2.1,12.1-4.3C555.4,402.6,561,401.7,567.1,394z"/>
		<path class="st34" d="M539.6,345.3c0.9,0.1,1.3,1.1,1,1.8c-1.1,2.4-0.5,7.5,12,13.5c0,0-0.2,1.3-9.1-4.2c0,0-9.3-2.6-8.4-9.1
			C535,347.4,534.5,344.5,539.6,345.3z"/>
		<path class="st31" d="M449.1,334.6c0,3.9-0.7,7.1,4.2,7.1s8.9-3.2,8.9-7.1s-4-7.1-8.9-7.1S449.1,330.7,449.1,334.6z"/>
		<g>
			<circle class="st27" cx="510.6" cy="400.6" r="30"/>
			
				<ellipse transform="matrix(0.7071 -0.7071 0.7071 0.7071 -133.7252 478.4085)" class="st28" cx="510.6" cy="400.6" rx="22.2" ry="22.2"/>
			<circle class="st12" cx="510.6" cy="400.6" r="22.2"/>
			<g>
				<defs>
					<circle id="SVGID_11_" cx="510.6" cy="400.6" r="18.3"/>
				</defs>
				<use xlink:href="#SVGID_11_"  style="overflow:visible;fill:#CCCCCC;"/>
				<clipPath id="SVGID_12_">
					<use xlink:href="#SVGID_11_"  style="overflow:visible;"/>
				</clipPath>
				<path class="st35" d="M511.9,394.6l3.8-7.8c0.8-1.7,0.4-4.3-0.8-4.9c-2-1-5.1-1.7-8.6,0.2c-1.2,0.6-1.6,3.3-0.7,4.9l3.9,7.7
					C510,396,511.2,396,511.9,394.6z"/>
				<path class="st35" d="M509.3,406.3l-3.8,7.8c-0.8,1.7-0.4,4.3,0.8,4.9c2,1,5.1,1.7,8.6-0.2c1.2-0.6,1.6-3.3,0.7-4.9l-3.9-7.7
					C511.1,404.9,510,404.9,509.3,406.3z"/>
				<path class="st35" d="M504.7,399.3l-7.8-3.8c-1.7-0.8-4.3-0.4-4.9,0.8c-1,2-1.7,5.1,0.2,8.6c0.6,1.2,3.3,1.6,4.9,0.7l7.7-3.9
					C506.1,401.1,506.1,400,504.7,399.3z"/>
				<path class="st35" d="M516.4,401.9l7.8,3.8c1.7,0.8,4.3,0.4,4.9-0.8c1-2,1.7-5.1-0.2-8.6c-0.6-1.2-3.3-1.6-4.9-0.7l-7.7,3.9
					C515,400,515,401.2,516.4,401.9z"/>
				<circle class="st35" cx="521.8" cy="388.6" r="4.4"/>
				<circle class="st35" cx="498.4" cy="388.6" r="4.4"/>
				<circle class="st35" cx="522.3" cy="412.1" r="4.4"/>
				<circle class="st35" cx="498.9" cy="412.1" r="4.4"/>
			</g>
		</g>
		<g>
			<circle class="st27" cx="318.8" cy="400.6" r="30"/>
			<circle class="st28" cx="318.8" cy="400.6" r="22.2"/>
			<g>
				<defs>
					
						<ellipse id="SVGID_13_" transform="matrix(0.7071 -0.7071 0.7071 0.7071 -190.157 342.8479)" cx="318.8" cy="401" rx="18.3" ry="18.3"/>
				</defs>
				<use xlink:href="#SVGID_13_"  style="overflow:visible;fill:#CCCCCC;"/>
				<clipPath id="SVGID_14_">
					<use xlink:href="#SVGID_13_"  style="overflow:visible;"/>
				</clipPath>
				<path class="st36" d="M323.9,397.6l8.2-2.8c1.8-0.6,3.3-2.8,2.9-4.1c-0.7-2.1-2.4-4.8-6.2-6c-1.3-0.4-3.4,1.2-4,2.9l-2.7,8.2
					C321.6,397.3,322.5,398.1,323.9,397.6z"/>
				<path class="st36" d="M313.9,404l-8.2,2.8c-1.8,0.6-3.3,2.8-2.9,4.1c0.7,2.1,2.4,4.8,6.2,6c1.3,0.4,3.4-1.2,4-2.9l2.7-8.2
					C316.1,404.4,315.3,403.6,313.9,404z"/>
				<path class="st36" d="M315.5,395.9l-2.8-8.2c-0.6-1.8-2.8-3.3-4.1-2.9c-2.1,0.7-4.8,2.4-6,6.2c-0.4,1.3,1.2,3.4,2.9,4l8.2,2.7
					C315.2,398.1,316,397.3,315.5,395.9z"/>
				<path class="st36" d="M322,405.9l2.8,8.2c0.6,1.8,2.8,3.3,4.1,2.9c2.1-0.7,4.8-2.4,6-6.2c0.4-1.3-1.2-3.4-2.9-4l-8.2-2.7
					C322.3,403.7,321.5,404.5,322,405.9z"/>
				
					<ellipse transform="matrix(0.7071 -0.7071 0.7071 0.7071 -184.9231 354.2403)" class="st36" cx="335.1" cy="400.3" rx="4.4" ry="4.4"/>
				
					<ellipse transform="matrix(0.7071 -0.7071 0.7071 0.7071 -178.079 337.7172)" class="st36" cx="318.6" cy="383.8" rx="4.4" ry="4.4"/>
				
					<ellipse transform="matrix(0.7071 -0.7071 0.7071 0.7071 -201.666 347.7568)" class="st36" cx="318.9" cy="417.3" rx="4.4" ry="4.4"/>
				
					<ellipse transform="matrix(0.7071 -0.7071 0.7071 0.7071 -194.8219 331.2338)" class="st36" cx="302.4" cy="400.8" rx="4.4" ry="4.4"/>
			</g>
		</g>
		<path class="st33" d="M492.7,339.4l36.2,7.3c0,0,1,14.3,28.9,20.6c0,0,8.8,10.5,0,23.5"/>
		<line class="st33" x1="277.5" y1="365.7" x2="291.1" y2="366.5"/>
		<line class="st33" x1="285.9" y1="333.1" x2="299.5" y2="333.9"/>
		<path class="st33" d="M306,310.5c0,0,15.4-8.2,52.6-8.5"/>
		<path class="st37" d="M394.4,278.6c-6.5-8.8-13.4-17-19-25.9c-7.3-11.5-5.5-24,3.8-32.4c6.7-6,14.5-7.6,23-4.6
			c8.6,3,13.7,9.4,15.5,18.3c1.4,6.6-0.4,12.8-3.8,18.5c-1.7,2.9-3.7,5.7-5.7,8.4C403.8,266.7,399.2,272.4,394.4,278.6z
			 M380.5,237.8c0,7.8,6.1,14.1,14,14.1c7.8,0,14.2-6.2,14.2-13.9c0-7.9-6.4-14.4-14.1-14.3C386.8,223.7,380.5,230,380.5,237.8z"/>
	</g>
	<g class="st13">
		<path class="st38" d="M130.3,334.8c0,0,31,12.7,42.9,56.1c11.9,43.3,17,56.5,17.8,67.1c0.9,10.6,1.7,17.4,5.1,26.3
			c3.4,8.9,8.5,19.1,7.2,22.5c-1.3,3.4-34,28.5-89.6,31c0,0-6.4-2.1-6.4-8.9S104,497.5,101,489c-3-8.5-25.1-87.9-25.9-112.2
			C74.2,352.7,93.8,325.5,130.3,334.8L130.3,334.8z"/>
		<path class="st39" d="M84.1,290.6c0,0-5.5,35.4,0.5,52.7c5.9,17.2-22.3,24.2-39.8,21.9c-17.5-2.3-46.7-7.5-47.3-29
			c-0.6-21.5,14.7-19.8,19.1-77.6C20.1,213.5,94.3,246.9,84.1,290.6L84.1,290.6z"/>
		<path class="st40" d="M82.8,336.4c-3-18.3,1.2-45.7,1.2-45.7c8.1-34.7-37.1-62.9-57.7-50.4c-1.4,4.9-2.4,10.5-3,16.9
			C23,260.4,47.8,326.4,82.8,336.4L82.8,336.4z"/>
		<path class="st38" d="M1.3,319.2c0,0,30.9,40.3,67.4,30.9c7.7-2.7,13.5-8.7,13.2-24.1c0-1.7-0.2-3.6-0.1-5.6
			c0,0,15.4,0.4,39.1,9.4c23.8,8.9,34.4,31.9,36.9,41.6c2.6,9.8,7.7,38.2,8.5,53.1c0.9,14.9,2.6,32.3,1.7,44.6
			c-0.9,12.3,4.2,27.6,4.2,39.5c0,11.9-0.9,34.8,1.3,44.6c2.1,9.8,8.1,33.1,8.1,49.7c0,16.6,4.7,36.5,8.5,44.6
			c0.9,8.9-19.5,38.7-37.8,48.4s-61.2,4.2-112.6,44.6c-51.4,40.4-103.2,24.2-104.1,21.7c-0.9-2.6,3.8-37.8,2.1-50.1
			c-1.7-12.3-7.2-43.3-5.1-65.8c2.1-22.5,3-93,0.4-127.9c-2.6-34.8-42.7-111.1-7.4-168.9c7.3-12.1,41.3-29.9,75.5-30.3L1.3,319.2z"
			/>
		<path class="st41" d="M190.2,647.5c-0.5-1-1-2.3-1.5-3.7c-6.9,2.3-18.7,5.4-29.1,4.1c-15.9-1.9-47.2-7.7-67.6-24.9
			c-20.4-17.2-84.8-36.3-84.8-36.3s-1.9-11.5-1.9-15.3s11.5-3.2,17.2-4.5c5.7-1.3,2.6-12.7-1.3-27.4c-3.8-14.6-1.3-33.1-3.8-80.9
			c-2.6-47.8-17.2-73.3-17.2-73.3s-47.7-4.7-88.7,11.4c-2.9,47,19.7,95.7,21.6,121.6c2.6,34.8,1.7,105.4-0.4,127.9
			c-2.1,22.5,3.4,53.5,5.1,65.8c1.7,12.3-3,47.6-2.1,50.1c0.7,2.2,38.4,14.2,81.4-7.2c-15.6,0.2-36.3-0.5-43.6-5.1
			c-12.1-7.7-5.7-26.8-4.5-44c1.3-17.2-2.6-30.6,5.7-27.4c8.3,3.2,85.4,12.7,94.3,21.7c4.4,4.4,7.4,11.2,9.3,16.9
			c33.7-15,60.5-13.9,73.9-21.1c18.3-9.8,38.7-39.5,37.8-48.4L190.2,647.5z"/>
		<path class="st41" d="M49.6,363.4c0,0-0.1,0-0.2,0c-29.9-3.8-49.8-26.7-50.6-27.7c-0.5-0.6-0.4-1.5,0.1-2c0.6-0.5,1.5-0.4,2,0.1
			c0.2,0.2,20,23,48.8,26.7c0.8,0.1,1.3,0.8,1.2,1.6C50.8,362.9,50.2,363.5,49.6,363.4L49.6,363.4z"/>
		<path class="st41" d="M61.4,363.9c-0.7,0-1.4-0.6-1.4-1.3c-0.1-0.8,0.5-1.5,1.3-1.5c0.2,0,13.6-1.3,20.7-10c3.5-4.3,5-9.7,4.3-16
			c-0.1-0.8,0.5-1.5,1.3-1.6c0.8-0.1,1.5,0.5,1.6,1.3c0.7,7.2-0.9,13.3-5,18.2c-7.9,9.6-22.1,10.9-22.7,11
			C61.5,364,61.5,364,61.4,363.9L61.4,363.9z"/>
		<path class="st42" d="M156,181.3c0,0,0.2,26.2-13.1,54.2l-5.1-58.9L156,181.3L156,181.3z"/>
		<path class="st39" d="M98.7,119.5c0,0,52.3,13.8,51.3,62.6c-0.9,48.8-23.5,132.8-56,135.9c-29.8,2.8-67.2-34.9-79.5-67.7
			c-13-34.5-11.9-75,5.3-102.3C34.9,124.1,57.6,108.9,98.7,119.5L98.7,119.5z"/>
		<path class="st40" d="M92.5,249c0,0-1.3-6.4-15.6-9.2c-11.6-2.3-20.6-2.4-22.1,4.7C51.9,253.7,95.4,264.7,92.5,249z"/>
		<path class="st40" d="M116.4,258c-0.3,4.6,9.5,8.3,16.9,10.6c1.9-5.3,3.7-10.8,5.4-16.5C128.9,250.6,117.3,250.1,116.4,258
			L116.4,258z"/>
		<path class="st43" d="M93.9,226.8c0.9-4.2-0.9-8.1-4-8.8c-3.1-0.7-6.4,2.1-7.3,6.3c-0.9,4.2,0.9,8.1,4,8.8
			C89.7,233.8,93,230.9,93.9,226.8z"/>
		<path class="st43" d="M122.6,232c-0.9,4,0.9,7.8,3.8,8.5c3,0.6,6.2-2.1,7.1-6.1c0.9-4-0.9-7.8-3.8-8.5
			C126.6,225.2,123.5,227.9,122.6,232z"/>
		<path class="st44" d="M92.3,282.4c-8.5-1.9-17.6-8-17.1-8.8c0.5-0.9,1.6-1.2,2.5-0.7c0.1,0,9.1,5.1,18.2,6.5
			c11.2,1.7,19.6,0,19.7,0c1-0.2,2,0.4,2.2,1.4c0.2,1-0.4,2-1.4,2.2c-0.4,0.1-9.1,1.9-21,0C94.4,282.7,93.3,282.5,92.3,282.4
			L92.3,282.4z"/>
		<path class="st44" d="M101.4,265c-1.3-0.3-2.2-0.6-2.4-0.6c-1-0.3-1.5-1.3-1.2-2.3c0.3-1,1.3-1.5,2.3-1.2c2.3,0.7,6.8,1.6,8.8,1.2
			c0.1,0,0.1,0,0.2-0.1c0.1-0.5-0.1-2.1-0.3-3.6l-0.1-0.5c-3.4-23.4,0-32.1,0.1-32.5c0.4-0.9,1.4-1.4,2.4-1c0.9,0.4,1.4,1.4,1,2.4
			c-0.1,0.1-3.1,8.5,0.1,30.6l0.1,0.5c0.5,3.7,1,6.8-2.7,7.7C107.2,266.1,103.7,265.5,101.4,265L101.4,265z"/>
		<path class="st42" d="M97.4,192.8c0,0,2.5-1.1,3.1,0.6c0.6,1.7,1.5,5.6,0.6,6.4c-0.9,0.8-14.3,5.1-19.3,7
			c-5.1,1.9-12.7,6.1-13.3,5.6c-0.6-0.5,1.4-4.7,6.7-8.3C79.7,201,90.6,194.7,97.4,192.8L97.4,192.8z"/>
		<path class="st42" d="M140.5,225.1c0,0,0.7,2.5,2.3,2.2c2.1-0.4,2.6-9.5-2.6-23.4c-1.7-4-6.5-2-8.4-0.3
			C129.9,205.2,135.8,210,140.5,225.1z"/>
		<path class="st40" d="M90.3,300.7c-2.5-0.6-4.2-1.3-4.4-1.3c-0.9-0.4-1.4-1.4-1-2.4c0.4-0.9,1.4-1.4,2.4-1c0.1,0,6.8,2.7,11.5,1.4
			c1-0.3,2,0.3,2.2,1.3c0.3,1-0.3,2-1.3,2.2C96.6,301.8,93,301.4,90.3,300.7L90.3,300.7z"/>
		<path class="st42" d="M67.3,159c0,0-3.8,6.8-5.5,14.7c-1.6,8-6.5,21.9-17,31.8C34.4,215.3,32,220,27.1,232.1
			c-5,12.2-11.4,46.4-13,48.5c-1.6,2-11.3-11.8-13.5-30.3C-1.6,232-7,196.1-1.8,165.1c5.1-30.9,39.7-56.3,69.4-53.5
			c0,0,30.1-6.9,54.5,9.5c24.4,16.4,40.8,53.6,40.4,64.2c0,0-15.2,1.5-28.3-5.1l1,3.8c0,0-9.4-1.5-17.3-8.5c0,0-14.5,2.4-26.3-1.4
			C91.6,174.2,73.7,173.5,67.3,159L67.3,159z"/>
		<path class="st39" d="M40,224.5c0,0,4.9-24.8-9.9-28c-14.7-3.2-18.9,17.6-12.1,33C21.9,238.1,34.8,250.6,40,224.5z"/>
		<path class="st44" d="M25.4,213c2.9,0.8,4.9,2.8,6.1,4.7c0.2-2.9-0.5-5.9-2.8-8.2c-0.6-0.6-0.6-1.5,0-2.2c0.6-0.6,1.5-0.6,2.2,0
			c8.4,8,0.4,21.9,0,22.5c-0.4,0.7-1.4,1-2.1,0.5c0,0,0,0,0,0c-0.7-0.4-0.9-1.3-0.5-2.1c0,0,1.4-2.4,2.4-5.6c0,0,0-0.1,0-0.1
			c0-0.1-1.7-5.6-5.9-6.7c-0.8-0.2-1.3-1-1.1-1.8C23.8,213.3,24.6,212.8,25.4,213L25.4,213z"/>
		<path class="st38" d="M-46.5,333.6c0,0-28.9,3.8-37.8,34.8c-6.9,24-6.8,57.8-9.4,76c-2.6,18.3-3,34.4-3,45.5c0,11,3.8,35.3,3,43.7
			c-0.9,8.5-3.8,20.4-2.6,24.6c1.3,4.2,63.7,21.2,105.8-4.7c2.6-6.4-1.3-37.8-0.9-48.9c0.4-11,4.2-91.3,1.7-116.4
			C7.9,363.3-15.1,329.3-46.5,333.6L-46.5,333.6z"/>
		<path class="st2" d="M75.2,273.5c0,0,3.6,19.2,21.3,21.2c0,0,16.1,2,21.2-14C117.7,280.7,94.5,288.1,75.2,273.5z"/>
	</g>
	<g class="st13">
		<path class="st45" d="M75.8,549.7c-1.2,2.2-2.1,4.6-2.6,7.1c-2.8,13.9,6.2,27.4,20.1,30.2c11.9,2.4,23.5-3.9,28.3-14.5
			c0.1-0.2,0.2-0.4,0.2-0.5c0-0.1,0.1-0.2,0.1-0.2c8.9-20.7,68.7-174.2,68.7-174.2c0.5-1,0.9-2.1,1.1-3.3c1.4-7.1-3.2-14-10.3-15.5
			c-6.4-1.3-12.7,2.4-14.9,8.4C144.4,426.6,79.5,543.1,76,549.4C75.9,549.5,75.9,549.6,75.8,549.7C75.8,549.7,75.8,549.7,75.8,549.7
			L75.8,549.7z"/>
		<path class="st46" d="M169,397.4l88.2-91.7c0,0-3.5-3.1-5.3-4.1L219,282.8c-1.3-0.8-3-0.5-4,0.6l-83.7,90.8
			c-1.4,1.5-1.1,5.1,5.3,8.6l28.4,15.2C166.3,398.8,168,398.6,169,397.4z"/>
		<path class="st47" d="M173.7,401.2l83.7-90.8c1.4-1.6,1.1-4-0.8-5.1l-32.9-18.8c-1.3-0.8-3-0.5-4,0.6l-83.7,90.8
			c-1.4,1.6-1.1,4,0.8,5.1l32.9,18.8C171,402.6,172.7,402.3,173.7,401.2z"/>
		<path class="st45" d="M161.3,390.6c-3,11.2-8.5,21.7-8.5,21.7l29.4,6.4c0,0,7.8-13.1,14.9-21.5c7.1-8.4,20-18.5,23-22.2
			c2.4-2.9,6.1-17.9,6.1-17.9c0.9-3.7,3.2-24.8,3.2-24.8s-4.8-0.6-6.5,6.4c-0.4,1.5-0.7,3-1.1,4.5c0.2-3.3,0.2-17.1-0.2-17.9
			c-0.4-0.8-5.4,1.5-6.9,8.6l0.4-8.8c0,0-5.6-0.7-7.5,7.5c-1.9,8.2-3.9,16.6-4.7,19.2c-0.9,2.6-11.8,18.5-12.9,19.2
			c-1.1,0.6,2.6-18.9,2.8-21.9c0.2-3-1.5-14.4-1.9-15.3c-0.4-0.9-4.1,1.5-4.3,8.4c-0.2,6.9-0.2,11-0.9,12.5
			c-0.6,1.5-6.7,11.7-10.3,17.5C171.8,377.9,164.3,379.5,161.3,390.6L161.3,390.6z"/>
		<path class="st48" d="M209.8,373.6c6.3-7.9,9.7-20.1,12.1-30.4C220.2,353.4,217.6,369,209.8,373.6z"/>
		<path class="st48" d="M214.7,334c0-0.1,0.2-0.1,0.2,0c-0.2,2.7-0.5,8.1-0.6,10.8c0,0.1-2.1,6.7-2.1,6.8
			c-1.8,6.7-4.4,14.3-10.1,18.6c5.1-7.8,8.2-16.8,11.3-25.6v0.1C213.7,342,214.4,336.6,214.7,334L214.7,334z"/>
	</g>
</g>
<g>
	<path class="st21" d="M295,250.7H273c0,0-0.3-10.7,10.8-10.6C283.8,240.2,293.3,239.2,295,250.7z"/>
	<path class="st21" d="M273,252.8l-42.9,0.8l-9.7-11.3l-9.1,11.3h-0.6c-0.6,0-1-0.5-1-1.1c0-3.1,1.2-11.8,11.2-11.5
		c0,0,10.1-1.7,10.2,11l41.8-0.3L273,252.8z"/>
	<path class="st49" d="M242.8,221.3l-16.2,8.9c-4.7,0.8-9.6,1.6-14.7,2.4c-2.9,0.8-5.5,2.1-7.7,3.7c-1.6,1.8-2.5,3.8-3,5.8
		c-0.3,2.9-0.1,5.5,0.9,7.6c1,1.5,2.3,2.4,3.9,2.9c1.7,1.3,3,1.9,4,1.4l0-0.5c-0.2-2.7,0.3-5.4,1.8-7.7c2-3.2,5.1-4.8,9.3-4.8
		c6.6,0.1,10.1,4.7,10.2,11c0,1.5,41.8-0.3,41.8-0.3c0.1-7.2,3.5-11.2,10.8-11.6c6.5,0.1,10,3.9,11.3,10.6l1.7,0.3
		c0.1-1.8,0.5-3.5,1.9-4.4c0.2-2.5,0.2-5.9-0.9-6.1c-1.1-0.2-2.3-10.9-3.1-11c-0.5-0.3-6.4-7.3-6.4-7.3c0.5-0.6,0.7-1.2,0.3-1.7
		c-8.3-1.7-16.8-2.6-25.5-2.3c-2.7,0-5.4-0.1-8-0.1C250.7,218.2,246.5,219.3,242.8,221.3z"/>
	<path class="st21" d="M288.5,232.7c-0.3,0-0.6,0.1-0.9,0.2c0.2,0,0.3-0.1,0.5-0.1c1.2,0,2.2,1,2.2,2.2c0,1.2-1,2.2-2.2,2.2
		c-0.2,0-0.4,0-0.5-0.1c0.3,0.1,0.6,0.2,0.9,0.2c1.3,0,2.3-1,2.3-2.3S289.8,232.7,288.5,232.7z"/>
	<path class="st21" d="M287.6,229.5c-5.4,0.8-25.7,3.4-54.5,3.6c-0.7,0-1.1-0.9-0.5-1.4c2.4-2.2,7.9-6.7,15.5-9.8
		c2.5-1,5.2-1.6,7.8-1.7c7.3-0.2,23.7-0.6,26.1,1.4c0,0,4.7,3.5,6.4,6C288.9,228.4,288.4,229.4,287.6,229.5z"/>
	<path class="st5" d="M286,228.7c-2.7,0.5-10.7,1.8-16.1,1.7c-0.3,0-0.5,0-0.5-0.3v-8.5c0-0.3,0.2-0.5,0.5-0.5h3.4
		c3.5,0,4.8,0.3,6,0.8c1.2,0.4,2.3,1.1,3.2,2c0.7,0.6,1.5,1.4,1.8,1.9l2,2.4C286.6,228.4,286.4,228.7,286,228.7z"/>
	<path class="st5" d="M261.6,221.9c0-0.5-0.4-0.9-0.9-0.9h0c-4.8,0-9.5,0.4-13.8,2.2l-1.5,0.6c-3.1,1.3-5.7,3.3-7.5,5.9l0,0
		c-0.6,0.8,0.1,1.9,1.2,1.9l21.6-0.8c0.5,0,0.9-0.4,0.9-0.9V221.9z"/>
	<path class="st23" d="M245.4,220l1.5,0.3c0,0-15.8,8-17.8,10.1l-2.6-0.2C226.6,230.2,243.8,220.5,245.4,220z"/>
	<g>
		<path class="st12" d="M269.4,230.1c0,0.3,0.2,0.3,0.5,0.3c0.9,0,1.9,0,2.9-0.1l-3.4-4.8V230.1z"/>
		<path class="st12" d="M269.9,221.1c-0.3,0-0.5,0.2-0.5,0.5v0.8l5.5,7.8c1.3-0.1,2.6-0.3,3.8-0.4l-6.2-8.7H269.9z"/>
		<path class="st12" d="M282.6,223.9c0,0-0.1-0.1-0.1-0.1c-0.9-0.9-2-1.5-3.2-2c-0.3-0.1-0.6-0.2-1-0.3l5.3,7.6
			c0.9-0.1,1.7-0.3,2.3-0.4c0,0,0,0,0,0L282.6,223.9z"/>
		<path class="st24" d="M269.4,225.6l3.4,4.8c0.7,0,1.4-0.1,2.2-0.2l-5.5-7.8V225.6z"/>
		<path class="st24" d="M286.3,228.1l-2-2.4c-0.4-0.5-1.1-1.1-1.7-1.7l3.4,4.8C286.4,228.6,286.5,228.4,286.3,228.1z"/>
		<path class="st24" d="M273.3,221.1h-0.8l6.2,8.7c1.8-0.2,3.6-0.5,4.9-0.7l-5.3-7.6C277.3,221.3,275.9,221.1,273.3,221.1z"/>
	</g>
	<g>
		<path class="st12" d="M241.2,226.5l3.6,5.1l2.2-0.1l-4.3-6.1C242.2,225.7,241.6,226.1,241.2,226.5z"/>
		<path class="st12" d="M240,227.5l2.9,4.2l1.2,0l-3.4-4.8C240.5,227,240.3,227.2,240,227.5z"/>
		<path class="st12" d="M246.9,223.3l-0.2,0.1l5.6,7.9l2.5-0.1l-6-8.5C248.1,222.8,247.5,223.1,246.9,223.3z"/>
		<path class="st12" d="M238,229.8c-0.6,0.8,0.1,1.9,1.2,1.9l1.6-0.1l-2-2.9C238.5,229.1,238.2,229.5,238,229.8z"/>
		<path class="st12" d="M258.2,221.1c-2.9,0.1-5.8,0.4-8.5,1.2l6.2,8.8l4.8-0.2c0.5,0,0.9-0.4,0.9-0.9v-4.2L258.2,221.1z"/>
		<path class="st23" d="M238.7,228.8l2,2.9l2.2-0.1l-2.9-4.2C239.6,227.9,239.1,228.3,238.7,228.8z"/>
		<path class="st23" d="M248.8,222.6l6,8.5l1.1,0l-6.2-8.8C249.4,222.4,249.1,222.5,248.8,222.6z"/>
		<path class="st23" d="M240.8,226.8l3.4,4.8l0.6,0l-3.6-5.1C241,226.6,240.9,226.7,240.8,226.8z"/>
		<path class="st23" d="M245.4,223.9c-1,0.4-1.9,0.9-2.8,1.5l4.3,6.1l5.3-0.2l-5.6-7.9L245.4,223.9z"/>
		<path class="st23" d="M261.6,221.9c0-0.5-0.4-0.9-0.9-0.9c-0.8,0-1.7,0-2.5,0.1l3.4,4.8V221.9z"/>
	</g>
	<path class="st23" d="M203.7,238.5L203.7,238.5c0.6-1.2,1.6-2.2,2.9-2.8l3.4-1.7c0.7-0.4,1.5-0.4,2.3-0.2l0,0
		c0.2,0.1,0.4,0.3,0.4,0.5l0,0c0,0.8-0.4,1.6-1.1,2l-3,1.8c-0.4,0.2-0.8,0.4-1.3,0.5l-2.9,0.6C203.9,239.4,203.5,238.9,203.7,238.5z
		"/>
	<path class="st50" d="M261.6,249.4"/>
	<path class="st50" d="M261.6,233.7"/>
	<path class="st51" d="M262.2,235.1v14.3l-29.3,0.9c0,0,1.1-7.1-4.7-10.1"/>
	<path class="st51" d="M218.2,249.4h7.2c0,0,1.5-10.9,10.1-11.5"/>
	<path class="st21" d="M202,249.7c0,0,2.9,1.8,4.2,1.5c0.4-0.1,0.9-0.1,1.3,0l0.6,0.1c1,0.1,1.7,0.9,1.7,1.9l0,0.9
		c0,0-1.5,0.7-4-1.4C205.9,252.6,204,252.3,202,249.7z"/>
	<path class="st21" d="M211.1,233.7c-0.3,0-0.4,0.3-0.3,0.6c0.4,0.8,0.1,2.5-3.9,4.5c0,0,0.1,0.4,3-1.4c0,0,3.1-0.9,2.8-3
		C212.6,234.4,212.8,233.4,211.1,233.7z"/>
	<path class="st49" d="M241,230.2c0,1.3,0.2,2.3-1.4,2.3c-1.6,0-2.9-1-2.9-2.3s1.3-2.3,2.9-2.3C241.2,227.8,241,228.9,241,230.2z"/>
	<g>
		<circle class="st27" cx="220.7" cy="251.9" r="9.9"/>
		
			<ellipse transform="matrix(0.7071 -0.7071 0.7071 0.7071 -113.5172 229.8241)" class="st28" cx="220.7" cy="251.9" rx="7.3" ry="7.3"/>
		<circle class="st12" cx="220.7" cy="251.9" r="7.3"/>
		<g>
			<defs>
				<circle id="SVGID_15_" cx="220.7" cy="251.9" r="6"/>
			</defs>
			<use xlink:href="#SVGID_15_"  style="overflow:visible;fill:#CCCCCC;"/>
			<clipPath id="SVGID_16_">
				<use xlink:href="#SVGID_15_"  style="overflow:visible;"/>
			</clipPath>
			<path class="st52" d="M220.3,250l-1.3-2.6c-0.3-0.5-0.1-1.4,0.3-1.6c0.7-0.3,1.7-0.5,2.8,0c0.4,0.2,0.5,1.1,0.2,1.6l-1.3,2.5
				C220.9,250.4,220.5,250.4,220.3,250z"/>
			<path class="st52" d="M221.1,253.8l1.3,2.6c0.3,0.5,0.1,1.4-0.3,1.6c-0.7,0.3-1.7,0.5-2.8,0c-0.4-0.2-0.5-1.1-0.2-1.6l1.3-2.5
				C220.5,253.4,220.9,253.4,221.1,253.8z"/>
			<path class="st52" d="M222.6,251.5l2.6-1.3c0.5-0.3,1.4-0.1,1.6,0.3c0.3,0.7,0.5,1.7,0,2.8c-0.2,0.4-1.1,0.5-1.6,0.2l-2.5-1.3
				C222.2,252.1,222.2,251.7,222.6,251.5z"/>
			<path class="st52" d="M218.8,252.3l-2.6,1.3c-0.5,0.3-1.4,0.1-1.6-0.3c-0.3-0.7-0.5-1.7,0-2.8c0.2-0.4,1.1-0.5,1.6-0.2l2.5,1.3
				C219.2,251.7,219.2,252.1,218.8,252.3z"/>
			<circle class="st52" cx="217" cy="248" r="1.5"/>
			<circle class="st52" cx="224.7" cy="248" r="1.5"/>
			<circle class="st52" cx="216.8" cy="255.7" r="1.5"/>
			<circle class="st52" cx="224.5" cy="255.7" r="1.5"/>
		</g>
	</g>
	<g>
		<circle class="st27" cx="284" cy="251.9" r="9.9"/>
		<circle class="st28" cx="284" cy="251.9" r="7.3"/>
		<g>
			<defs>
				
					<ellipse id="SVGID_17_" transform="matrix(0.7071 -0.7071 0.7071 0.7071 -95.0582 274.6118)" cx="284" cy="252.1" rx="6" ry="6"/>
			</defs>
			<use xlink:href="#SVGID_17_"  style="overflow:visible;fill:#CCCCCC;"/>
			<clipPath id="SVGID_18_">
				<use xlink:href="#SVGID_17_"  style="overflow:visible;"/>
			</clipPath>
			<path class="st53" d="M282.3,250.9l-2.7-0.9c-0.6-0.2-1.1-0.9-0.9-1.3c0.2-0.7,0.8-1.6,2-2c0.4-0.1,1.1,0.4,1.3,1l0.9,2.7
				C283,250.8,282.7,251.1,282.3,250.9z"/>
			<path class="st53" d="M285.6,253.1l2.7,0.9c0.6,0.2,1.1,0.9,0.9,1.3c-0.2,0.7-0.8,1.6-2,2c-0.4,0.1-1.1-0.4-1.3-1l-0.9-2.7
				C284.8,253.2,285.1,252.9,285.6,253.1z"/>
			<path class="st53" d="M285,250.4l0.9-2.7c0.2-0.6,0.9-1.1,1.3-0.9c0.7,0.2,1.6,0.8,2,2c0.1,0.4-0.4,1.1-1,1.3l-2.7,0.9
				C285.1,251.1,284.9,250.8,285,250.4z"/>
			<path class="st53" d="M282.9,253.7l-0.9,2.7c-0.2,0.6-0.9,1.1-1.3,0.9c-0.7-0.2-1.6-0.8-2-2c-0.1-0.4,0.4-1.1,1-1.3l2.7-0.9
				C282.8,252.9,283.1,253.2,282.9,253.7z"/>
			
				<ellipse transform="matrix(0.7071 -0.7071 0.7071 0.7071 -96.4948 270.7332)" class="st53" cx="278.6" cy="251.8" rx="1.5" ry="1.5"/>
			
				<ellipse transform="matrix(0.7071 -0.7071 0.7071 0.7071 -91.0437 272.9911)" class="st53" cx="284" cy="246.4" rx="1.5" ry="1.5"/>
			
				<ellipse transform="matrix(0.7071 -0.7071 0.7071 0.7071 -98.8881 276.1514)" class="st53" cx="283.9" cy="257.4" rx="1.5" ry="1.5"/>
			
				<ellipse transform="matrix(0.7071 -0.7071 0.7071 0.7071 -93.437 278.4093)" class="st53" cx="289.4" cy="252" rx="1.5" ry="1.5"/>
		</g>
	</g>
	<path class="st51" d="M226.6,231.8l-12,2.4c0,0-0.3,4.7-9.5,6.8c0,0-2.9,3.5,0,7.7"/>
	<line class="st51" x1="297.6" y1="240.4" x2="293.1" y2="240.7"/>
	<line class="st51" x1="294.8" y1="229.7" x2="290.3" y2="229.9"/>
	<path class="st51" d="M288.2,222.2c0,0-5.1-2.7-17.4-2.8"/>
	<path class="st37" d="M254.9,206.1c-0.7-0.9-1.3-1.8-1.8-2.7c-1.1-1.8-1.6-3.8-1.2-6c0.6-2.9,2.2-4.9,5-5.9c2.7-1,5.3-0.5,7.4,1.5
		c3,2.7,3.6,6.7,1.2,10.4c-1.8,2.9-4,5.5-6.1,8.3C257.8,209.8,256.3,207.9,254.9,206.1z M259.3,194.1c-2.5,0-4.6,2.1-4.6,4.6
		c0,2.5,2.1,4.5,4.6,4.5c2.5,0,4.5-2,4.5-4.6C263.8,196.1,261.8,194.1,259.3,194.1z"/>
	<path class="st37" d="M457.5,206.1c-0.7-0.9-1.3-1.8-1.8-2.7c-1.1-1.8-1.6-3.8-1.2-6c0.6-2.9,2.2-4.9,5-5.9c2.7-1,5.3-0.5,7.4,1.5
		c3,2.7,3.6,6.7,1.2,10.4c-1.8,2.9-4,5.5-6.1,8.3C460.4,209.8,459,207.9,457.5,206.1z M462,194.1c-2.5,0-4.6,2.1-4.6,4.6
		c0,2.5,2.1,4.5,4.6,4.5c2.5,0,4.5-2,4.5-4.6C466.5,196.1,464.4,194.1,462,194.1z"/>
</g>
<path class="st1" d="M342.6,154.5c0-0.4,2.2-0.5,2.9-1.1c3.3-2.9,7.1-4.3,11.5-4.2c2.1,0,4.2-1.3,5.8-2.7c7.9-6.8,11.8-3.4,16.8,1.4
	c3.2,3.1,6.3,3.3,10,1.9c4.8-1.9,6.5-1.6,10,2.2c1.6,1.7,3.7,2.2,5.8,2.5c1.5,0.2,2.9,0.6,4.2,1.1c0,0.3,0,0.6,0,0.9
	c-22.8,0-45.7,0-68.5,0C340.7,155.6,342.3,155.2,342.6,154.5z"/>
<path class="st1" d="M84.5,71.6c0-0.3,1.7-0.4,2.2-0.8c2.6-2.2,5.4-3.3,8.8-3.2c1.6,0,3.2-1,4.4-2.1c6-5.2,9-2.6,12.8,1
	c2.5,2.4,4.8,2.5,7.6,1.4c3.7-1.4,4.9-1.2,7.6,1.7c1.2,1.3,2.8,1.7,4.4,1.9c1.1,0.2,2.2,0.4,3.2,0.9c0,0.2,0,0.5,0,0.7
	c-17.5,0-34.9,0-52.4,0C83,72.5,84.2,72.1,84.5,71.6z"/>
</svg>
