<?xml version="1.0" encoding="utf-8"?>
<!-- Generator: Adobe Illustrator 21.0.0, SVG Export Plug-In . SVG Version: 6.00 Build 0)  -->
<svg version="1.1" id="Layer_1" xmlns="http://www.w3.org/2000/svg" xmlns:xlink="http://www.w3.org/1999/xlink" x="0px" y="0px"
	 viewBox="0 0 539.9 404.8" style="enable-background:new 0 0 539.9 404.8;" xml:space="preserve">
<style type="text/css">
	.st0{fill:#7D9CDB;}
	.st1{clip-path:url(#SVGID_2_);}
	.st2{fill:#644EFA;}
	.st3{fill:#C3E6FA;}
	.st4{fill:#EAF8FF;}
	.st5{fill:#98C7FA;}
	.st6{clip-path:url(#SVGID_4_);fill:#ACD7FA;}
	.st7{fill:#1C253D;}
	.st8{fill:#E8F4FD;}
	.st9{fill:none;stroke:#1C253D;stroke-width:1.5251;stroke-miterlimit:10;}
	.st10{fill:#D0E1F7;}
	.st11{fill:#ACD7FA;}
	.st12{fill:#E4F2FE;}
	.st13{clip-path:url(#SVGID_6_);fill:#FFFFFF;}
	.st14{fill:#719CC9;}
	.st15{fill:#FFFFFF;}
	.st16{font-family:'Inter-Bold';}
	.st17{font-size:4.1966px;}
	.st18{font-family:'Inter-Light';}
	.st19{fill:#FF625A;}
	.st20{fill:none;}
	.st21{fill:#44307A;}
	.st22{font-size:8.1913px;}
	.st23{fill:#F7AF98;}
	.st24{fill:#CC7A66;}
	.st25{fill:#9F96A9;}
	.st26{fill:#B2ABBA;}
	.st27{fill:#9A8899;}
	.st28{clip-path:url(#SVGID_8_);}
	.st29{fill:#121D3F;}
	.st30{fill:#E08C79;}
	.st31{fill:#17254D;}
	.st32{fill:#EDA48E;}
	.st33{fill:#895A58;}
</style>
<path class="st0" d="M230.7,381.5C77.3,391.3-5.1,260.8,52.4,133C60.4,115,71,98,84.6,82.8c88.8-99.4,239.6-48.1,305.2,16
	c38.2,37.3,116.1,32.4,116.1,153.9c0,74.2-67,118.2-127.9,120.5L230.7,381.5L230.7,381.5z"/>
<g>
	<defs>
		<path id="SVGID_1_" d="M230.7,381.5C77.3,391.3-5.1,260.8,52.4,133C60.4,115,71,98,84.6,82.8c88.8-99.4,239.6-48.1,305.2,16
			c38.2,37.3,116.1,32.4,116.1,153.9c0,74.2-67,118.2-127.9,120.5L230.7,381.5L230.7,381.5z"/>
	</defs>
	<clipPath id="SVGID_2_">
		<use xlink:href="#SVGID_1_"  style="overflow:visible;"/>
	</clipPath>
	<g class="st1">
		<path class="st2" d="M559.8,249.9c0,0-173.8-31.8-305-25.6c0,0-235.8-9.8-325.4,25.6v175.7l671.4,3.9V259.3L559.8,249.9z"/>
		<g>
			<polygon class="st3" points="42,2.8 200.8,227.6 278.6,227.6 119.8,2.8 			"/>
			<path class="st3" d="M306.8,2.8l156.5,221.6c16.6-3.9,25.9-10.2,30.6-14.6L344.5,2.8H306.8z"/>
			<polygon class="st3" points="184.7,2.8 343.4,227.5 379.5,227.5 220.7,2.8 			"/>
			<polygon class="st3" points="155.7,2.8 314.4,227.5 334.5,227.5 175.7,2.8 			"/>
			<polygon class="st3" points="600.8,2.8 616.6,25.1 633.1,2.8 			"/>
			<polygon class="st3" points="362.5,2.8 503,197.3 574.2,87 514.7,2.8 			"/>
			<path class="st3" d="M-131.7,2.8L-34.9,184c23.5,42,63.6,44.3,76.3,44L-117.6,2.8H-131.7z"/>
			<polygon class="st3" points="-108.7,2.8 50.2,227.7 114.8,227.7 -44,2.8 			"/>
			<polygon class="st4" points="119.8,2.8 278.6,227.6 314.4,227.5 155.7,2.8 			"/>
			<path class="st4" d="M344.5,2.8l149.5,207c3.1-2.9,4.2-4.9,4.2-4.9l4.9-7.5L362.5,2.8H344.5z"/>
			<polygon class="st4" points="175.7,2.8 334.5,227.5 343.4,227.5 184.7,2.8 			"/>
			<path class="st4" d="M-117.6,2.8L41.4,228c2.5-0.1,4-0.3,4-0.3l4.8,0L-108.7,2.8H-117.6z"/>
			<path class="st4" d="M220.7,2.8l158.7,224.7l40.9,0c18,0.9,32.1-0.6,42.9-3.1L306.8,2.8H220.7z"/>
			<polygon class="st4" points="514.7,2.8 574.2,87 597.3,51.3 616.6,25.1 600.8,2.8 			"/>
			<polygon class="st4" points="-44,2.8 114.8,227.7 200.8,227.6 42,2.8 			"/>
		</g>
		<path class="st5" d="M298.8,421.9l-86.2-1.5c-17.2,0-31.2-14-31.2-31.2l7.4-133.7c0-17.2,14-31.2,31.2-31.2h69.5
			c17.2,0,31.2,14,31.2,31.2l9.3,135.2C330,407.9,316,421.9,298.8,421.9z"/>
		<g>
			<defs>
				<path id="SVGID_3_" d="M298.8,421.9l-86.2-1.5c-17.2,0-31.2-14-31.2-31.2l7.4-133.7c0-17.2,14-31.2,31.2-31.2h69.5
					c17.2,0,31.2,14,31.2,31.2l9.3,135.2C330,407.9,316,421.9,298.8,421.9z"/>
			</defs>
			<clipPath id="SVGID_4_">
				<use xlink:href="#SVGID_3_"  style="overflow:visible;"/>
			</clipPath>
			<path class="st6" d="M217.1,224.3c0,0-21.2,32.8-7.9,195.8l-1.9,23.1l-39.7-13.4l-9.3-43.7l6.3-140.1l20-41.4l35.3,19.6"/>
			<path class="st6" d="M295.4,224.3c0,0,21.2,32.8,7.9,195.8l1.9,23.1l39.7-13.4l9.3-43.7l-6.3-140.1l-20-41.4l-35.3,19.6"/>
		</g>
		<path class="st7" d="M252.4,263.7V293h-48.8c0,0-3.7,0.8-3.7-5.8l0.8-18.2c0,0,0.1-4.1,6.1-4.1L252.4,263.7z"/>
		<path class="st8" d="M231.7,277.4H219c-0.6,0-1.1-0.5-1.1-1.1v-0.9c0-0.6,0.5-1.1,1.1-1.1h12.7c0.6,0,1.1,0.5,1.1,1.1v0.9
			C232.8,276.9,232.3,277.4,231.7,277.4z"/>
		<path class="st7" d="M258.1,263.7V293h48.8c0,0,3.7,0.8,3.7-5.8l-0.8-18.2c0,0-0.1-4.1-6.1-4.1L258.1,263.7z"/>
		<path class="st8" d="M278.7,277.4h12.7c0.6,0,1.1-0.5,1.1-1.1v-0.9c0-0.6-0.5-1.1-1.1-1.1h-12.7c-0.6,0-1.1,0.5-1.1,1.1v0.9
			C277.6,276.9,278.1,277.4,278.7,277.4z"/>
		<path class="st9" d="M530.3,326.9l-14.6-33.2c0,0-1.4-15.8-41.8-16.1l-86,1.1c-10.1,0.3-22,0.8-17.9,24.3l7.4,40.4
			C377.4,343.4,427,330.3,530.3,326.9z"/>
		<path class="st7" d="M567.3,328c0,0-234.8-27.8-242,79.1h242V328z"/>
		<polygon class="st7" points="228.4,2 234.9,39.7 267.7,39.7 282.1,2 		"/>
		<path class="st7" d="M247.9,88.2c0,0,43.4-4.6,59.8-7.6c0,0,10.7-0.4,10.3-15.3c0,0,2.7-24.8-22.1-24c0,0-66.7-5.3-113.6,3.4
			c0,0-13.7,1.5-15.6,12.6c0,0-6.5,22.3,8.8,23.6l57.6,7.2c0,0,0,7.2,5.3,8C238.3,96.2,246.4,97.4,247.9,88.2z"/>
		<path class="st10" d="M306.8,78.6c0,0,8-1.6,7.8-13.1c0,0,2.5-21.5-16.6-20.9c0,0-79.8-3.5-116,3.3c0,0-10.6,1.2-12.1,9.7
			c0,0-5.4,19.9,5.8,20.8l36.9,3.8C216.2,82.6,269.9,87.4,306.8,78.6z"/>
		<g>
			<path class="st11" d="M364.9,302.3c-5.2-44.7-45.8-50.4-45.8-50.4c0.3,2.3,0.6,4.6,0.9,7c4.3,0.8,35.6,7.7,39.9,44.4
				c0.4,3.3,6.7,40.1-9.3,48.4l-23.4,11.7c0.2,4.7,0.2,7.3,0.2,7.3l27-13.5C372.1,350.8,365.3,306.1,364.9,302.3z"/>
			<path class="st7" d="M359.9,303.2c-4.3-36.7-35.7-43.6-39.9-44.4c4.7,39.1,6.7,86.6,7.3,104.5l23.4-11.7
				C366.5,343.4,360.3,306.6,359.9,303.2z"/>
		</g>
		<g>
			<path class="st11" d="M146.1,302.3c5.2-44.7,45.8-50.4,45.8-50.4c-0.3,2.3-0.6,4.6-0.9,7c-4.3,0.8-35.6,7.7-39.9,44.4
				c-0.4,3.3-6.7,40.1,9.3,48.4l23.4,11.7c-0.2,4.7-0.2,7.3-0.2,7.3l-27-13.5C139,350.8,145.7,306.1,146.1,302.3z"/>
			<path class="st7" d="M151.2,303.2c4.3-36.7,35.7-43.6,39.9-44.4c-4.7,39.1-6.7,86.6-7.3,104.5l-23.4-11.7
				C144.5,343.4,150.8,306.6,151.2,303.2z"/>
		</g>
		<path class="st7" d="M307.8,364.1h-99.5c-3.6,0-6.5-2.9-6.5-6.5l8.4-38.9c0-3.6,2.9-6.5,6.5-6.5h81.1c3.6,0,6.5,2.9,6.5,6.5
			l10,38.9C314.3,361.1,311.4,364.1,307.8,364.1z"/>
		<path class="st11" d="M304.9,361h-93c-3.1,0-5.7-2.6-5.7-5.7l7.4-34.2c0-3.1,2.6-5.7,5.7-5.7h76.8c3.1,0,5.7,2.6,5.7,5.7l8.8,34.2
			C310.7,358.4,308.1,361,304.9,361z"/>
		<circle class="st7" cx="258.1" cy="364.1" r="14.4"/>
		<circle class="st7" cx="210.2" cy="337" r="8.4"/>
		<circle class="st7" cx="305.9" cy="337" r="8.4"/>
		<circle class="st5" cx="210.2" cy="337" r="6"/>
		<circle class="st5" cx="305.9" cy="337" r="6"/>
		<circle class="st5" cx="9.7" cy="293.1" r="27.1"/>
		<path class="st5" d="M84,307.9H18.2c-4.7,0-8.5-3.8-8.5-8.5v-12.7c0-4.7,3.8-8.5,8.5-8.5H84c4.7,0,8.5,3.8,8.5,8.5v12.7
			C92.5,304.1,88.7,307.9,84,307.9z"/>
		<path class="st7" d="M-15.8,205.1c-62.2,27.2-90.9,99.1-65,161.5c1,2.3,0.7,1.8,1,2.3c27.5,62.9,100.8,91.6,163.7,64
			c62.9-27.5,91.6-100.8,64-163.7S47.1,177.6-15.8,205.1z M-7.7,223.6C40,202.7,94.9,220.4,122,263.1l0,0c0,0-77.7,9.9-185.3,91.3
			c-0.1,0.1-0.3,0.2-0.4,0.3C-82.6,303.5-58.4,245.8-7.7,223.6z M-16.4,410.1c6.6-3.7,32.5-15.3,61.4,12.5
			C23.5,424.9,2.1,420.3-16.4,410.1z M111.8,388.3c0.2-0.5,0.3-1,0.4-1.5c0,0-12.5-41.5,25.1-54.4
			C134.6,353.1,125.8,372.6,111.8,388.3z"/>
		<path class="st7" d="M600.8,259.3c0,0-171.1-35.7-300.5-27.7c0,0-258.5-6.4-385,22.4c0,0,93.6-41.6,333.6-32
			C248.9,222,486.5,208.1,600.8,259.3z"/>
		<g>
			<path class="st7" d="M275.7,255.4H233c-6.6,0-12-5.4-12-12V140.6c0-6.6,5.4-12,12-12h42.7c6.6,0,12,5.4,12,12v102.8
				C287.7,250,282.3,255.4,275.7,255.4z"/>
			<path class="st12" d="M270.6,250.4h-33.2c-6.6,0-12-5.4-12-12v-92.6c0-6.6,5.4-12,12-12h33.2c6.6,0,12,5.4,12,12v92.6
				C282.6,245,277.2,250.4,270.6,250.4z"/>
			<g>
				<defs>
					<path id="SVGID_5_" d="M270.6,250.4h-33.2c-6.6,0-12-5.4-12-12v-92.6c0-6.6,5.4-12,12-12h33.2c6.6,0,12,5.4,12,12v92.6
						C282.6,245,277.2,250.4,270.6,250.4z"/>
				</defs>
				<clipPath id="SVGID_6_">
					<use xlink:href="#SVGID_5_"  style="overflow:visible;"/>
				</clipPath>
				<rect x="223.8" y="131.3" class="st13" width="59.5" height="21.3"/>
			</g>
			<path class="st14" d="M279.5,161.9v10.8c0,1.6-1.3,2.8-2.8,2.8h-23l-5.4,2.3c-1,0.4-2.1-0.3-2.1-1.4v-14.6c0-1.6,1.3-2.8,2.8-2.8
				h27.8C278.3,159.1,279.5,160.3,279.5,161.9z"/>
			<text transform="matrix(1 -4.890000e-03 4.890000e-03 1 253.3444 166.1104)"><tspan x="0" y="0" class="st15 st16 st17">NUEVO </tspan><tspan x="0" y="4.8" class="st15 st18 st17">VIAJE!</tspan></text>
			<path class="st14" d="M279.5,185v10.8c0,1.6-1.3,2.8-2.8,2.8h-23l-5.4,2.3c-1,0.4-2.1-0.3-2.1-1.4V185c0-1.6,1.3-2.8,2.8-2.8
				h27.8C278.3,182.2,279.5,183.4,279.5,185z"/>
			<text transform="matrix(1 -4.890000e-03 4.890000e-03 1 253.3439 189.1927)"><tspan x="0" y="0" class="st15 st16 st17">NUEVO </tspan><tspan x="0" y="4.8" class="st15 st18 st17">VIAJE!</tspan></text>
			<path class="st14" d="M279.5,208v10.8c0,1.6-1.3,2.8-2.8,2.8h-23l-5.4,2.3c-1,0.4-2.1-0.3-2.1-1.4V208c0-1.6,1.3-2.8,2.8-2.8
				h27.8C278.3,205.2,279.5,206.5,279.5,208z"/>
			<text transform="matrix(1 -4.890000e-03 4.890000e-03 1 253.3455 212.2731)"><tspan x="0" y="0" class="st15 st16 st17">NUEVO </tspan><tspan x="0" y="4.8" class="st15 st18 st17">VIAJE!</tspan></text>
			<path class="st14" d="M279.5,232v10.8c0,1.6-1.3,2.8-2.8,2.8h-23l-5.4,2.3c-1,0.4-2.1-0.3-2.1-1.4V232c0-1.6,1.3-2.8,2.8-2.8
				h27.8C278.3,229.2,279.5,230.4,279.5,232z"/>
			<text transform="matrix(1 -4.890000e-03 4.890000e-03 1 253.3435 236.2286)"><tspan x="0" y="0" class="st15 st16 st17">NUEVO </tspan><tspan x="0" y="4.8" class="st15 st18 st17">VIAJE!</tspan></text>
			<circle class="st19" cx="237.5" cy="168.5" r="3.5"/>
			<circle class="st19" cx="237.5" cy="191.5" r="3.5"/>
			<circle class="st19" cx="237.5" cy="214.7" r="3.5"/>
			<circle class="st19" cx="237.5" cy="236.3" r="3.5"/>
			<path class="st2" d="M241.4,142c-0.4-1.2-1.3-2.1-2.5-2.5c-0.5-0.2-1-0.2-1.4-0.2c-0.5,0-0.9,0.1-1.4,0.2
				c-1.2,0.4-2.1,1.3-2.5,2.5c-0.5,1.4-0.3,2.7,0.4,3.7c0.2,0.3,0.4,0.7,0.9,1.2l0,0c0.5,0.7,1.1,1.3,1.7,2c0.2,0.2,0.3,0.3,0.5,0.5
				c0,0,0,0,0.1,0.1c0.1,0.1,0.1,0.1,0.2,0.2c0.1,0.1,0.2,0.2,0.3,0.2c0,0,0.1-0.1,0.3-0.2c0.1-0.1,0.1-0.1,0.2-0.2c0,0,0,0,0.1-0.1
				c0.2-0.1,0.3-0.3,0.5-0.5c0.6-0.6,1.2-1.3,1.7-2l0,0c0.4-0.5,0.7-0.9,0.9-1.2C241.7,144.6,241.9,143.3,241.4,142z M239.4,146
				c-0.3,0.3-0.9,0.4-1.5,0.4H237v-1.6h1.3v-0.2H237v-2.1h1.6v-0.2h-1.8v4.1h-1.3v-5.6h2c0.7,0,1.3,0.1,1.6,0.4
				c0.4,0.3,0.6,0.6,0.6,1.1c0,0.3-0.1,0.5-0.2,0.7c-0.1,0.2-0.3,0.4-0.6,0.5c0.3,0.1,0.5,0.2,0.7,0.4c0.2,0.2,0.2,0.5,0.2,0.8
				C239.9,145.4,239.7,145.8,239.4,146z"/>
			<g>
				<circle class="st20" cx="257.5" cy="144.5" r="1.2"/>
				<path class="st21" d="M257.5,142.3c-1.2,0-2.1,1-2.1,2.1s1,2.1,2.1,2.1c0.4,0,0.9-0.1,1.2-0.4v0.3h0.9v-2.1
					C259.6,143.3,258.6,142.3,257.5,142.3z M257.5,145.7c-0.7,0-1.2-0.5-1.2-1.2c0-0.7,0.5-1.2,1.2-1.2c0.7,0,1.2,0.5,1.2,1.2
					C258.7,145.1,258.1,145.7,257.5,145.7z"/>
				<path class="st21" d="M252.9,143.3c0.5,0,0.9,0.3,1.1,0.7h1c-0.2-1-1.1-1.7-2.1-1.7c-1.2,0-2.1,1-2.1,2.1s1,2.1,2.1,2.1
					c1,0,1.9-0.7,2.1-1.7h-1c-0.2,0.4-0.6,0.7-1.1,0.7c-0.7,0-1.2-0.5-1.2-1.2C251.7,143.8,252.2,143.3,252.9,143.3z"/>
				<path class="st21" d="M272.1,142.4l-1.2,2.7l-1-2.2c-0.2-0.3-0.5-0.6-0.9-0.6h-1.2v-0.1c0-0.4,0.3-0.7,0.7-0.7
					c0.1,0,0.2,0,0.3,0.1l0.4-0.9c-0.2-0.1-0.4-0.1-0.7-0.1c-0.9,0-1.6,0.7-1.6,1.6v0.1h-0.6v0.9h0.6v3.2h0.9v-3.2h1.2l1.3,3
					l-0.3,0.6c-0.1,0.3-0.5,0.5-0.9,0.3l-0.4,0.9c0.8,0.4,1.8,0,2.1-0.8l2.2-4.9H272.1z"/>
				<rect x="264.9" y="142.4" class="st21" width="0.9" height="4.1"/>
				<circle class="st21" cx="265.3" cy="141.3" r="0.5"/>
				<path class="st21" d="M262.2,142.3c-0.4,0-0.9,0.1-1.2,0.4v-1.9h-0.9v3.7c0,1.2,1,2.1,2.1,2.1c1.2,0,2.1-1,2.1-2.1
					S263.4,142.3,262.2,142.3z M262.2,145.7c-0.7,0-1.2-0.5-1.2-1.2s0.5-1.2,1.2-1.2s1.2,0.5,1.2,1.2S262.9,145.7,262.2,145.7z"/>
			</g>
			<text transform="matrix(1 0 0 1 242.8969 146.8882)" class="st2 st18 st22">+</text>
		</g>
		<g>
			<g>
				<path class="st23" d="M185.6,287.3c-4,16,12,38.3,25.3,30c17.1-12.3,22.9-60.4,25.6-65c2.6-4.5,11.8-17.9,13.9-19.3
					c2.1-1.4,6.2-2.6,10.5-4.4c4.2-1.8,6.3-6.2,3.8-6.6c-2.4-0.4-15.7,1.7-15.7,1.7c1.8-3.7,12.2-7,16.2-9.4c2.4-1.5,5.6-6.2,4-7
					c-1.6-0.7-8.2-0.3-8.2-0.3c10.6-13.5-31.1,2.4-34.2,4.5c-2.2,2.1-9.2,7.2-9.2,7.2s5-11.6,10.2-16c10-9.1,11.3-18.4,9.5-18.1
					c-19.2,13.5-34.8,30.9-46.9,54.4C186.2,249,191.8,262.9,185.6,287.3L185.6,287.3z"/>
				<path class="st24" d="M204.9,235.2c5.8-4.1,10.2-9.9,12.8-16.4C211.9,222.8,207.5,228.6,204.9,235.2z"/>
				<path class="st24" d="M261.1,207c-26.1,6.1-30.4,10.3-45.2,32.2C240.4,213.8,229.8,222.4,261.1,207z"/>
				<path class="st24" d="M239.6,230.5c2.5-3.1,6.5-4.2,9.6-6.8c-3.9,0.7-8.2,1.4-11.1,4.2c-4.7,5.5-9,11.4-12.4,17.9
					C230.8,241.2,235.3,235.9,239.6,230.5z"/>
			</g>
			<g>
				<path class="st23" d="M171.3,312.4c-11.7,23.2-22,41.3-47.4,85.6c-32.5,56.8-37.3,87.4-37.3,87.4s-13,36.1,11.7,50.3
					c18.6,10.7,41.7,8.6,54.3-8.9c1.1-1.6,2.1-3.2,3-4.9c18.2-31.1,32.6-83.2,40.7-113.1c8.5-31.5,23.9-103.1,23.9-103.1
					s-8.2-21.2-30.5-19.8C181.7,286.4,179.9,295.6,171.3,312.4L171.3,312.4z"/>
				<path class="st25" d="M131.3,352.3c0,0-6.3,1.1-11,11c-4.7,9.9-5.3,29.8-11.1,41.5c-5.8,11.7-26.1,51.7-34.3,66.3
					c-8.2,14.6-4,77.6,12.6,85.3c0,0,43.8,21.5,68.4-2.4c38.1-36.9,27.8-67.7,32-83.5c4.3-15.9,26.2-62.7,18.5-78.5L131.3,352.3
					L131.3,352.3z"/>
				<path class="st26" d="M161.4,319.7c0,0,38.5,20.8,52.1,21.8c4.7,0.4,5.5,9.5,4.5,21.1c-1,11.6-5.3,30.9-8.3,31.5
					c-2.9,0.6-52.9-12.6-84.2-38.3c-3.2-1.3,5.4-10.2,13.4-19.8C147.5,325.7,155.9,314.9,161.4,319.7L161.4,319.7z"/>
				<path class="st27" d="M139,357.7c-0.5-0.3-0.7-0.9-0.5-1.5c11.4-24.5,23.5-29.2,24-29.3c0.6-0.2,1.3,0.1,1.5,0.7
					c0.2,0.6-0.1,1.3-0.7,1.5c-0.1,0-11.8,4.7-22.7,28.1C140.4,357.8,139.7,358,139,357.7C139.1,357.7,139.1,357.7,139,357.7
					L139,357.7z"/>
				<path class="st27" d="M197.4,385.7c0,0-0.1,0-0.1-0.1c-0.6-0.3-0.8-1-0.5-1.6c11.5-23.2,7.9-35.1,7.8-35.3
					c-0.2-0.6,0.1-1.3,0.7-1.5c0.6-0.2,1.3,0.1,1.5,0.7c0.2,0.5,4.1,12.9-7.9,37C198.6,385.6,197.9,385.9,197.4,385.7L197.4,385.7z"
					/>
				<path class="st27" d="M157.2,368.8c-0.5-0.3-0.7-1-0.4-1.5l16.8-32.7c0.3-0.6,1-0.8,1.6-0.5c0.6,0.3,0.8,1,0.5,1.6l-16.8,32.7
					C158.5,368.9,157.8,369.1,157.2,368.8C157.2,368.8,157.2,368.8,157.2,368.8L157.2,368.8z"/>
				<path class="st27" d="M177.9,376.3c-0.4-0.3-0.7-0.8-0.5-1.3c3.2-10.5,10.5-33.5,10.6-33.7c0.2-0.6,0.9-0.9,1.5-0.7
					c0.6,0.2,0.9,0.9,0.7,1.5c-0.1,0.2-7.4,23.2-10.6,33.7c-0.2,0.6-0.8,1-1.4,0.8C178.1,376.4,178.1,376.4,177.9,376.3L177.9,376.3
					z"/>
			</g>
		</g>
	</g>
	<g class="st1">
		<defs>
			<path id="SVGID_7_" d="M306.8,78.6c0,0,8-1.6,7.8-13.1c0,0,2.5-21.5-16.6-20.9c0,0-79.8-3.5-116,3.3c0,0-10.6,1.2-12.1,9.7
				c0,0-5.4,19.9,5.8,20.8l36.9,3.8C216.2,82.6,269.9,87.4,306.8,78.6z"/>
		</defs>
		<clipPath id="SVGID_8_">
			<use xlink:href="#SVGID_7_"  style="overflow:visible;"/>
		</clipPath>
		<g class="st28">
			<path class="st23" d="M253.9,64.8c-1.7,2.9-2.7,5.6-2.7,5.6h-1.7c-0.2-8.1-1.2-22.1-5.7-26.9c-4.5-4.9-5.5-9.3-6.1-15.8
				c-0.6-6.5-4.5-10.1-4.5-10.1l0,0.1c0,0-6.1,1.2-11.1,3.2c-5,2-5.9,4.7-17.9,10.1c-11.9,5.5-27.2-3.4-27.2-3.4s-8.5,4.6-17.1,6.5
				c0.1,10.5,0.4,34.9-0.1,35.4c-0.6,0.7-2.4,0-2.4,0c-0.3-2.9-1.5-5.3-2.9-7.1l3.8,24.5c-0.2,0-0.4,0-0.7,0
				c13.1,51.1,47.7,51.3,47.7,51.3s32.7,3.8,46.7-51.4c-0.4,0.1-0.7,0.1-1.1,0.1L253.9,64.8z M243.7,80.9
				c-2.2,32-22.1,47.8-38.4,47.8c-14.4,0-37.3-24.8-39.3-41.9c-1.1-8.1-2.7-18.2,0.7-29.4c1.2-4,4.4-16.3,8.1-18.9v0
				c6.1-4.2,17.3,3.4,29.7-2.2c16.9-7.6,23.3-2.1,28.4,1.4c3.8,2.6,5.3,14.2,7.8,19.7C242.7,61.8,244,76.4,243.7,80.9z"/>
			<path class="st23" d="M233,37.8c-5-3.5-11.4-9-28.4-1.4c-12.4,5.6-23.6-2-29.7,2.2v0c-3.8,2.6-6.9,14.9-8.1,18.9
				c-3.4,11.2-1.8,21.3-0.7,29.4c2,17.1,24.9,41.9,39.3,41.9c16.3,0,36.2-15.8,38.4-47.8c0.3-4.5-1-19-3-23.3
				C238.3,52,236.8,40.4,233,37.8z M211.2,54c0.3-1.9,14.2-0.7,20.1,0.2c6.7,1,7.6,4.5,1.9,3.5C222.2,55.9,208.3,61.1,211.2,54
				L211.2,54z M223.2,77.6C223.2,77.6,223.2,77.6,223.2,77.6c0,0-0.1,0-0.2,0c-3.2-0.2-5.9-2.7-6.5-6.1c-0.1-0.6,0.3-1.2,0.9-1.3
				c0.6-0.1,1.2,0.3,1.3,0.9c0.4,2.3,2.3,4.1,4.4,4.2c2.6,0.2,4.3-2.1,4.3-2.1c0.4-0.5,1.1-0.6,1.6-0.3c0.5,0.4,0.6,1.1,0.3,1.6
				C229.2,74.7,226.9,77.8,223.2,77.6C223.2,77.6,223.2,77.6,223.2,77.6z M218.4,68.5c-0.1-8.5,9.9-8.8,10.2-0.2
				C228.7,76.8,218.8,77,218.4,68.5z M207.3,71c-0.1,0.5-2.1,11.9-6.2,19.5c-1.2,2.2,4,2,6.9,1.9c0.8-0.1,1.5,0.5,1.6,1.3
				c0,2-1.9,1.6-3.6,1.7h0c-3.9,0-10-1-7.4-6.3c3.9-7.1,5.9-18.5,5.9-18.6C204.7,68.7,207.6,69.2,207.3,71z M179.9,54.6
				c5.9-0.9,19.8-2.2,20.1-0.2c2.9,7.1-10.8,2.1-21.9,3.8C172.4,59.1,173.2,55.6,179.9,54.6z M181.2,75c-0.3-0.5-0.1-1.2,0.4-1.6
				s1.2-0.1,1.6,0.4c0,0,1.5,2.5,4.1,2.5c2.1,0,4.1-1.6,4.8-3.8c0.2-0.6,0.8-1,1.4-0.8c0.6,0.2,1,0.8,0.8,1.4
				c-0.9,3.3-3.8,5.6-7,5.5c-0.1,0-0.1,0-0.2,0v0C183.3,78.4,181.3,75.1,181.2,75z M182,69.3c-0.1-8.6,10-8.8,10.3-0.2
				C192.4,77.7,182.4,77.9,182,69.3z M166.9,88.5c-1.7-9,27.6-9,27-0.6C193.7,96.3,167.3,92.8,166.9,88.5z M211.9,114
				c-4.3,1.4-9.8,0.5-11.3,0.2h0c-0.3,0-0.4-0.1-0.4-0.1c-0.6-0.1-0.9-0.7-0.8-1.2c0.1-0.5,0.7-0.9,1.2-0.8c0.1,0,6.3,1.4,10.7-0.1
				c0.5-0.2,1.1,0.1,1.3,0.6C212.7,113.2,212.4,113.8,211.9,114z M219,106.7c-0.2,0.8-1,1.3-1.8,1.1c-0.1,0-9.9-2.2-22.6,0.2
				c-0.3,0.1-0.5,0-0.7,0c-0.5-0.1-1-0.5-1.1-1.1c-0.1-0.4,0-0.8,0.2-1.1c0.2-0.4,0.6-0.6,1-0.7c11.5-2.2,20.7-0.8,23.2-0.3
				c0.4,0.1,0.7,0.2,0.8,0.2c0.4,0.1,0.8,0.3,1,0.7h0C219,105.9,219.1,106.3,219,106.7z M240.7,86.8c-0.2,4.3-26.4,9-27,0.6
				C212.7,79.1,242,77.7,240.7,86.8z"/>
			<path class="st29" d="M228.7,68.3c-0.3-8.5-10.3-8.3-10.2,0.2C218.8,77,228.7,76.8,228.7,68.3z"/>
			<path class="st29" d="M192.4,69.1c-0.3-8.6-10.4-8.4-10.3,0.2C182.4,77.9,192.4,77.7,192.4,69.1z"/>
			<path class="st30" d="M206,95.4L206,95.4c1.7-0.1,3.6,0.3,3.6-1.7c-0.1-0.8-0.8-1.4-1.6-1.3c-2.9,0.1-8.2,0.3-6.9-1.9
				c4.1-7.5,6.1-19,6.2-19.5c0.3-1.8-2.5-2.3-2.9-0.5c0,0.1-2,11.4-5.9,18.6C196,94.3,202.1,95.4,206,95.4z"/>
			<path class="st31" d="M233.2,57.7c5.7,0.9,4.8-2.5-1.9-3.5c-5.9-0.9-19.8-2.2-20.1-0.2h0C208.3,61.1,222.2,55.9,233.2,57.7z"/>
			<path class="st31" d="M178.1,58.2c11.1-1.7,24.8,3.4,21.9-3.8c-0.3-1.9-14.2-0.7-20.1,0.2C173.2,55.6,172.4,59.1,178.1,58.2z"/>
			<path class="st32" d="M213.7,87.5c0.6,8.4,26.8,3.6,27-0.6C242,77.7,212.7,79.1,213.7,87.5z"/>
			<path class="st32" d="M166.9,88.5c0.4,4.2,26.8,7.8,27-0.6C194.5,79.5,165.2,79.5,166.9,88.5z"/>
			<path class="st30" d="M218.8,105.6c-0.2-0.4-0.6-0.6-1-0.7c-0.1,0-0.3-0.1-0.8-0.2c-2.5-0.5-11.6-1.9-23.2,0.3
				c-0.4,0.1-0.8,0.3-1,0.7c-0.2,0.3-0.3,0.7-0.2,1.1c0.1,0.5,0.6,0.9,1.1,1.1c0.2,0.1,0.5,0.1,0.7,0c12.7-2.4,22.5-0.2,22.6-0.2
				c0.8,0.2,1.7-0.3,1.8-1.1C219.1,106.3,219,105.9,218.8,105.6L218.8,105.6z"/>
			<path class="st32" d="M211.2,112c-4.4,1.4-10.6,0.1-10.7,0.1c-0.6-0.1-1.1,0.2-1.2,0.8c-0.1,0.5,0.2,1.1,0.8,1.2
				c0,0,0.2,0.1,0.4,0.1h0c1.6,0.3,7.1,1.2,11.3-0.2c0.5-0.2,0.8-0.8,0.6-1.3C212.3,112.1,211.8,111.9,211.2,112z"/>
			<path class="st32" d="M187.3,78.6c3.2,0,6.1-2.2,7-5.5c0.2-0.6-0.2-1.2-0.8-1.4c-0.6-0.2-1.2,0.2-1.4,0.8
				c-0.6,2.2-2.6,3.9-4.8,3.8c-2.6,0-4.1-2.5-4.1-2.5c-0.3-0.5-1-0.7-1.6-0.4s-0.7,1-0.4,1.6c0.1,0.1,2.1,3.4,5.8,3.6v0
				C187.1,78.6,187.2,78.6,187.3,78.6z"/>
			<path class="st32" d="M229.3,74.5c0.4-0.5,0.3-1.2-0.3-1.6c-0.5-0.4-1.2-0.3-1.6,0.3c0,0-1.7,2.3-4.3,2.1c-2.1-0.1-4-1.9-4.4-4.2
				c-0.1-0.6-0.7-1-1.3-0.9c-0.6,0.1-1,0.7-0.9,1.3c0.6,3.4,3.3,5.9,6.5,6.1c0.1,0,0.2,0,0.2,0C226.9,77.8,229.2,74.7,229.3,74.5z"
				/>
			<path class="st23" d="M256.8,60.7c-0.1,0.6-0.1,1.2-0.2,1.8c-1.1,9.1-2.6,17.1-4.3,24.2c7.6-1.5,13-19.6,12-25.8
				c-0.4-2.3-1.2-3.2-2.1-3.3c0,0,0,0,0,0C260.1,57.9,258.3,59.1,256.8,60.7z M261.3,69.4c0.1,0.5-0.3,0.9-0.7,0.9
				c-2.4,0.3-3.2,2.3-3.3,2.7C257,75.7,257,78,257,78c0,0.5-0.3,0.8-0.8,0.8c-0.4,0-0.8-0.4-0.8-0.8c0-0.4-0.2-9.2,3.3-13.8
				c0.3-0.4,0.8-0.4,1.2-0.2c0.4,0.3,0.4,0.8,0.2,1.2c-0.9,1.1-1.5,2.6-1.9,4.1c0.6-0.4,1.4-0.7,2.3-0.8
				C260.9,68.6,261.3,68.9,261.3,69.4L261.3,69.4z"/>
			<path class="st23" d="M256.8,60.7c-1.2,1.2-2.2,2.7-3,4l-2.7,22c0.4,0,0.7,0,1.1-0.1c1.8-7.1,3.3-15.1,4.3-24.2
				C256.7,61.9,256.8,61.3,256.8,60.7z"/>
			<path class="st33" d="M260.5,68.6c-1,0.1-1.7,0.4-2.3,0.8c0.4-1.5,1-3,1.9-4.1c0.3-0.4,0.2-0.9-0.2-1.2c-0.4-0.3-0.9-0.2-1.2,0.2
				c-3.5,4.6-3.3,13.4-3.3,13.8c0,0.4,0.4,0.8,0.8,0.8c0.5,0,0.8-0.4,0.8-0.8c0,0,0-2.3,0.3-5.1c0.1-0.3,0.8-2.3,3.3-2.7
				c0.5-0.1,0.8-0.5,0.7-0.9h0C261.3,68.9,260.9,68.6,260.5,68.6z"/>
			<path class="st23" d="M155.4,78.1c0,0.4-0.4,0.8-0.8,0.8c-0.5,0-0.8-0.4-0.8-0.8c0,0,0-2.3-0.3-5.1c-0.1-0.3-0.8-2.3-3.3-2.7
				c-0.5-0.1-0.8-0.5-0.7-0.9c0.1-0.5,0.5-0.8,0.9-0.7c1,0.1,1.7,0.4,2.3,0.8c-0.4-1.5-1-3-1.9-4.1c-0.3-0.4-0.2-0.9,0.2-1.2
				c0.4-0.3,0.9-0.2,1.2,0.2h0c1.6,2.1,2.4,5,2.8,7.7c-0.5-3.4-0.9-7-1.2-10.8c-2.2-2.4-4.5-3.6-4.7-3.6c-1.1,0.3-2.1,1.2-2.5,3.4
				c-1.1,6.4,3.4,25,11.3,25.9c-1.1-4.3-2-8.9-2.8-13.9C155.5,75.7,155.4,77.9,155.4,78.1z"/>
			<path class="st23" d="M154.7,62.3c-0.3-0.4-0.6-0.8-1-1.2c0.3,3.8,0.7,7.4,1.2,10.8c0,0.3,0.1,0.6,0.1,0.9
				c0.8,5,1.7,9.6,2.8,13.9c0.2,0,0.4,0,0.7,0L154.7,62.3z"/>
			<path class="st33" d="M152.2,64.3c-0.3-0.4-0.8-0.4-1.2-0.2c-0.4,0.3-0.4,0.8-0.2,1.2c0.9,1.1,1.5,2.6,1.9,4.1
				c-0.6-0.4-1.4-0.7-2.3-0.8c-0.5-0.1-0.9,0.3-0.9,0.7c-0.1,0.5,0.3,0.9,0.7,0.9c2.4,0.3,3.2,2.3,3.3,2.7c0.4,2.8,0.3,5.1,0.3,5.1
				c0,0.5,0.3,0.8,0.8,0.8c0.5,0,0.8-0.4,0.8-0.8c0-0.2,0-2.4-0.3-5.2c0-0.3-0.1-0.6-0.1-0.9C154.5,69.3,153.7,66.4,152.2,64.3
				L152.2,64.3z"/>
			<path class="st31" d="M153.5,58.6c-0.6-9-0.5-16.9,0.1-23.8c-0.4,0-0.8,0-1.2,0c-2.2-0.1-4-0.7-5.4-1.5c-0.1,4.8,0,15.9,2,24.2
				c0,0,0,0,0,0C150.6,57.1,152.5,58.1,153.5,58.6z"/>
			<path class="st31" d="M153.5,58.6c0.4,0.2,0.7,0.4,0.7,0.4l0.5,3.3c1.4,1.8,2.6,4.2,2.9,7.1c0,0,1.8,0.7,2.4,0
				c0.5-0.6,0.2-24.9,0.1-35.4c-2.2,0.5-4.4,0.8-6.4,0.8C153,41.8,152.9,49.7,153.5,58.6z"/>
			<path class="st31" d="M153.7,61.1c0,0,0-0.1,0-0.1c-0.1-0.8-0.1-1.6-0.2-2.4c-1-0.6-2.9-1.5-4.5-1.1
				C149.2,57.6,151.5,58.7,153.7,61.1z"/>
			<path class="st31" d="M153.5,58.6c0.1,0.8,0.1,1.6,0.2,2.4c0,0,0,0.1,0,0.1c0.3,0.4,0.7,0.8,1,1.2l-0.5-3.3
				C154.2,59.1,153.9,58.9,153.5,58.6z"/>
			<path class="st31" d="M245.9-8.4c0,0-11.6-15.8-32.4-17c-20.8-1.2-41.3,7.3-53,18.8l3.9-0.2c0,0-5.1,3.9-8.8,11.5
				c-3.8,7.7-6.6,12.7-11.4,13.2c0,0,1.8,3.1,5.5,4.5c0,0-4.7,2.2-8.5,1.6c0,0,0.8,6.2,6.1,9.2c0-1.5,0.1-2.5,0.1-2.5l7.1-0.9
				c6.7-45.9,40.8-46.3,51.4-46.3c0,0,58.9,0,51.3,76.2l1.4-0.5c0,0,2.1-2.1,3.9-1.8c0-0.1,2.6-9,3.3-16.5
				C266.3,33.6,264.9,3.6,245.9-8.4z"/>
			<path class="st31" d="M160.1,34c8.6-1.9,17.1-6.5,17.1-6.5s15.3,8.9,27.2,3.4c11.9-5.5,12.9-8.1,17.9-10.1c5-2,11.1-3.2,11.1-3.2
				l0-0.1c0,0,3.9,3.7,4.5,10.1c0.6,6.5,1.6,10.9,6.1,15.8c4.5,4.9,5.5,18.8,5.7,26.9h1.7c0,0,0.9-2.7,2.7-5.6l0.5-3.9l2.6-1
				c7.6-76.3-51.3-76.2-51.3-76.2c-10.6,0-44.7,0.4-51.4,46.3l5.8-0.7C160,29.3,160,31.1,160.1,34z"/>
			<path class="st31" d="M258.3,59.3l-1.4,0.5c0,0.3-0.1,0.6-0.1,0.9c1.5-1.6,3.3-2.9,5.3-3.2c0,0,0,0,0,0
				C260.4,57.2,258.3,59.3,258.3,59.3z"/>
			<path class="st31" d="M253.9,64.8c0.8-1.4,1.8-2.8,3-4c0-0.3,0.1-0.6,0.1-0.9l-2.6,1L253.9,64.8z"/>
			<path class="st31" d="M153.7,34.8c0.2-1.7,0.4-3.3,0.6-4.9l-7.1,0.9c0,0,0,0.9-0.1,2.5c1.4,0.8,3.2,1.4,5.4,1.5
				C152.9,34.8,153.3,34.8,153.7,34.8z"/>
			<path class="st31" d="M160.1,34c0-2.9-0.1-4.8-0.1-4.8l-5.8,0.7c-0.2,1.6-0.4,3.2-0.6,4.9C155.7,34.8,157.9,34.5,160.1,34z"/>
		</g>
	</g>
</g>
</svg>
