<?xml version="1.0" encoding="utf-8"?>
<!-- Generator: Adobe Illustrator 21.0.0, SVG Export Plug-In . SVG Version: 6.00 Build 0)  -->
<svg version="1.1" id="Layer_1" xmlns="http://www.w3.org/2000/svg" xmlns:xlink="http://www.w3.org/1999/xlink" x="0px" y="0px"
	 viewBox="0 0 321.8 50.7" style="enable-background:new 0 0 321.8 50.7;" xml:space="preserve">
<style type="text/css">
	.st0{fill:#00847D;}
</style>
<g>
	<path class="st0" d="M265.1,17.2c-6,0-11.7,5-11.7,12.3c0,7.3,5.7,12.3,11.7,12.3c6,0,11.7-5,11.7-12.3
		C276.8,22.1,271.1,17.2,265.1,17.2 M265.1,40.3c-3.4,0-5.7-3.6-5.7-10.8c0-7.3,2.3-10.9,5.7-10.9c3.4,0,5.7,3.6,5.7,10.9
		C270.8,36.7,268.5,40.3,265.1,40.3"/>
	<path class="st0" d="M314.7,37.1V25c0-4.4-2.1-8-7.1-8c-4,0-6.7,3.1-7.7,5.3c-0.8-3.1-2.9-5.3-6.8-5.3c-3.7,0-6.3,2.6-7.4,4.8v-4.3
		h-8.9v1.2c2.5,0,3,0.3,3,3v15.4c0,2.7-0.5,3-3,3v1.2h11.9V40c-2.5,0-3-0.3-3-3v-14c0.9-1.8,2.5-2.9,4.3-2.9c2.9,0,4.3,1.9,4.3,5.8
		v11.1c0,2.7-0.5,3-3,3v1.2h11.9V40c-2.5,0-3.1-0.3-3.1-3V25c0-0.5-0.1-1.2-0.1-1.6c0.8-1.8,2.4-3.2,4.4-3.2c2.9,0,4.3,1.9,4.3,5.8
		v11.1c0,2.7-0.5,3-3,3v1.2h11.9V40C315.3,40,314.7,39.8,314.7,37.1"/>
	<path class="st0" d="M229.5,36.5c-1.4,0-2.5,1.1-2.5,2.5c0,1.4,1.1,2.5,2.5,2.5c1.4,0,2.5-1.1,2.5-2.5
		C232,37.6,230.9,36.5,229.5,36.5"/>
	<path class="st0" d="M245.5,38.7c-4.8,0-8.5-4.6-8.5-11.1c0-5.3,3.1-9,7-9c3,0,5.5,2.1,6.3,6l1-0.1l-0.4-7.3h-0.7
		c-0.2,0.5-0.4,1-1.1,1c-0.8,0-2.3-1.3-5.4-1.3c-6.3,0-12.1,5.5-12.1,12.8c0,7.2,5.1,11.9,11.1,11.9c3.3,0,7-1.8,9.1-5.3l-0.8-0.7
		C249.4,37.9,247.9,38.7,245.5,38.7"/>
	<path class="st0" d="M27.3,2.6C14.6,2.6,4.3,13,4.3,25.7c0,12.7,10.3,23.1,23.1,23.1c12.7,0,23.1-10.3,23.1-23.1
		C50.4,13,40.1,2.6,27.3,2.6 M27.3,47.4c-12,0-21.7-9.8-21.7-21.7c0-12,9.8-21.7,21.7-21.7s21.7,9.8,21.7,21.7
		C49.1,37.6,39.3,47.4,27.3,47.4"/>
	<path class="st0" d="M27.5,10.2c-1.1,0-2.2,0.2-3.3,0.4c-0.3,0.1-0.6,0.1-0.9,0.2c-0.6,0.2-1.2,0.4-1.7,0.6
		c-0.3,0.1-0.5,0.2-0.8,0.4c-3.4,1.6-6,4.3-7.5,8c-0.3,0.7-0.6,1.5-0.8,2.2c-0.6,2.3-0.6,4.6-0.2,7c0.7,3.5,2.4,6.4,5.2,8.7
		c2.5,2,5.4,3.1,8.6,3.4c0.5,0,1,0.1,1.5,0.1c0.1,0,0.1,0,0.2,0c1.1,0,2.2-0.2,3.2-0.4c0.1,0,0.2,0,0.3-0.1c2-0.5,3.8-1.4,5.4-2.7
		c0.3-0.2,0.6-0.5,0.9-0.7v-5.7c0,0-1,0-1.3,0c-0.1,0.5-0.2,1-0.3,1.5c-0.5,1.9-1,3.5-2.5,4.7c-1.2,1-2.3,1.8-4.6,1.8
		c-5.3,0-9.9-6.6-9.9-13.8s3.8-13.8,9.5-13.8c1.7,0,3.1,0.5,4.6,1.5c1.7,1.2,2.4,3,2.9,5c0.1,0.5,0.2,1,0.3,1.5c0.3,0,1.3,0,1.3,0
		v-5.7c-2.1-1.8-5.5-3.9-9.8-3.9C27.7,10.2,27.6,10.2,27.5,10.2"/>
	<path class="st0" d="M32.4,24.6L27,21.5c-0.4-0.2-0.9-0.2-1.3,0c-0.4,0.2-0.7,0.7-0.7,1.2v6.3c0,0.5,0.2,0.9,0.7,1.2
		c0.2,0.1,0.4,0.2,0.7,0.2s0.5-0.1,0.7-0.2l5.5-3.2c0.4-0.2,0.7-0.7,0.7-1.2C33.1,25.3,32.9,24.9,32.4,24.6 M31.8,25.8l-2.6,1.5
		l-2.8,1.6v-3.3l0-3L31.8,25.8C31.8,25.8,31.8,25.8,31.8,25.8"/>
	<path class="st0" d="M114.3,17.2c-6,0-11.7,5-11.7,12.3c0,7.3,5.7,12.3,11.7,12.3c6,0,11.7-5,11.7-12.3
		C126,22.1,120.2,17.2,114.3,17.2 M114.3,40.3c-3.4,0-5.7-3.6-5.7-10.8c0-7.3,2.3-10.9,5.7-10.9c3.4,0,5.7,3.6,5.7,10.9
		C120,36.7,117.7,40.3,114.3,40.3"/>
	<path class="st0" d="M149.9,37.1v-12c0-4.4-2.4-8-7.3-8c-3.5,0-6.3,2.6-7.4,4.8v-4.3h-8.9v1.1c2.5,0,3,0.3,3,3v15.3
		c0,2.7-0.5,3-3,3v1.1h11.9v-1.1c-2.5,0-3-0.3-3-3v-14c0.9-1.8,2.5-2.9,4.4-2.9c2.8,0,4.5,1.9,4.5,5.8v11.1c0,2.7-0.5,3-3,3v1.1
		h11.8v-1.1C150.4,40.1,149.9,39.8,149.9,37.1"/>
	<path class="st0" d="M160.2,14.3c1.9,0,3.4-1.5,3.4-3.3c0-1.9-1.5-3.3-3.4-3.3c-1.9,0-3.4,1.4-3.4,3.3
		C156.7,12.9,158.3,14.3,160.2,14.3"/>
	<path class="st0" d="M163.3,37.1V17.7h-8.9v1.1c2.5,0,3,0.3,3,3v15.3c0,2.7-0.5,3-3,3v1.1h11.9v-1.1
		C163.8,40.1,163.3,39.8,163.3,37.1"/>
	<path class="st0" d="M180.2,27.6l-3.7-1.9c-1.9-0.9-3.1-1.7-3.1-3.4c0-1.7,1.4-3.3,3.7-3.3c2.9,0,5.3,1.9,5.4,5.9l1.4,0v-5.7
		c-1.8-0.9-4.2-1.7-6.6-1.7c-4.3,0-8.3,2.8-8.3,7c0,3,1.9,4.9,4.3,6.1l4.1,2.1c2.1,1.1,3.3,2,3.3,3.9c0,2.4-1.7,3.6-4.3,3.6
		c-3.8,0-6.5-2.4-6.8-6.8h-1.1c0,0,0,5.8,0,6.2c1.7,1.3,4.7,2.2,7.8,2.2c4.8,0,8.6-3,8.6-7.3C185,31,182.9,29.1,180.2,27.6"/>
	<path class="st0" d="M98.2,17.2c-1.9,0-3.1,1.2-5.4,4.4c-0.2,0.3-0.5,0.7-0.8,1.2V19v-1.3h-8.8v1.1c2.5,0,3,0.3,3,3v15.3
		c0,2.7-0.5,3-3,3v1.1h12.9v-1.1c-3.3,0-4.1-0.3-4.1-3v-12c0-1,0.3-1.6,1.2-2.5c0.8-0.9,1.6-1.3,2.4-1.3c1.6,0,3.3,1.4,4.3,3.2
		l2.3-5C101.5,18.4,99.8,17.2,98.2,17.2"/>
	<path class="st0" d="M70.2,10.7c-1.1,0-2.2,0.2-3.3,0.4c-0.3,0.1-0.6,0.1-0.9,0.2c-0.6,0.2-1.2,0.4-1.7,0.6
		c-0.3,0.1-0.5,0.2-0.8,0.4c-3.4,1.6-6,4.3-7.5,8c-0.3,0.7-0.6,1.5-0.8,2.2c-0.6,2.3-0.6,4.6-0.2,7c0.7,3.5,2.4,6.4,5.2,8.7
		c2.5,2,5.4,3.1,8.6,3.4c0.5,0,1,0.1,1.5,0.1c0.1,0,0.1,0,0.2,0c1.1,0,2.2-0.2,3.2-0.4c0.1,0,0.2,0,0.3-0.1c2-0.5,3.8-1.4,5.4-2.7
		c0.3-0.2,0.6-0.5,0.9-0.7V32c0,0-1,0-1.3,0c-0.1,0.5-0.2,1-0.3,1.5c-0.5,1.9-1,3.5-2.5,4.7c-1.2,1-2.3,1.8-4.6,1.8
		c-5.3,0-9.9-6.6-9.9-13.8s3.8-13.8,9.5-13.8c1.7,0,3.1,0.5,4.6,1.5c1.7,1.2,2.4,3,2.9,5c0.1,0.5,0.2,1,0.3,1.5c0.3,0,1.3,0,1.3,0
		v-5.7c-2.1-1.8-5.5-3.9-9.8-3.9C70.4,10.7,70.3,10.7,70.2,10.7"/>
	<path class="st0" d="M223,39.2c-0.9,0-1.8-0.8-1.8-2.3V25.5c0-5.2-3.2-8.5-8.4-8.5c-4.7,0-8.3,3.1-9.8,7.4l1.1,0.4
		c1.3-3.1,3.5-4.8,6-4.8c3.6,0,5.2,2.6,5.2,5.8v1.6l-5.4,2c-4.4,1.7-7.3,3.4-7.3,6.9c0,0.1,0,0.1,0,0.2c-1.1,1.6-2.2,2.3-3.9,2.3
		c-2.5,0-3.6-1.9-3.6-4.5V21.2v-1.7h1.4h5.8l-1.1-2h-6.1v-6.4h-0.4c-1.9,2.5-5.1,5.6-8.2,7.4v0.8h2.7l0.1,15.8
		c0,3.9,2.9,6.6,6.6,6.6c2.9,0,5.2-1.4,7-3.7c0.8,2.4,3.1,3.7,5.6,3.7c3,0,5.6-1.9,6.9-3.9c0.7,2.5,2.8,3.9,5.1,3.9
		c2.3,0,4.1-1.4,5.1-3l-0.7-0.7C224.3,38.9,223.9,39.2,223,39.2 M215.4,37c-1.1,1.2-2.4,1.9-3.8,1.9c-2.1,0-3.6-1.6-3.6-3.9
		c0-2.6,1.5-3.8,3.6-4.7l3.8-1.4V37z"/>
</g>
</svg>
