<?xml version="1.0" encoding="utf-8"?>
<!-- Generator: Adobe Illustrator 21.0.0, SVG Export Plug-In . SVG Version: 6.00 Build 0)  -->
<svg version="1.1" id="Layer_1" xmlns="http://www.w3.org/2000/svg" xmlns:xlink="http://www.w3.org/1999/xlink" x="0px" y="0px"
	 viewBox="0 0 199 234.7" style="enable-background:new 0 0 199 234.7;" xml:space="preserve">
<style type="text/css">
	.st0{fill:#E9FAFF;}
	.st1{fill:#FFFFFF;}
	.st2{fill:#C3E6FA;}
	.st3{fill:#BCB3F2;}
	.st4{fill:none;stroke:#727079;stroke-miterlimit:10;}
</style>
<g>
	<path class="st0" d="M22.3,107.2c0-0.7,3.6-0.8,4.8-1.8c5.5-4.8,11.6-7.1,18.9-6.9c3.5,0.1,6.8-2.1,9.5-4.4
		c12.9-11.1,19.3-5.6,27.5,2.2c5.3,5,10.2,5.4,16.3,3.1c7.9-3.1,10.6-2.6,16.3,3.7c2.6,2.8,6,3.5,9.5,4.1c2.4,0.4,4.7,0.9,6.9,1.8
		c0,0.5-0.1,1-0.1,1.5c-37.4,0-74.7,0-112.1,0C19.1,109,21.8,108.2,22.3,107.2z"/>
	
		<rect x="61.8" y="51.5" transform="matrix(-1 -4.104951e-11 4.104951e-11 -1 199 281.404)" class="st1" width="75.4" height="178.4"/>
	<g>
		<path class="st2" d="M65.6,53.6v176.3H141V53.6H65.6z M126.4,111.9h8.2v8.2h-8.2V111.9z M126.4,95.6h8.2v8.2h-8.2V95.6z
			 M126.4,79.2h8.2v8.2h-8.2V79.2z M126.4,63.4h8.2v8.2h-8.2V63.4z M112.7,111.9h8.2v8.2h-8.2V111.9z M112.7,95.6h8.2v8.2h-8.2V95.6
			z M112.7,79.2h8.2v8.2h-8.2V79.2z M112.7,63.4h8.2v8.2h-8.2V63.4z M99.1,111.9h8.2v8.2h-8.2V111.9z M99.1,95.6h8.2v8.2h-8.2V95.6z
			 M99.1,79.2h8.2v8.2h-8.2V79.2z M99.1,63.4h8.2v8.2h-8.2V63.4z M85.5,111.9h8.2v8.2h-8.2V111.9z M85.5,95.6h8.2v8.2h-8.2V95.6z
			 M85.5,79.2h8.2v8.2h-8.2V79.2z M85.5,63.4h8.2v8.2h-8.2V63.4z M71.8,111.9h8.2v8.2h-8.2V111.9z M71.8,95.6h8.2v8.2h-8.2V95.6z
			 M71.8,79.2h8.2v8.2h-8.2V79.2z M71.8,63.4h8.2v8.2h-8.2V63.4z M126.4,176.7h8.2v8.2h-8.2V176.7z M126.4,160.4h8.2v8.2h-8.2V160.4
			z M126.4,144.1h8.2v8.2h-8.2V144.1z M126.4,128.3h8.2v8.2h-8.2V128.3z M112.7,176.7h8.2v8.2h-8.2V176.7z M112.7,160.4h8.2v8.2
			h-8.2V160.4z M112.7,144.1h8.2v8.2h-8.2V144.1z M112.7,128.3h8.2v8.2h-8.2V128.3z M99.1,176.7h8.2v8.2h-8.2V176.7z M99.1,160.4
			h8.2v8.2h-8.2V160.4z M99.1,144.1h8.2v8.2h-8.2V144.1z M99.1,128.3h8.2v8.2h-8.2V128.3z M85.5,176.7h8.2v8.2h-8.2V176.7z
			 M85.5,160.4h8.2v8.2h-8.2V160.4z M85.5,144.1h8.2v8.2h-8.2V144.1z M85.5,128.3h8.2v8.2h-8.2V128.3z M71.8,176.7h8.2v8.2h-8.2
			V176.7z M71.8,160.4h8.2v8.2h-8.2V160.4z M71.8,144.1h8.2v8.2h-8.2V144.1z M71.8,128.3h8.2v8.2h-8.2V128.3z"/>
		
			<rect x="72.6" y="39.9" transform="matrix(-1 -4.488067e-11 4.488067e-11 -1 156.9049 93.5792)" class="st3" width="11.8" height="13.7"/>
		
			<rect x="87.3" y="39.9" transform="matrix(-1 -4.503521e-11 4.503521e-11 -1 186.289 93.5792)" class="st3" width="11.8" height="13.7"/>
	</g>
	<polygon class="st3" points="141,51.5 141,61.3 68.7,61.3 68.7,229.9 61.8,229.9 61.8,61.3 61.8,56.4 61.8,51.5 	"/>
	<path class="st0" d="M78.4,24.8c0-0.7,3.6-0.8,4.8-1.8c5.5-4.8,11.6-7.1,18.9-6.9c3.5,0.1,6.8-2.1,9.5-4.4
		c12.9-11.1,19.3-5.6,27.5,2.2c5.3,5,10.2,5.4,16.3,3.1c7.9-3.1,10.6-2.6,16.3,3.7c2.6,2.8,6,3.5,9.5,4.1c2.4,0.4,4.7,0.9,6.9,1.8
		c0,0.5-0.1,1-0.1,1.5c-37.4,0-74.7,0-112.1,0C75.3,26.6,78,25.9,78.4,24.8z"/>
</g>
<line class="st4" x1="199" y1="230.8" x2="0" y2="230.8"/>
</svg>
