<?xml version="1.0" encoding="utf-8"?>
<!-- Generator: Adobe Illustrator 21.0.0, SVG Export Plug-In . SVG Version: 6.00 Build 0)  -->
<svg version="1.1" id="layer" xmlns="http://www.w3.org/2000/svg" xmlns:xlink="http://www.w3.org/1999/xlink" x="0px" y="0px"
	 viewBox="0 0 652 221" style="enable-background:new 0 0 652 221;" xml:space="preserve">
<style type="text/css">
	.st0{fill:none;}
	.st1{fill:#44307A;}
</style>
<g>
	<path class="st0" d="M201.3,77.9c-17.7,0-32.1,14.3-32.1,32.1c0,17.7,14.4,32.1,32.1,32.1c17.7,0,32.1-14.3,32.1-32.1
		C233.4,92.3,219.1,77.9,201.3,77.9z"/>
	<path class="st1" d="M78.1,77.9c13.4,0,24.8,8.1,29.7,19.6h26.1c-5.7-25.5-28.5-44.6-55.8-44.6C46.6,52.9,21,78.4,21,110
		c0,31.6,25.6,57.1,57,57.1c27.3,0,50.1-19.1,55.8-44.6h-26.1c-4.9,11.5-16.3,19.6-29.6,19.6C60.4,142.1,46,127.8,46,110
		S60.4,77.9,78.1,77.9z"/>
	<path class="st1" d="M201.4,52.9c-31.6,0-57.1,25.6-57.1,57.1s25.6,57.1,57.1,57.1c11.9,0,22.9-3.6,32.1-9.9v8.1h25V110
		C258.5,78.4,232.9,52.9,201.4,52.9z M201.3,142.1c-17.7,0-32.1-14.4-32.1-32.1c0-17.8,14.4-32.1,32.1-32.1
		c17.8,0,32.1,14.4,32.1,32.1C233.4,127.8,219,142.1,201.3,142.1z"/>
	<path class="st1" d="M593.6,54.6L561,128l-26.1-58.5c-4.1-9.3-13.3-14.8-22.8-14.8H480v-1.8c0-9.9,8-17.9,17.9-17.9
		c2.6,0,5,0.6,7.3,1.5l10-22.8c-5.3-2.4-11.2-3.7-17.4-3.7c-23.7,0-42.9,19.2-42.9,42.9v1.8h-16.1v25h16.1v85.7h25V79.7H512
		l35.2,79.1l-7,15.6c-4,9-14.6,13.1-23.6,9.1l-10.2,22.8c21.6,9.6,47-0.1,56.6-21.7l58-130H593.6z"/>
	<rect x="399.6" y="54.6" class="st1" width="25" height="110.7"/>
	<circle class="st1" cx="412.1" cy="24.3" r="14.3"/>
	<path class="st1" d="M328.1,52.9c-11.9,0-22.9,3.7-32.1,9.9v-51h-25V110c0,31.6,25.6,57.1,57.1,57.1s57.1-25.6,57.1-57.1
		S359.7,52.9,328.1,52.9z M328.1,142.1c-17.7,0-32.1-14.4-32.1-32.1s14.4-32.1,32.1-32.1s32.1,14.4,32.1,32.1
		S345.8,142.1,328.1,142.1z"/>
</g>
</svg>
