<?xml version="1.0" encoding="utf-8"?>
<!-- Generator: Adobe Illustrator 21.0.0, SVG Export Plug-In . SVG Version: 6.00 Build 0)  -->
<svg version="1.1" id="Layer_1" xmlns="http://www.w3.org/2000/svg" xmlns:xlink="http://www.w3.org/1999/xlink" x="0px" y="0px"
	 viewBox="0 0 539.9 404.8" style="enable-background:new 0 0 539.9 404.8;" xml:space="preserve">
<style type="text/css">
	.st0{fill:#644EFA;}
	.st1{fill:none;}
	.st2{fill:#7D9CDB;}
	.st3{clip-path:url(#SVGID_4_);}
	.st4{fill:#1C253D;}
	.st5{fill:#E4F2FE;}
	.st6{clip-path:url(#SVGID_6_);fill:#FFFFFF;}
	.st7{fill:#DDD8F8;}
	.st8{fill:#D3EBFA;}
	.st9{fill:#B8DEF5;}
	.st10{fill:#B8DEF5;stroke:#B8DEF5;stroke-width:2.2455;stroke-miterlimit:10;}
	.st11{fill:#3C6584;}
	.st12{fill:#719CC9;}
	.st13{fill:#B8DEF5;stroke:#B8DEF5;stroke-width:1.2482;stroke-miterlimit:10;}
	.st14{fill:#FFFFFF;}
	.st15{fill:#BAB6DB;}
	.st16{fill:#797E89;}
</style>
<path class="st0" d="M229,391.8C68.6,402-17.5,265.6,42.5,132C51,113.2,62,95.5,76.3,79.5c92.8-103.9,250.4-50.3,318.9,16.7
	c39.9,39,121.4,33.9,121.4,160.8c0,77.6-70,123.6-133.7,125.9L229,391.8L229,391.8z"/>
<g>
	<defs>
		<path id="SVGID_1_" d="M229,391.8C68.6,402-17.5,265.6,42.5,132C51,113.2,62,95.5,76.3,79.5c92.8-103.9,250.4-50.3,318.9,16.7
			c39.9,39,121.4,33.9,121.4,160.8c0,77.6-70,123.6-133.7,125.9L229,391.8L229,391.8z"/>
	</defs>
	<clipPath id="SVGID_2_">
		<use xlink:href="#SVGID_1_"  style="overflow:visible;"/>
	</clipPath>
</g>
<path class="st1" d="M229,391.8C68.6,402-17.5,265.6,42.5,132C51,113.2,62,95.5,76.3,79.5c92.8-103.9,250.4-50.3,318.9,16.7
	c39.9,39,121.4,33.9,121.4,160.8c0,77.6-70,123.6-133.7,125.9L229,391.8L229,391.8z"/>
<path class="st2" d="M79.9,346"/>
<g>
	<defs>
		<path id="SVGID_3_" d="M229,391.8C68.6,402-17.5,265.6,42.5,132c8.4-18.7,9.6-60.5,23.9-76.4C159.2-48.3,352.1-62,420.7,5
			c39.9,39,95.9,125.1,95.9,252.1c0,77.6-70,123.6-133.7,125.9L229,391.8L229,391.8z"/>
	</defs>
	<clipPath id="SVGID_4_">
		<use xlink:href="#SVGID_3_"  style="overflow:visible;"/>
	</clipPath>
	<g class="st3">
		<path class="st4" d="M389,495.2H158.7c-6.6,0-12-5.4-12-12V23.9c0-6.6,5.4-12,12-12H389c6.6,0,12,5.4,12,12v459.3
			C401,489.8,395.6,495.2,389,495.2z"/>
		<g>
			<path class="st5" d="M369.5,476.2h-194c-6.6,0-12-5.4-12-12V43.8c0-6.6,5.4-12,12-12h194c6.6,0,12,5.4,12,12v420.4
				C381.5,470.8,376.1,476.2,369.5,476.2z"/>
			<g>
				<defs>
					<path id="SVGID_5_" d="M369.5,476.2h-194c-6.6,0-12-5.4-12-12V43.8c0-6.6,5.4-12,12-12h194c6.6,0,12,5.4,12,12v420.4
						C381.5,470.8,376.1,476.2,369.5,476.2z"/>
				</defs>
				<clipPath id="SVGID_6_">
					<use xlink:href="#SVGID_5_"  style="overflow:visible;"/>
				</clipPath>
				<rect x="157.3" y="21.9" class="st6" width="226.7" height="81.1"/>
			</g>
			<path class="st0" d="M286.9,58.5c-1.7-5-5.8-9-10.8-10.6c-2.1-0.7-4.1-1-6-1c-2,0-4,0.3-6,1c-5,1.7-9.1,5.6-10.8,10.6
				c-2,5.8-1.1,11.4,1.6,15.8c0.8,1.3,1.9,2.9,3.7,5.2l0,0c2.2,2.9,4.7,5.7,7.3,8.3c0.7,0.7,1.4,1.4,2.1,2c0.1,0.1,0.2,0.2,0.2,0.2
				c0.3,0.3,0.6,0.5,0.9,0.7c0.5,0.4,0.9,0.7,1.1,0.8c0.2-0.1,0.6-0.4,1.1-0.8c0.3-0.2,0.6-0.4,0.9-0.7c0.1-0.1,0.2-0.2,0.2-0.2
				c0.7-0.6,1.4-1.3,2.1-2c2.6-2.6,5-5.4,7.3-8.3l0,0c1.8-2.2,3-3.9,3.7-5.2C288,69.9,288.9,64.3,286.9,58.5z M278.1,76
				c-1.5,1.2-3.7,1.8-6.6,1.8h-3.4v-6.9h5.7v-0.7h-5.7V61h6.8v-0.7h-7.6v17.4h-5.5V53.9h8.6c3.1,0,5.4,0.6,7,1.7
				c1.6,1.1,2.4,2.8,2.4,4.9c0,1.2-0.3,2.3-0.9,3.2c-0.6,0.9-1.4,1.5-2.5,1.9c1.2,0.3,2.2,0.9,2.9,1.8c0.7,0.9,1,2,1,3.3
				C280.3,73,279.6,74.8,278.1,76z"/>
			<path class="st7" d="M312.1,281.1h-67c-0.8,0-1.5,0.7-1.5,1.5v3c0,0.8,0.7,1.5,1.5,1.5h67c0.8,0,1.5-0.7,1.5-1.5v-3
				C313.6,281.7,312.9,281.1,312.1,281.1z"/>
			<path class="st7" d="M308.5,291.4h-63.4c-0.8,0-1.5,0.7-1.5,1.5v3c0,0.8,0.7,1.5,1.5,1.5h63.4c0.8,0,1.5-0.7,1.5-1.5v-3
				C310,292.1,309.3,291.4,308.5,291.4z"/>
			<path class="st7" d="M330.4,300.8h-85.3c-0.8,0-1.5,0.7-1.5,1.5v3c0,0.8,0.7,1.5,1.5,1.5h85.3c0.8,0,1.5-0.7,1.5-1.5v-3
				C331.9,301.4,331.2,300.8,330.4,300.8z"/>
			<path class="st8" d="M259.8,248.5h-76.7c-4.7,0-8.5-3.8-8.5-8.5v-89.7c0-4.7,3.8-8.5,8.5-8.5h76.7c4.7,0,8.5,3.8,8.5,8.5V240
				C268.3,244.6,264.5,248.5,259.8,248.5z"/>
			<path class="st8" d="M360.8,248.5h-76.7c-4.7,0-8.5-3.8-8.5-8.5v-89.7c0-4.7,3.8-8.5,8.5-8.5h76.7c4.7,0,8.5,3.8,8.5,8.5V240
				C369.3,244.6,365.5,248.5,360.8,248.5z"/>
			<g>
				<rect x="206.3" y="206.3" class="st7" width="11.8" height="34.6"/>
				<rect x="191" y="171.1" class="st7" width="11.8" height="69.8"/>
				<rect x="221.5" y="182.4" class="st7" width="11.8" height="58.6"/>
				<rect x="238.3" y="165.3" class="st7" width="11.8" height="75.7"/>
			</g>
			<g>
				<g>
					<polygon class="st9" points="306.7,233.1 295.2,208.3 288.3,224.7 286.2,223.8 295.1,202.7 306.1,226.4 317.4,181 331,222.6 
						347,147.4 352.1,205.3 357.3,223.5 355.1,224.1 349.8,205.6 346.1,162.6 331.5,231.2 317.7,189.1 					"/>
				</g>
				<circle class="st10" cx="296.3" cy="206.5" r="3.7"/>
				<circle class="st10" cx="318.6" cy="181.5" r="3.4"/>
				<circle class="st10" cx="330.8" cy="227.2" r="3.7"/>
				<circle class="st10" cx="345.7" cy="152.7" r="3.4"/>
				<circle class="st10" cx="350.4" cy="200.9" r="3.4"/>
				<circle class="st10" cx="287.3" cy="223.5" r="3.7"/>
				<circle class="st10" cx="356.2" cy="223.8" r="3.4"/>
				<circle class="st10" cx="305.4" cy="229.7" r="3.7"/>
			</g>
			<circle class="st7" cx="210.5" cy="293.9" r="22.7"/>
			<path class="st10" d="M207.5,337.5h67c0.8,0,1.5,0.7,1.5,1.5v3c0,0.8-0.7,1.5-1.5,1.5h-67c-0.8,0-1.5-0.7-1.5-1.5v-3
				C206.1,338.2,206.7,337.5,207.5,337.5z"/>
			<path class="st10" d="M211.2,347.9h63.4c0.8,0,1.5,0.7,1.5,1.5v3c0,0.8-0.7,1.5-1.5,1.5h-63.4c-0.8,0-1.5-0.7-1.5-1.5v-3
				C209.7,348.5,210.4,347.9,211.2,347.9z"/>
			<path class="st10" d="M189.3,357.2h85.3c0.8,0,1.5,0.7,1.5,1.5v3c0,0.8-0.7,1.5-1.5,1.5h-85.3c-0.8,0-1.5-0.7-1.5-1.5v-3
				C187.8,357.9,188.4,357.2,189.3,357.2z"/>
			<circle class="st10" cx="309.2" cy="350.3" r="22.7"/>
		</g>
	</g>
</g>
<path class="st11" d="M479.9,292.3v41.4c0,5.9-4.8,10.7-10.7,10.7h-87.8l-20.7,8.9c-3.8,1.6-8.1-1.1-8.1-5.3v-55.7
	c0-5.9,4.8-10.7,10.7-10.7h105.8C475.1,281.5,479.9,286.3,479.9,292.3z"/>
<path class="st12" d="M479.9,287.4v41.4c0,5.9-4.8,10.7-10.7,10.7h-87.8l-20.7,8.9c-3.8,1.6-8.1-1.1-8.1-5.3v-55.7
	c0-5.9,4.8-10.7,10.7-10.7h105.8C475.1,276.7,479.9,281.5,479.9,287.4z"/>
<circle class="st13" cx="352.6" cy="72.7" r="12.6"/>
<g>
	<path class="st14" d="M374.7,311l0-2l8,0l0,2L374.7,311z M377.7,314l0-8l2,0l0,8L377.7,314z"/>
	<path class="st14" d="M389.6,315.9c-0.6,0-1.2-0.1-1.7-0.3c-0.6-0.2-1.1-0.5-1.5-1c-0.4-0.4-0.8-1-1.1-1.8
		c-0.3-0.7-0.4-1.6-0.4-2.7c0-1,0.1-1.9,0.3-2.6c0.2-0.8,0.5-1.4,0.9-2c0.4-0.5,0.9-1,1.5-1.2s1.2-0.4,1.9-0.4
		c0.8,0,1.5,0.1,2.1,0.4s1.1,0.7,1.4,1.2c0.4,0.5,0.6,1.1,0.7,1.7l-2.4,0c-0.1-0.4-0.3-0.7-0.6-1c-0.3-0.2-0.7-0.3-1.1-0.3
		c-0.8,0-1.3,0.3-1.7,1c-0.4,0.7-0.6,1.6-0.6,2.7l0.1,0c0.2-0.3,0.4-0.6,0.7-0.9c0.3-0.2,0.6-0.4,1-0.6c0.4-0.1,0.8-0.2,1.2-0.2
		c0.7,0,1.3,0.2,1.8,0.5c0.5,0.3,1,0.8,1.3,1.3c0.3,0.6,0.5,1.2,0.5,1.9c0,0.8-0.2,1.5-0.5,2.1c-0.4,0.6-0.9,1.1-1.5,1.4
		S390.4,315.9,389.6,315.9z M389.6,314c0.4,0,0.7-0.1,1-0.3c0.3-0.2,0.5-0.4,0.7-0.7c0.2-0.3,0.3-0.7,0.3-1c0-0.4-0.1-0.7-0.3-1
		c-0.2-0.3-0.4-0.5-0.7-0.7c-0.3-0.2-0.6-0.3-1-0.3c-0.3,0-0.5,0.1-0.8,0.2s-0.4,0.3-0.6,0.4c-0.2,0.2-0.3,0.4-0.4,0.7
		c-0.1,0.2-0.2,0.5-0.1,0.8c0,0.4,0.1,0.7,0.3,1c0.2,0.3,0.4,0.6,0.7,0.7C388.8,313.9,389.2,314,389.6,314z"/>
	<path class="st14" d="M399.9,315.9c-0.8,0-1.5-0.1-2.1-0.4c-0.6-0.3-1.1-0.7-1.5-1.2c-0.4-0.5-0.6-1.1-0.6-1.8l2.4,0
		c0,0.5,0.2,0.8,0.6,1.1c0.4,0.3,0.8,0.4,1.3,0.4c0.4,0,0.7-0.1,1-0.3c0.3-0.2,0.5-0.4,0.7-0.7c0.2-0.3,0.2-0.7,0.2-1.1
		c0-0.4-0.1-0.8-0.3-1.1s-0.4-0.6-0.7-0.7c-0.3-0.2-0.7-0.3-1-0.3c-0.3,0-0.7,0.1-1,0.2c-0.3,0.1-0.6,0.3-0.7,0.6l-2.2-0.4l0.5-6.1
		l7.1,0l0,2l-5.1,0l-0.3,2.9h0.1c0.2-0.3,0.5-0.5,0.9-0.7s0.9-0.3,1.4-0.3c0.7,0,1.3,0.2,1.9,0.5c0.6,0.3,1,0.8,1.3,1.3
		s0.5,1.2,0.5,2c0,0.8-0.2,1.5-0.5,2.1c-0.4,0.6-0.9,1.1-1.5,1.4C401.5,315.7,400.8,315.9,399.9,315.9z"/>
	<path class="st14" d="M410.5,315.9c-1,0-1.8-0.2-2.5-0.7c-0.7-0.5-1.2-1.2-1.6-2.1s-0.6-2-0.6-3.3c0-1.3,0.2-2.4,0.6-3.2
		c0.4-0.9,0.9-1.6,1.6-2.1c0.7-0.5,1.5-0.7,2.5-0.7c1,0,1.8,0.2,2.5,0.7c0.7,0.5,1.2,1.1,1.6,2c0.4,0.9,0.6,2,0.6,3.2
		c0,1.3-0.2,2.4-0.5,3.3c-0.4,0.9-0.9,1.6-1.6,2.1C412.4,315.7,411.5,315.9,410.5,315.9z M410.5,313.9c0.7,0,1.2-0.3,1.6-1
		c0.4-0.7,0.6-1.7,0.6-3c0-0.9-0.1-1.6-0.3-2.2c-0.2-0.6-0.4-1-0.8-1.3c-0.3-0.3-0.7-0.4-1.2-0.4c-0.7,0-1.2,0.3-1.6,1
		s-0.6,1.7-0.6,3c0,0.9,0.1,1.6,0.3,2.2c0.2,0.6,0.4,1,0.8,1.3C409.7,313.7,410.1,313.9,410.5,313.9z"/>
	<path class="st14" d="M429,303.9l1.1,0l0,7.7c0,0.8-0.2,1.5-0.5,2.1c-0.4,0.6-0.9,1.1-1.5,1.5c-0.7,0.4-1.4,0.5-2.3,0.5
		c-0.9,0-1.6-0.2-2.3-0.5c-0.7-0.4-1.2-0.8-1.6-1.5c-0.4-0.6-0.6-1.3-0.6-2.1l0-7.7l1.1,0l0,7.6c0,0.6,0.1,1.2,0.4,1.6
		c0.3,0.5,0.7,0.9,1.2,1.1c0.5,0.3,1.1,0.4,1.8,0.4c0.7,0,1.3-0.1,1.8-0.4c0.5-0.3,0.9-0.7,1.2-1.1c0.3-0.5,0.4-1,0.4-1.7L429,303.9
		z"/>
	<path class="st14" d="M439.5,306.8c-0.1-0.6-0.4-1.2-0.9-1.5c-0.5-0.4-1.1-0.6-1.9-0.6c-0.5,0-1,0.1-1.4,0.3s-0.7,0.4-1,0.8
		c-0.2,0.3-0.3,0.7-0.3,1.1c0,0.3,0.1,0.6,0.2,0.8c0.1,0.2,0.3,0.4,0.5,0.6s0.5,0.3,0.8,0.4c0.3,0.1,0.6,0.2,0.8,0.3l1.2,0.3
		c0.4,0.1,0.7,0.2,1.1,0.4c0.4,0.2,0.7,0.4,1,0.6c0.3,0.2,0.6,0.5,0.7,0.9c0.2,0.3,0.3,0.8,0.3,1.2c0,0.6-0.2,1.2-0.5,1.7
		c-0.3,0.5-0.8,0.9-1.4,1.2c-0.6,0.3-1.3,0.4-2.2,0.4c-0.8,0-1.5-0.1-2.1-0.4c-0.6-0.3-1-0.6-1.4-1.1c-0.3-0.5-0.5-1-0.6-1.6l1.1,0
		c0,0.5,0.2,0.8,0.5,1.2c0.3,0.3,0.6,0.6,1,0.7c0.4,0.2,0.9,0.2,1.4,0.2c0.6,0,1.1-0.1,1.5-0.3c0.5-0.2,0.8-0.5,1.1-0.8
		c0.3-0.4,0.4-0.8,0.4-1.2c0-0.4-0.1-0.7-0.3-1c-0.2-0.3-0.5-0.5-0.9-0.7s-0.8-0.3-1.3-0.5l-1.4-0.4c-0.9-0.3-1.6-0.6-2.1-1.1
		c-0.5-0.5-0.8-1.1-0.8-1.8c0-0.6,0.2-1.2,0.5-1.7c0.3-0.5,0.8-0.8,1.4-1.1c0.6-0.3,1.2-0.4,1.9-0.4c0.7,0,1.4,0.1,1.9,0.4
		c0.6,0.3,1,0.6,1.3,1.1c0.3,0.5,0.5,1,0.5,1.6L439.5,306.8z"/>
	<path class="st14" d="M446.7,315.5l-3.4,0l-0.1-11.6l3.6,0c1.1,0,2.1,0.2,2.9,0.7s1.4,1.1,1.8,2c0.4,0.9,0.6,1.9,0.6,3.1
		c0,1.2-0.2,2.3-0.6,3.1s-1,1.5-1.9,2C448.8,315.2,447.9,315.5,446.7,315.5z M444.3,314.5l2.3,0c1,0,1.8-0.2,2.5-0.6
		c0.7-0.4,1.2-1,1.5-1.7c0.3-0.7,0.5-1.6,0.5-2.6c0-1-0.2-1.9-0.5-2.6c-0.3-0.7-0.8-1.3-1.5-1.7c-0.6-0.4-1.4-0.6-2.4-0.6l-2.5,0
		L444.3,314.5z"/>
</g>
<path class="st15" d="M78.2,198.5v41.4c0,5.9,4.8,10.7,10.7,10.7h87.8l20.7,8.9c3.8,1.6,8.1-1.1,8.1-5.3v-55.7
	c0-5.9-4.8-10.7-10.7-10.7H89C83,187.8,78.2,192.6,78.2,198.5z"/>
<path class="st7" d="M79.3,193.4v41.4c0,5.9,4.8,10.7,10.7,10.7h87.8l20.7,8.9c3.8,1.6,8.1-1.1,8.1-5.3v-55.7
	c0-5.9-4.8-10.7-10.7-10.7H90C84.1,182.7,79.3,187.5,79.3,193.4z"/>
<g>
	<path class="st14" d="M93.9,216.2l0-2.1l8.1,0l0,2.1L93.9,216.2z M96.9,219.2l0-8.1l2.1,0l0,8.1L96.9,219.2z"/>
	<path class="st14" d="M104.1,221l0-1.8l4.2-3.9c0.4-0.3,0.7-0.7,0.9-0.9c0.2-0.3,0.4-0.6,0.6-0.8c0.1-0.3,0.2-0.6,0.2-0.9
		c0-0.3-0.1-0.6-0.2-0.9c-0.2-0.3-0.4-0.4-0.6-0.6c-0.3-0.1-0.6-0.2-0.9-0.2c-0.4,0-0.7,0.1-0.9,0.2c-0.3,0.1-0.5,0.4-0.6,0.6
		c-0.1,0.3-0.2,0.6-0.2,1l-2.4,0c0-0.8,0.2-1.4,0.5-2c0.3-0.6,0.8-1,1.5-1.3c0.6-0.3,1.4-0.5,2.2-0.5c0.8,0,1.6,0.1,2.2,0.4
		c0.6,0.3,1.1,0.7,1.5,1.2c0.4,0.5,0.5,1.1,0.5,1.8c0,0.4-0.1,0.9-0.3,1.3c-0.2,0.4-0.5,0.9-0.9,1.4c-0.4,0.5-1.1,1.2-1.9,1.9
		l-1.7,1.7v0.1l4.9,0l0,2L104.1,221z"/>
	<path class="st14" d="M118.9,221.1c-1,0-1.8-0.2-2.6-0.7c-0.7-0.5-1.3-1.2-1.7-2.1c-0.4-0.9-0.6-2-0.6-3.3c0-1.3,0.2-2.4,0.6-3.3
		c0.4-0.9,0.9-1.6,1.6-2.1c0.7-0.5,1.6-0.7,2.5-0.7c1,0,1.8,0.2,2.5,0.7c0.7,0.5,1.3,1.2,1.7,2.1c0.4,0.9,0.6,2,0.6,3.3
		c0,1.3-0.2,2.4-0.6,3.3c-0.4,0.9-0.9,1.6-1.6,2.1C120.7,220.9,119.9,221.1,118.9,221.1z M118.9,219.1c0.7,0,1.2-0.3,1.6-1
		c0.4-0.7,0.6-1.7,0.6-3.1c0-0.9-0.1-1.6-0.3-2.2c-0.2-0.6-0.4-1-0.8-1.3c-0.3-0.3-0.7-0.4-1.2-0.4c-0.7,0-1.2,0.3-1.6,1
		c-0.4,0.7-0.6,1.7-0.6,3c0,0.9,0.1,1.7,0.3,2.3c0.2,0.6,0.4,1.1,0.8,1.4S118.4,219.1,118.9,219.1z"/>
	<path class="st14" d="M130.1,221.1c-1,0-1.8-0.2-2.6-0.7c-0.7-0.5-1.3-1.2-1.7-2.1c-0.4-0.9-0.6-2-0.6-3.3c0-1.3,0.2-2.4,0.6-3.3
		c0.4-0.9,0.9-1.6,1.6-2.1c0.7-0.5,1.6-0.7,2.5-0.7s1.8,0.2,2.5,0.7c0.7,0.5,1.3,1.2,1.7,2.1c0.4,0.9,0.6,2,0.6,3.3
		c0,1.3-0.2,2.4-0.6,3.3c-0.4,0.9-0.9,1.6-1.6,2.1C131.9,220.8,131.1,221.1,130.1,221.1z M130.1,219c0.7,0,1.2-0.3,1.6-1
		c0.4-0.7,0.6-1.7,0.6-3.1c0-0.9-0.1-1.6-0.3-2.2c-0.2-0.6-0.4-1-0.8-1.3c-0.3-0.3-0.7-0.4-1.2-0.4c-0.7,0-1.2,0.3-1.6,1
		c-0.4,0.7-0.6,1.7-0.6,3c0,0.9,0.1,1.7,0.3,2.3c0.2,0.6,0.4,1.1,0.8,1.4C129.2,218.9,129.6,219,130.1,219z"/>
	<path class="st14" d="M140.9,209l3.7,10.4l0.1,0l3.6-10.4l1.1,0l-4.2,11.8l-1.2,0l-4.3-11.8L140.9,209z"/>
	<path class="st14" d="M152.6,208.9l0.1,11.8l-1.1,0l-0.1-11.8L152.6,208.9z"/>
	<path class="st14" d="M155.8,220.7l-1.1,0l4.2-11.8l1.2,0l4.3,11.8l-1.1,0l-3.7-10.4l-0.1,0L155.8,220.7z M156.6,216.2l5.8,0l0,1
		l-5.8,0L156.6,216.2z"/>
	<path class="st14" d="M170.8,208.9l1.1,0l0,8.5c0,0.8-0.1,1.4-0.4,1.9c-0.3,0.5-0.6,0.9-1.1,1.2c-0.5,0.3-1,0.4-1.6,0.4
		c-0.6,0-1.2-0.1-1.6-0.3c-0.5-0.2-0.9-0.5-1.1-0.9c-0.3-0.4-0.4-0.9-0.4-1.4l1.1,0c0,0.3,0.1,0.7,0.3,0.9c0.2,0.3,0.4,0.5,0.8,0.6
		c0.3,0.1,0.7,0.2,1.1,0.2c0.4,0,0.8-0.1,1.1-0.3c0.3-0.2,0.6-0.5,0.7-0.8c0.2-0.4,0.3-0.8,0.3-1.4L170.8,208.9z"/>
	<path class="st14" d="M175.1,220.6l-0.1-11.8l6.8,0l0,1l-5.8,0l0,4.4l5.4,0l0,1l-5.4,0l0,4.4l5.9,0l0,1L175.1,220.6z"/>
	<path class="st14" d="M191.1,211.7c-0.1-0.7-0.4-1.2-0.9-1.6c-0.5-0.4-1.2-0.6-1.9-0.6c-0.5,0-1,0.1-1.4,0.3
		c-0.4,0.2-0.7,0.5-1,0.8s-0.4,0.7-0.3,1.1c0,0.3,0.1,0.6,0.2,0.8c0.1,0.2,0.3,0.4,0.5,0.6c0.2,0.2,0.5,0.3,0.8,0.4
		c0.3,0.1,0.6,0.2,0.8,0.3l1.2,0.4c0.4,0.1,0.8,0.2,1.1,0.4c0.4,0.2,0.7,0.4,1,0.6c0.3,0.2,0.6,0.5,0.8,0.9c0.2,0.4,0.3,0.8,0.3,1.3
		c0,0.6-0.2,1.2-0.5,1.7c-0.3,0.5-0.8,0.9-1.4,1.2c-0.6,0.3-1.3,0.4-2.2,0.5c-0.8,0-1.5-0.1-2.1-0.4c-0.6-0.3-1.1-0.6-1.4-1.1
		c-0.3-0.5-0.5-1-0.6-1.6l1.1,0c0,0.5,0.2,0.9,0.5,1.2c0.3,0.3,0.6,0.6,1.1,0.7s0.9,0.2,1.4,0.2c0.6,0,1.1-0.1,1.6-0.3
		c0.5-0.2,0.8-0.5,1.1-0.8c0.3-0.4,0.4-0.8,0.4-1.2c0-0.4-0.1-0.7-0.3-1c-0.2-0.3-0.5-0.5-0.9-0.7c-0.4-0.2-0.8-0.3-1.3-0.5
		l-1.4-0.4c-0.9-0.3-1.6-0.6-2.2-1.1c-0.5-0.5-0.8-1.1-0.8-1.9c0-0.6,0.2-1.2,0.5-1.7s0.8-0.9,1.4-1.1c0.6-0.3,1.2-0.4,2-0.4
		c0.7,0,1.4,0.1,1.9,0.4c0.6,0.3,1,0.6,1.3,1.1c0.3,0.5,0.5,1,0.5,1.6L191.1,211.7z"/>
</g>
<path class="st16" d="M293.2,23.7h-40.9c-1.3,0-2.4-1.1-2.4-2.4v0c0-1.3,1.1-2.4,2.4-2.4h40.9c1.3,0,2.4,1.1,2.4,2.4v0
	C295.7,22.6,294.6,23.7,293.2,23.7z"/>
</svg>
