<?xml version="1.0" encoding="utf-8"?>
<!-- Generator: Adobe Illustrator 21.0.0, SVG Export Plug-In . SVG Version: 6.00 Build 0)  -->
<svg version="1.1"
	 id="Layer_1" text-rendering="geometricPrecision" image-rendering="optimizeQuality" shape-rendering="geometricPrecision"
	 xmlns="http://www.w3.org/2000/svg" xmlns:xlink="http://www.w3.org/1999/xlink" x="0px" y="0px" viewBox="0 0 2500 622.4"
	 style="enable-background:new 0 0 2500 622.4;" xml:space="preserve">
<style type="text/css">
	.st0{fill:#F68E1E;}
</style>
<g>
	<path class="st0" d="M140.4,211.3c-16.2,0-30.5-6.7-41-16.2v375.5h82V195.1C170.9,204.6,156.6,211.3,140.4,211.3L140.4,211.3z"/>
	<ellipse class="st0" cx="140.4" cy="122.6" rx="45.7" ry="46.7"/>
	<path class="st0" d="M249,192.2h78.1v55.3l1.9,1.9c12.4-21,28.6-37.2,48.6-49.6c20-12.4,42.9-18.1,66.7-18.1
		c41,0,73.4,10.5,96.2,32.4c23.8,21,35.3,53.4,35.3,96.2v259.2h-82V332.3c-0.9-29.5-7.6-51.5-19.1-64.8s-29.5-20-54.3-20
		c-14.3,0-26.7,2.9-37.2,7.6c-11.4,4.8-20,12.4-27.6,21c-7.6,8.6-13.3,20-18.1,31.5c-4.8,12.4-6.7,24.8-6.7,39.1v223h-82L249,192.2
		L249,192.2z M602.6,192.2h61v-31.5c0-23.8,2.9-42.9,8.6-58.1s13.3-26.7,22.9-34.3c9.5-7.6,21-13.3,32.4-16.2
		c12.4-2.9,24.8-3.8,38.1-3.8c26.7,0,45.7,1.9,57.2,4.8v64.8c-5.7-1.9-10.5-2.9-17.2-2.9c-3.8,0-11.4-0.9-19.1-0.9
		c-11.4,0-21,2.9-28.6,7.6c-7.6,5.7-11.4,16.2-11.4,31.5v39.1H816v61.9h-69.6v315.4h-82V254.2h-61L602.6,192.2L602.6,192.2z
		 M1014.3,580.1c-29.5,0-56.2-4.8-79.1-15.2c-22.9-9.5-42.9-23.8-59.1-41c-16.2-17.2-28.6-38.1-37.2-62.9s-12.4-51.5-12.4-80.1
		c0-28.6,3.8-55.3,12.4-80.1c8.6-24.8,21-45.7,37.2-62.9s35.3-31.5,59.1-41c22.9-9.5,49.6-15.2,79.1-15.2c29.5,0,56.2,4.8,79.1,15.2
		c22.9,9.5,42.9,23.8,59.1,41c16.2,17.2,28.6,38.1,37.2,62.9c8.6,24.8,12.4,50.5,12.4,80.1c0,29.5-3.8,56.2-12.4,80.1
		c-8.6,24.8-21,45.7-37.2,62.9c-16.2,17.2-36.2,31.5-59.1,41C1070.5,575.3,1043.8,580.1,1014.3,580.1z M1014.3,514.3
		c18.1,0,34.3-3.8,47.6-11.4c13.3-7.6,24.8-18.1,33.4-30.5c9-13,15.5-27.5,19.1-42.9c3.8-16.2,5.7-32.4,5.7-48.6s-1.9-32.4-5.7-48.6
		s-10.5-30.5-19.1-42.9c-8.6-12.4-20-22.9-33.4-30.5c-13.3-7.6-29.5-11.4-47.6-11.4c-18.1,0-34.3,3.8-47.6,11.4
		c-13.3,7.6-24.8,18.1-33.4,30.5c-8.6,12.4-15.2,26.7-19.1,42.9c-3.8,16.2-5.7,32.4-5.7,48.6s1.9,32.4,5.7,48.6
		c3.8,16.2,10.5,30.5,19.1,42.9c8.6,12.4,20,22.9,33.4,30.5C979.9,510.5,996.1,514.3,1014.3,514.3z M1250.6,48.3h82v192.5h1.9
		c5.7-9.5,12.4-17.2,21-24.8c8.6-7.6,17.2-13.3,26.7-19.1c9.5-4.8,20-8.6,30.5-11.4c10.5-2.9,21.9-3.8,32.4-3.8
		c29.5,0,54.3,4.8,76.2,15.2c21.9,10.5,40,24.8,54.3,42.9c14.3,18.1,24.8,40,32.4,63.8c7.6,24.8,10.5,50.5,10.5,78.1
		c0,25.7-2.9,49.6-9.5,73.4c-6.7,23.8-16.2,44.8-29.5,62.9c-13.3,18.1-29.5,33.4-49.6,43.8c-20,11.4-43.8,16.2-71.5,16.2
		c-12.4,0-24.8-0.9-38.1-2.9c-12.4-1.9-24.8-4.8-36.2-9.5c-11.4-4.8-21.9-11.4-31.5-19.1c-9.5-7.6-17.2-18.1-23.8-30.5h-0.9v51.5
		h-78.1L1250.6,48.3L1250.6,48.3z M1536.5,381.8c0-17.2-1.9-33.4-6.7-49.6c-4.8-16.2-10.5-30.5-19.1-42.9
		c-8.6-12.4-19.1-22.9-32.4-29.5c-13.3-7.6-27.6-11.4-44.8-11.4c-34.3,0-61,12.4-78.1,36.2c-17.2,24.8-26.7,57.2-26.7,97.2
		c0,19.1,1.9,36.2,6.7,53.4c4.8,16.2,11.4,30.5,21,41.9c9.5,11.4,20,21,32.4,27.6c12.4,6.7,27.6,10.5,43.8,10.5
		c19.1,0,34.3-3.8,47.6-11.4c13.3-7.6,23.8-18.1,32.4-30.5c8.6-12.4,14.3-26.7,18.1-41.9C1534.6,414.3,1536.5,398.1,1536.5,381.8
		L1536.5,381.8z M1976.8,485.7c0,10.5,0.9,17.2,3.8,21.9c2.9,4.8,7.6,6.7,15.2,6.7h8.6c3.8,0,7.6-0.9,11.4-1.9v58.1
		c-2.9,0.9-6.7,1.9-11.4,2.9c-4.8,0.9-9.5,1.9-14.3,2.9c-4.8,0.9-9.5,1.9-14.3,1.9c-4.8,0.9-8.6,0.9-12.4,0.9
		c-17.2,0-30.5-3.8-41.9-10.5c-11.4-6.7-18.1-19.1-21.9-36.2c-16.2,16.2-36.2,27.6-60,35.3c-23.8,7.6-46.7,10.5-68.6,10.5
		c-17.2,0-32.4-1.9-48.6-6.7c-15.2-4.8-28.6-11.4-41-20c-11.4-8.6-21-20-27.6-34.3c-6.7-14.3-10.5-30.5-10.5-48.6
		c0-23.8,3.8-41.9,12.4-57.2c8.6-14.3,19.1-25.7,33.4-34.3c13.3-8.6,28.6-14.3,45.7-18.1c17.2-3.8,34.3-6.7,51.5-8.6
		c15.2-2.9,28.6-4.8,42.9-6.7c13.3-0.9,25.7-2.9,35.3-6.7c10.5-2.9,18.1-7.6,24.8-13.3c5.7-5.7,8.6-15.2,8.6-27.6
		c0-10.5-2.9-19.1-7.6-26.7c-4.8-6.7-11.4-12.4-19.1-15.2c-7.6-3.8-15.2-5.7-24.8-7.6c-9.5-0.9-18.1-1.9-25.7-1.9
		c-22.9,0-41.9,4.8-57.2,14.3c-15.2,9.5-22.9,24.8-24.8,45.7h-82c1.9-24.8,7.6-44.8,17.2-61c10.5-16.2,22.9-28.6,38.1-39.1
		c15.2-9.5,33.4-16.2,53.4-20c20-3.8,40-5.7,60-5.7c18.1,0,36.2,1.9,54.3,5.7c18.1,3.8,33.4,10.5,47.6,19.1
		c14.3,8.6,25.7,20,34.3,34.3s13.3,30.5,13.3,50.5v197.3L1976.8,485.7L1976.8,485.7z M1894.8,380.9c-12.4,8.6-27.6,13.3-45.7,15.2
		c-18.1,1.9-36.2,3.8-54.3,7.6c-8.6,1.9-17.2,3.8-24.8,6.7c-8.6,2.9-15.2,6.7-21.9,11.4c-6.7,4.8-11.4,10.5-14.3,18.1
		c-3.8,7.6-5.7,17.2-5.7,27.6c0,9.5,2.9,17.2,7.6,23.8c5.7,6.7,11.4,11.4,19.1,15.2c7.6,3.8,15.2,6.7,24.8,7.6
		c8.6,1.9,17.2,1.9,23.8,1.9c9.5,0,19.1-0.9,29.5-3.8c10.5-2.9,21-6.7,29.5-12.4c9.5-5.7,17.2-13.3,23.8-21.9
		c6.7-8.6,9.5-20,9.5-33.4v-63.8L1894.8,380.9L1894.8,380.9z M2107.3,402.8c0,14.3,1.9,28.6,5.7,41.9c3.8,13.3,10.5,25.7,18.1,36.2
		c8.6,10.5,18.1,18.1,30.5,24.8c12.4,5.7,27.6,9.5,44.8,9.5c23.8,0,42.9-4.8,58.1-15.2c14.3-10.5,25.7-25.7,32.4-46.7h78.1
		c-4.8,20-11.4,39.1-21.9,55.3s-22.9,29.5-38.1,41c-15.2,10.5-31.5,19.1-49.6,24.8c-18.1,5.7-38.1,8.6-58.1,8.6
		c-29.5,0-55.3-4.8-78.1-14.3c-22.9-9.5-41.9-23.8-57.2-41c-15.2-17.2-27.6-38.1-35.3-62.9c-7.6-24.8-11.4-51.5-11.4-80.1
		c0-26.7,3.8-52.4,12.4-76.2c8.6-23.8,20-45.7,36.2-63.8c15.2-18.1,34.3-32.4,56.2-43.8c21.9-10.5,46.7-16.2,75.3-16.2
		c29.5,0,55.3,6.7,79.1,19.1c22.9,12.4,42.9,28.6,58.1,49.6c15.2,20,26.7,43.8,33.4,70.5c6.7,26.7,8.6,54.3,5.7,82h-274.5
		L2107.3,402.8L2107.3,402.8z M2298.9,347.5c-0.9-13.3-3.8-25.7-8.6-38.1c-4.8-12.4-10.5-22.9-19.1-31.5
		c-7.6-8.6-17.2-16.2-28.6-21.9c-11.4-5.7-23.8-8.6-38.1-8.6c-14.3,0-27.6,2.9-39.1,7.6c-11.4,4.8-21.9,12.4-30.5,21
		c-8.6,8.6-15.2,20-20,31.5c-4.8,12.4-7.6,25.7-8.6,39.1L2298.9,347.5L2298.9,347.5z"/>
</g>
</svg>
