<svg width="71" height="70" viewBox="0 0 71 70" fill="none" xmlns="http://www.w3.org/2000/svg">
<g filter="url(#filter0_d_21_1312)">
<circle cx="35.4" cy="21.9796" r="16.7999" fill="#1A202C"/>
</g>
<path d="M35.4001 5.17969C26.1216 5.17969 18.6001 12.7012 18.6001 21.9797C18.6001 31.2582 26.1216 38.7797 35.4001 38.7797C44.6786 38.7797 52.2001 31.2582 52.2001 21.9797C52.2001 12.7012 44.6786 5.17969 35.4001 5.17969Z" fill="white"/>
<path d="M40.1757 14H42.9357L36.9058 20.7782L44 30H38.4455L34.0955 24.4063L29.117 30H26.3555L32.8055 22.7497L26 14.0007H31.6955L35.6278 19.1135L40.1757 14ZM39.2075 28.3759H40.7367L30.8645 15.5393H29.2235L39.2075 28.3759Z" fill="#648AFA"/>
<defs>
<filter id="filter0_d_21_1312" x="0.600098" y="0.179688" width="69.5999" height="69.6001" filterUnits="userSpaceOnUse" color-interpolation-filters="sRGB">
<feFlood flood-opacity="0" result="BackgroundImageFix"/>
<feColorMatrix in="SourceAlpha" type="matrix" values="0 0 0 0 0 0 0 0 0 0 0 0 0 0 0 0 0 0 127 0" result="hardAlpha"/>
<feOffset dy="13"/>
<feGaussianBlur stdDeviation="9"/>
<feColorMatrix type="matrix" values="0 0 0 0 0.0658854 0 0 0 0 0.0730469 0 0 0 0 0.1375 0 0 0 0.08 0"/>
<feBlend mode="normal" in2="BackgroundImageFix" result="effect1_dropShadow_21_1312"/>
<feBlend mode="normal" in="SourceGraphic" in2="effect1_dropShadow_21_1312" result="shape"/>
</filter>
</defs>
</svg>
